<svg width="42" height="50" viewBox="0 0 42 50" version="1.1" xmlns="http://www.w3.org/2000/svg" xmlns:xlink="http://www.w3.org/1999/xlink">
<title>Asset 12</title>
<desc>Created using Figma</desc>
<g id="Canvas" transform="translate(-394 -5)">
<g id="Asset 12">
<g id="Shape">
<use xlink:href="#path0_stroke" transform="translate(394.998 24.08)" fill="#FFFFFF"/>
</g>
<g id="Shape">
<use xlink:href="#path1_stroke" transform="translate(397.172 6.01999)" fill="#FFFFFF"/>
</g>
</g>
</g>
<defs>
<path id="path0_stroke" d="M 24.2617 19.43L 24.3325 18.4877L 23.8676 18.4527L 23.557 18.8004L 24.2617 19.43ZM 23.5917 20.18L 22.887 19.5504L 22.6745 19.7883L 22.6496 20.1064L 23.5917 20.18ZM 23.1517 29.09L 23.1517 30.035L 24.0699 30.035L 24.0963 29.1172L 23.1517 29.09ZM 17.7817 29.09L 16.8384 29.033L 16.7779 30.035L 17.7817 30.035L 17.7817 29.09ZM 16.0017 19.58L 16.9155 19.3392L 16.7129 18.5703L 15.9207 18.6385L 16.0017 19.58ZM 0.00172666 5.1L -0.104445 4.16098L -0.916585 4.25281L -0.942788 5.0697L 0.00172666 5.1ZM 4.00173 4.92L 3.98032 5.86476L 3.98341 5.86482L 4.00173 4.92ZM 13.5817 7.28L 13.1591 8.12522L 13.9639 8.52768L 14.4053 7.74348L 13.5817 7.28ZM 19.9617 0L 20.515 -0.766095L 19.9507 -1.17362L 19.3942 -0.755607L 19.9617 0ZM 26.2717 7.2L 25.4397 7.648L 25.8792 8.46429L 26.7037 8.04048L 26.2717 7.2ZM 36.1417 4.74L 36.1547 5.68491L 36.1557 5.6849L 36.1417 4.74ZM 40.0017 4.92L 40.9463 4.88998L 40.9202 4.06902L 40.1036 3.9805L 40.0017 4.92ZM 23.557 18.8004L 22.887 19.5504L 24.2965 20.8096L 24.9665 20.0596L 23.557 18.8004ZM 22.6496 20.1064C 22.5036 21.9749 22.3927 24.2195 22.3188 25.9868C 22.2818 26.8712 22.2539 27.6408 22.2352 28.1873C 22.2259 28.461 22.2189 28.68 22.2142 28.8298C 22.2119 28.9049 22.2101 28.9632 22.2089 29.0024C 22.2083 29.022 22.2079 29.0371 22.2076 29.0472C 22.2074 29.0523 22.2073 29.0561 22.2072 29.0587C 22.2072 29.06 22.2072 29.061 22.2071 29.0617C 22.2071 29.062 22.2071 29.0623 22.2071 29.0624C 22.2071 29.0625 22.2071 29.0626 22.2071 29.0627C 22.2071 29.0627 22.2071 29.0628 23.1517 29.09C 24.0963 29.1172 24.0963 29.1172 24.0963 29.1172C 24.0963 29.1172 24.0963 29.1171 24.0963 29.1171C 24.0963 29.1169 24.0963 29.1167 24.0964 29.1164C 24.0964 29.1158 24.0964 29.1149 24.0964 29.1137C 24.0965 29.1113 24.0966 29.1076 24.0968 29.1027C 24.097 29.0929 24.0975 29.0783 24.0981 29.059C 24.0992 29.0202 24.101 28.9631 24.1033 28.8888C 24.1079 28.7398 24.1149 28.5235 24.1241 28.2517C 24.1427 27.7073 24.1704 26.945 24.2072 26.0657C 24.2807 24.3055 24.3898 22.0951 24.5339 20.2536L 22.6496 20.1064ZM 23.1517 28.145L 17.7817 28.145L 17.7817 30.035L 23.1517 30.035L 23.1517 28.145ZM 18.725 29.147C 18.7985 27.9308 18.5207 26.1794 18.158 24.4452C 17.7893 22.6845 17.306 20.8209 16.9155 19.3392L 15.0879 19.8208C 15.4775 21.2991 15.9491 23.1155 16.308 24.8323C 16.6727 26.5756 16.8949 28.0992 16.8384 29.033L 18.725 29.147ZM 15.9207 18.6385C 11.9471 18.9802 9.0815 18.2747 7.00312 17.0948C 4.87585 15.9066 3.57255 14.2587 2.65236 12.4432C 1.73003 10.6496 1.31897 8.85643 1.11548 7.42831C 1.0145 6.72684 0.973808 6.15829 0.956212 5.74043C 0.947517 5.53726 0.945288 5.38595 0.945027 5.27581C 0.944876 5.22346 0.945233 5.18736 0.945656 5.16007C 0.945842 5.14774 0.946 5.14037 0.946151 5.13405C 0.94621 5.13154 0.946236 5.13062 0.946271 5.12934C 0.94628 5.12903 0.946283 5.12894 0.946278 5.12911C 0.946276 5.12918 0.946267 5.12948 0.946265 5.12952C 0.946254 5.12988 0.946241 5.1303 0.00172666 5.1C -0.942788 5.0697 -0.942805 5.07024 -0.942823 5.07084C -0.942832 5.07112 -0.942852 5.07178 -0.942869 5.07235C -0.942894 5.07315 -0.942943 5.07484 -0.942988 5.07645C -0.94306 5.07902 -0.943188 5.08386 -0.943311 5.08899C -0.943524 5.09795 -0.943845 5.11335 -0.944121 5.13106C -0.944621 5.16386 -0.945112 5.21687 -0.944967 5.28062C -0.944638 5.4027 -0.941701 5.59161 -0.932094 5.82043C -0.913089 6.26655 -0.864644 6.92909 -0.755461 7.69607C -0.538642 9.20482 -0.0453302 11.2979 0.968594 13.3018C 1.98465 15.2838 3.64948 17.3447 6.07002 18.7384C 8.53945 20.1403 11.8014 20.8898 16.0827 20.5215L 15.9207 18.6385ZM 0.107898 6.03902C 1.40385 5.89194 2.67641 5.83468 3.98032 5.86476L 4.02313 3.97524C 2.65531 3.9448 1.25511 4.00781 -0.104445 4.16098L 0.107898 6.03902ZM 3.98341 5.86482C 7.20788 5.92151 10.2772 6.67763 13.1591 8.12522L 14.0044 6.43478C 10.93 4.90392 7.45375 4.04757 4.02004 3.97518L 3.98341 5.86482ZM 14.4053 7.74348C 15.9526 4.98381 17.9964 2.65163 20.5293 0.755607L 19.3942 -0.755607C 16.7113 1.26577 14.4101 3.89164 12.7582 6.81652L 14.4053 7.74348ZM 19.4084 0.766095C 21.946 2.59134 23.9631 4.89293 25.4397 7.648L 27.1038 6.752C 25.5157 3.81522 23.2181 1.19351 20.515 -0.766095L 19.4084 0.766095ZM 26.7037 8.04048C 29.6602 6.5138 32.8275 5.72438 36.1547 5.68491L 36.1287 3.79509C 32.5844 3.85009 28.9953 4.74463 25.8397 6.35952L 26.7037 8.04048ZM 36.1557 5.6849C 37.4158 5.66583 38.647 5.72324 39.8999 5.8595L 40.1036 3.9805C 38.7929 3.83888 37.4459 3.77607 36.1278 3.7951L 36.1557 5.6849ZM 40.0017 4.92C 39.0572 4.95002 39.0572 4.94961 39.0572 4.94925C 39.0572 4.94921 39.0572 4.94891 39.0572 4.94884C 39.0572 4.94868 39.0572 4.94875 39.0572 4.94906C 39.0572 4.95032 39.0572 4.95122 39.0573 4.9537C 39.0574 4.95994 39.0576 4.96722 39.0578 4.9794C 39.0582 5.00639 39.0585 5.04208 39.0584 5.09387C 39.0581 5.20285 39.0559 5.35255 39.0473 5.55368C 39.03 5.96739 38.9899 6.53045 38.8905 7.22578C 38.6902 8.64148 38.2855 10.4213 37.3778 12.2072C 36.4722 14.0148 35.1894 15.661 33.0967 16.861C 31.053 18.0515 28.2369 18.781 24.3325 18.4877L 24.1909 20.3723C 28.4066 20.689 31.618 19.9097 34.048 18.494C 36.429 17.0877 38.0662 15.0302 39.0656 13.0578C 40.063 11.0637 40.5483 8.98727 40.7617 7.49172C 40.8692 6.73142 40.9169 6.07511 40.9357 5.63335C 40.9451 5.40675 40.948 5.21969 40.9484 5.09885C 40.9485 5.03572 40.948 4.98323 40.9476 4.95077C 40.9473 4.93323 40.947 4.91797 40.9468 4.90909C 40.9466 4.90401 40.9465 4.89922 40.9464 4.89667C 40.9464 4.89508 40.9464 4.8934 40.9463 4.8926C 40.9463 4.89204 40.9463 4.89139 40.9463 4.89111C 40.9463 4.89051 40.9463 4.88998 40.0017 4.92Z"/>
<path id="path1_stroke" d="M 35.6583 17.37L 34.7133 17.3703L 34.7133 17.3718L 35.6583 17.37ZM 33.9483 22.81L 33.9613 23.7549L 34.4448 23.7483L 34.7223 23.3522L 33.9483 22.81ZM 24.0783 25.27L 23.2462 25.718L 23.6857 26.5343L 24.5103 26.1105L 24.0783 25.27ZM 17.7683 18.07L 18.3216 17.3039L 17.7573 16.8964L 17.2008 17.3144L 17.7683 18.07ZM 11.3883 25.35L 10.9647 26.1948L 11.77 26.5985L 12.2118 25.8135L 11.3883 25.35ZM 1.82828 22.98L 1.06456 23.5366L 1.34024 23.9148L 1.8082 23.9248L 1.82828 22.98ZM 5.93828 8.54001L 6.29444 9.41532L 6.69182 9.25363L 6.83166 8.84804L 5.93828 8.54001ZM 29.9383 8.67001L 29.0416 8.96835L 29.1752 9.36972L 29.5635 9.5375L 29.9383 8.67001ZM 34.7133 17.3718C 34.7278 19.1737 34.2172 20.7983 33.1743 22.2678L 34.7223 23.3522C 35.9125 21.6337 36.5962 19.4586 36.6033 17.3682L 34.7133 17.3718ZM 33.9353 21.8651C 30.3909 21.9201 26.8018 22.8146 23.6463 24.4295L 24.5103 26.1105C 27.4668 24.5838 30.6341 23.7944 33.9613 23.7549L 33.9353 21.8651ZM 24.9103 24.822C 23.3223 21.8852 21.0246 19.2635 18.3216 17.3039L 17.215 18.8361C 19.7526 20.6613 21.7696 22.9629 23.2462 25.718L 24.9103 24.822ZM 17.2008 17.3144C 14.5179 19.3358 12.2166 21.9616 10.5647 24.8865L 12.2118 25.8135C 13.7591 23.0538 15.803 20.7216 18.3358 18.8256L 17.2008 17.3144ZM 11.8118 24.5052C 8.74452 22.9738 5.27585 22.1139 1.84835 22.0352L 1.8082 23.9248C 5.02686 23.9874 8.08954 24.7466 10.9647 26.1948L 11.8118 24.5052ZM 2.59199 22.4234C 1.03647 20.289 0.549998 17.5573 1.27302 15.0171L -0.544783 14.4997C -1.42698 17.5992 -0.83341 20.9322 1.06456 23.5366L 2.59199 22.4234ZM 1.27302 15.0171C 1.99604 12.4768 3.84807 10.4107 6.29444 9.41532L 5.58211 7.66469C 2.59717 8.87927 0.337411 11.4002 -0.544783 14.4997L 1.27302 15.0171ZM 6.83166 8.84804C 8.4699 4.09674 12.954 0.917951 17.9798 0.945174L 17.99 -0.944799C 12.1542 -0.976409 6.94721 2.71479 5.04489 8.23197L 6.83166 8.84804ZM 17.9798 0.945174C 23.0055 0.972396 27.4549 4.19958 29.0416 8.96835L 30.8349 8.37166C 28.9925 2.8342 23.8258 -0.913188 17.99 -0.944799L 17.9798 0.945174ZM 29.5635 9.5375C 32.6886 10.8877 34.7124 13.9659 34.7133 17.3703L 36.6033 17.3698C 36.6022 13.2116 34.1302 9.45174 30.3131 7.80251L 29.5635 9.5375Z"/>
</defs>
</svg>
