<svg width="24" height="56" viewBox="0 0 24 56" version="1.1" xmlns="http://www.w3.org/2000/svg" xmlns:xlink="http://www.w3.org/1999/xlink">
<title>Asset 14</title>
<desc>Created using Figma</desc>
<g id="Canvas" transform="translate(-513 -187)">
<g id="Asset 14">
<g id="Shape">
<use xlink:href="#path0_stroke" transform="translate(514.988 192.78)" fill="#FFFFFF"/>
</g>
<g id="Shape">
<use xlink:href="#path1_fill" transform="translate(521.46 188)" fill="#FFFFFF"/>
<use xlink:href="#path2_stroke" transform="translate(521.46 188)" fill="#FFFFFF"/>
</g>
<g id="Rectangle-path">
<use xlink:href="#path3_fill" transform="translate(521.72 193.36)" fill="#FFFFFF"/>
<use xlink:href="#path4_stroke" transform="translate(521.72 193.36)" fill="#FFFFFF"/>
</g>
<g id="Shape">
<use xlink:href="#path5_fill" transform="translate(515.28 206.73)" fill="#FFFFFF"/>
<use xlink:href="#path6_stroke" transform="translate(515.28 206.73)" fill="#FFFFFF"/>
</g>
<g id="Shape">
<use xlink:href="#path5_fill" transform="translate(515.28 228.17)" fill="#FFFFFF"/>
<use xlink:href="#path6_stroke" transform="translate(515.28 228.17)" fill="#FFFFFF"/>
</g>
</g>
</g>
<defs>
<path id="path0_stroke" d="M 15.7423 49.22L 15.7423 50.22L 15.9659 50.22L 16.1682 50.1248L 15.7423 49.22ZM 4.39234 49.22L 3.93566 50.1096L 4.15066 50.22L 4.39234 50.22L 4.39234 49.22ZM 0.282337 37.35L 1.25999 37.5602L 1.28234 37.4563L 1.28234 37.35L 0.282337 37.35ZM 0.282337 12.87L 1.28234 12.87L 1.28234 12.8306L 1.27924 12.7914L 0.282337 12.87ZM 7.41234 2.67L 7.68095 3.63325L 8.41234 3.4293L 8.41234 2.67L 7.41234 2.67ZM 7.41234 0L 7.41234 -1L 6.41234 -1L 6.41234 0L 7.41234 0ZM 13.4123 0L 14.4123 0L 14.4123 -1L 13.4123 -1L 13.4123 0ZM 13.4123 2.91L 12.4123 2.91L 12.4123 3.60945L 13.0694 3.84934L 13.4123 2.91ZM 19.8223 12.51L 18.8233 12.4667L 18.8223 12.4884L 18.8223 12.51L 19.8223 12.51ZM 19.8223 37.29L 18.8223 37.29L 18.8223 37.3633L 18.833 37.4359L 19.8223 37.29ZM 15.7423 48.22L 4.39234 48.22L 4.39234 50.22L 15.7423 50.22L 15.7423 48.22ZM 4.84901 48.3304C 2.28597 47.0147 1.34355 44.4608 1.08161 42.0232C 0.948038 40.8056 0.995021 39.7118 1.07623 38.8668C 1.11553 38.4533 1.16153 38.1303 1.19994 37.8938C 1.21841 37.7797 1.23341 37.6971 1.24499 37.6362C 1.2504 37.6077 1.25414 37.5889 1.25714 37.5741C 1.25844 37.5677 1.25915 37.5643 1.25984 37.561C 1.26008 37.5598 1.26012 37.5596 1.26025 37.559C 1.26026 37.559 1.26021 37.5592 1.2602 37.5592C 1.26018 37.5593 1.26013 37.5596 1.26012 37.5596C 1.26006 37.5599 1.25999 37.5602 0.282337 37.35C -0.695319 37.1398 -0.6954 37.1402 -0.695489 37.1406C -0.695528 37.1408 -0.695624 37.1412 -0.695702 37.1416C -0.695809 37.1421 -0.696043 37.1432 -0.696255 37.1442C -0.696581 37.1457 -0.697216 37.1487 -0.697856 37.1518C -0.698941 37.157 -0.700848 37.1662 -0.70294 37.1765C -0.706731 37.1952 -0.712867 37.2261 -0.71984 37.2628C -0.733016 37.3321 -0.752763 37.4414 -0.774255 37.5736C -0.815764 37.8298 -0.87054 38.2176 -0.914681 38.6763C -1.00035 39.5757 -1.05086 40.8719 -0.906939 42.2368C -0.613877 44.9642 0.498704 48.3453 3.93566 50.1096L 4.84901 48.3304ZM 1.28234 37.35L 1.28234 12.87L -0.717663 12.87L -0.717663 37.35L 1.28234 37.35ZM 1.27924 12.7914C 0.948697 8.60061 3.63167 4.76242 7.68095 3.63325L 7.14373 1.70675C 2.17311 3.09285 -1.12032 7.80435 -0.714567 12.9486L 1.27924 12.7914ZM 8.41234 2.67L 8.41234 0L 6.41234 0L 6.41234 2.67L 8.41234 2.67ZM 7.41234 1L 13.4123 1L 13.4123 -1L 7.41234 -1L 7.41234 1ZM 12.4123 0L 12.4123 2.91L 14.4123 2.91L 14.4123 0L 12.4123 0ZM 13.0694 3.84934C 16.6606 5.16059 18.9886 8.64717 18.8233 12.4667L 20.8214 12.5533C 21.0245 7.86263 18.1656 3.58093 13.7553 1.97066L 13.0694 3.84934ZM 18.8223 12.51L 18.8223 37.29L 20.8223 37.29L 20.8223 12.51L 18.8223 12.51ZM 18.833 37.4359C 19.4907 41.8967 18.5094 44.6271 17.4644 46.2154C 16.9348 47.0317 16.4073 47.531 15.9542 47.8874C 15.7433 48.0551 15.5872 48.1571 15.4572 48.2353C 15.3997 48.2703 15.3654 48.2892 15.3334 48.3061C 15.3211 48.3127 15.3171 48.3148 15.3105 48.3181C 15.309 48.3188 15.3089 48.3188 15.3097 48.3184C 15.3092 48.3187 15.3124 48.3172 15.3121 48.3173C 15.3116 48.3175 15.3143 48.3162 15.3141 48.3164C 15.3144 48.3162 15.315 48.3159 15.3152 48.3158C 15.3158 48.3155 15.3165 48.3152 15.7423 49.22C 16.1682 50.1248 16.1689 50.1245 16.1696 50.1241C 16.1699 50.124 16.1706 50.1237 16.1711 50.1234C 16.1717 50.1231 16.1733 50.1224 16.1745 50.1218C 16.1761 50.121 16.1798 50.1193 16.1829 50.1178C 16.1873 50.1156 16.1967 50.111 16.2054 50.1066C 16.2194 50.0996 16.2459 50.0861 16.2732 50.0716C 16.3206 50.0463 16.4022 50.0009 16.4913 49.9473C 16.6545 49.8484 16.9142 49.6765 17.1936 49.457C 17.7211 49.039 18.4724 48.3108 19.1352 47.3146C 20.4753 45.2779 21.534 42.0433 20.8116 37.1441L 18.833 37.4359Z"/>
<path id="path1_fill" fill-rule="evenodd" d="M 0 0L 0 3.78L 7.94 3.78L 7.94 0L 0 0ZM 1.69 3.58L 0.320007 3.58L 0.320007 0.199997L 1.69 0.199997L 1.69 3.58ZM 2.27002 3.58L 3.64001 3.58L 3.64001 0.199997L 2.27002 0.199997L 2.27002 3.58ZM 5.64001 3.58L 4.26001 3.58L 4.26001 0.199997L 5.64001 0.199997L 5.64001 3.58ZM 6.21002 3.58L 7.64001 3.58L 7.59003 0.199997L 6.21002 0.199997L 6.21002 3.58Z"/>
<path id="path2_stroke" d="M 0 3.78L -1 3.78L -1 4.78L 0 4.78L 0 3.78ZM 0 0L 0 -1L -1 -1L -1 0L 0 0ZM 7.94 3.78L 7.94 4.78L 8.94 4.78L 8.94 3.78L 7.94 3.78ZM 7.94 0L 8.94 0L 8.94 -1L 7.94 -1L 7.94 0ZM 0.320007 3.58L -0.679993 3.58L -0.679993 4.58L 0.320007 4.58L 0.320007 3.58ZM 1.69 3.58L 1.69 4.58L 2.69 4.58L 2.69 3.58L 1.69 3.58ZM 0.320007 0.199997L 0.320007 -0.800003L -0.679993 -0.800003L -0.679993 0.199997L 0.320007 0.199997ZM 1.69 0.199997L 2.69 0.199997L 2.69 -0.800003L 1.69 -0.800003L 1.69 0.199997ZM 3.64001 3.58L 3.64001 4.58L 4.64001 4.58L 4.64001 3.58L 3.64001 3.58ZM 2.27002 3.58L 1.27002 3.58L 1.27002 4.58L 2.27002 4.58L 2.27002 3.58ZM 3.64001 0.199997L 4.64001 0.199997L 4.64001 -0.800003L 3.64001 -0.800003L 3.64001 0.199997ZM 2.27002 0.199997L 2.27002 -0.800003L 1.27002 -0.800003L 1.27002 0.199997L 2.27002 0.199997ZM 4.26001 3.58L 3.26001 3.58L 3.26001 4.58L 4.26001 4.58L 4.26001 3.58ZM 5.64001 3.58L 5.64001 4.58L 6.64001 4.58L 6.64001 3.58L 5.64001 3.58ZM 4.26001 0.199997L 4.26001 -0.800003L 3.26001 -0.800003L 3.26001 0.199997L 4.26001 0.199997ZM 5.64001 0.199997L 6.64001 0.199997L 6.64001 -0.800003L 5.64001 -0.800003L 5.64001 0.199997ZM 7.64001 3.58L 7.64001 4.58L 8.65491 4.58L 8.6399 3.56521L 7.64001 3.58ZM 6.21002 3.58L 5.21002 3.58L 5.21002 4.58L 6.21002 4.58L 6.21002 3.58ZM 7.59003 0.199997L 8.58992 0.185209L 8.57535 -0.800003L 7.59003 -0.800003L 7.59003 0.199997ZM 6.21002 0.199997L 6.21002 -0.800003L 5.21002 -0.800003L 5.21002 0.199997L 6.21002 0.199997ZM 1 3.78L 1 0L -1 0L -1 3.78L 1 3.78ZM 7.94 2.78L 0 2.78L 0 4.78L 7.94 4.78L 7.94 2.78ZM 6.94 0L 6.94 3.78L 8.94 3.78L 8.94 0L 6.94 0ZM 0 1L 7.94 1L 7.94 -1L 0 -1L 0 1ZM 0.320007 4.58L 1.69 4.58L 1.69 2.58L 0.320007 2.58L 0.320007 4.58ZM -0.679993 0.199997L -0.679993 3.58L 1.32001 3.58L 1.32001 0.199997L -0.679993 0.199997ZM 1.69 -0.800003L 0.320007 -0.800003L 0.320007 1.2L 1.69 1.2L 1.69 -0.800003ZM 2.69 3.58L 2.69 0.199997L 0.690002 0.199997L 0.690002 3.58L 2.69 3.58ZM 3.64001 2.58L 2.27002 2.58L 2.27002 4.58L 3.64001 4.58L 3.64001 2.58ZM 2.64001 0.199997L 2.64001 3.58L 4.64001 3.58L 4.64001 0.199997L 2.64001 0.199997ZM 2.27002 1.2L 3.64001 1.2L 3.64001 -0.800003L 2.27002 -0.800003L 2.27002 1.2ZM 3.27002 3.58L 3.27002 0.199997L 1.27002 0.199997L 1.27002 3.58L 3.27002 3.58ZM 4.26001 4.58L 5.64001 4.58L 5.64001 2.58L 4.26001 2.58L 4.26001 4.58ZM 3.26001 0.199997L 3.26001 3.58L 5.26001 3.58L 5.26001 0.199997L 3.26001 0.199997ZM 5.64001 -0.800003L 4.26001 -0.800003L 4.26001 1.2L 5.64001 1.2L 5.64001 -0.800003ZM 6.64001 3.58L 6.64001 0.199997L 4.64001 0.199997L 4.64001 3.58L 6.64001 3.58ZM 7.64001 2.58L 6.21002 2.58L 6.21002 4.58L 7.64001 4.58L 7.64001 2.58ZM 6.59014 0.214785L 6.64012 3.59479L 8.6399 3.56521L 8.58992 0.185209L 6.59014 0.214785ZM 6.21002 1.2L 7.59003 1.2L 7.59003 -0.800003L 6.21002 -0.800003L 6.21002 1.2ZM 7.21002 3.58L 7.21002 0.199997L 5.21002 0.199997L 5.21002 3.58L 7.21002 3.58Z"/>
<path id="path3_fill" d="M 0 0L 7.34 0L 7.34 0.91L 0 0.91L 0 0Z"/>
<path id="path4_stroke" d="M 0 0L 0 -1L -1 -1L -1 0L 0 0ZM 7.34 0L 8.34 0L 8.34 -1L 7.34 -1L 7.34 0ZM 7.34 0.91L 7.34 1.91L 8.34 1.91L 8.34 0.91L 7.34 0.91ZM 0 0.91L -1 0.91L -1 1.91L 0 1.91L 0 0.91ZM 0 1L 7.34 1L 7.34 -1L 0 -1L 0 1ZM 6.34 0L 6.34 0.91L 8.34 0.91L 8.34 0L 6.34 0ZM 7.34 -0.09L 0 -0.09L 0 1.91L 7.34 1.91L 7.34 -0.09ZM 1 0.91L 1 0L -1 0L -1 0.91L 1 0.91Z"/>
<path id="path5_fill" d="M 0 0L 19.49 0L 0 0Z"/>
<path id="path6_stroke" d="M 0 1L 19.49 1L 19.49 -1L 0 -1L 0 1Z"/>
</defs>
</svg>
