<svg width="33" height="41" viewBox="0 0 33 41" version="1.1" xmlns="http://www.w3.org/2000/svg" xmlns:xlink="http://www.w3.org/1999/xlink">
<title>Asset 11</title>
<desc>Created using Figma</desc>
<g id="Canvas" transform="translate(-474 -137)">
<g id="Asset 11">
<g id="Shape">
<use xlink:href="#path0_stroke" transform="translate(476 138)" fill="#FFFFFF"/>
</g>
<g id="Shape">
<use xlink:href="#path1_stroke" transform="translate(475.993 142.43)" fill="#FFFFFF"/>
</g>
<g id="Shape">
<use xlink:href="#path2_stroke" transform="translate(497.44 146.22)" fill="#FFFFFF"/>
</g>
<g id="Shape">
<use xlink:href="#path3_stroke" transform="translate(486.62 146.58)" fill="#FFFFFF"/>
</g>
<g id="Shape">
<use xlink:href="#path4_stroke" transform="translate(492.05 158.38)" fill="#FFFFFF"/>
</g>
<g id="Shape">
<use xlink:href="#path5_stroke" transform="translate(498.76 167.78)" fill="#FFFFFF"/>
</g>
<g id="Shape">
<use xlink:href="#path6_stroke" transform="translate(481.37 156.62)" fill="#FFFFFF"/>
</g>
<g id="Shape">
<use xlink:href="#path7_stroke" transform="translate(485.58 167.31)" fill="#FFFFFF"/>
</g>
<g id="Shape">
<use xlink:href="#path8_stroke" transform="translate(490.55 140.99)" fill="#FFFFFF"/>
</g>
</g>
</g>
<defs>
<path id="path0_stroke" d="M 10.62 8.58L 10.5363 9.5765L 10.5403 9.57682L 10.62 8.58ZM 28.55 3.17L 27.8253 3.85906L 27.8467 3.88158L 27.8695 3.90273L 28.55 3.17ZM 29.11 4.37L 30.11 4.37L 30.11 4.34453L 30.1087 4.31909L 29.11 4.37ZM 28 6L 27.514 5.12604L 27.503 5.13215L 27.4922 5.13854L 28 6ZM 21.44 8.18L 21.3312 7.18594L 21.3058 7.18871L 21.2806 7.19278L 21.44 8.18ZM 14.55 7.74C 13.2127 7.74026 11.9326 7.68196 10.6997 7.58318L 10.5403 9.57682C 11.8074 9.67804 13.1673 9.73974 14.55 9.74L 14.55 7.74ZM 10.7037 7.58351C 7.72804 7.33528 5.23413 6.82298 3.42702 6.12311C 2.54366 5.78498 1.93212 5.45743 1.48737 5.07669C 1.07218 4.72753 1.00373 4.48937 0.998969 4.38459L -0.998969 4.47541C -0.958731 5.36063 -0.435932 6.07247 0.200126 6.60737C 0.806629 7.11069 1.70634 7.60127 2.70798 7.98939C 4.67087 8.74202 7.44196 9.31472 10.5363 9.57649L 10.7037 7.58351ZM 1 4.43L 1 4.37L -1 4.37L -1 4.43L 1 4.43ZM 1 4.37C 1 4.26742 1.07763 3.95904 1.72145 3.50392C 2.37449 3.03628 3.29474 2.63192 4.55314 2.25346C 7.11094 1.47696 10.6032 0.997668 14.55 1L 14.55 -1C 10.4668 -0.997668 6.68406 -0.476956 3.97436 0.339039C 2.59901 0.756831 1.38739 1.29685 0.566985 1.87076C -0.26263 2.45721 -1 3.28758 -1 4.37L 1 4.37ZM 14.55 1C 17.8206 0.998519 20.7733 1.32101 23.1671 1.87331C 25.5952 2.43173 27.1739 3.17394 27.8253 3.85906L 29.2747 2.48094C 28.1861 1.33606 26.0898 0.493268 23.6154 -0.0758084C 21.1067 -0.651011 17.9294 -0.998519 14.55 -1L 14.55 1ZM 27.8695 3.90273C 28.0145 4.03739 28.1012 4.22329 28.1113 4.42091L 30.1087 4.31909C 30.0721 3.60141 29.7571 2.9263 29.2305 2.43727L 27.8695 3.90273ZM 28.11 4.37L 28.11 4.43L 30.11 4.43L 30.11 4.37L 28.11 4.37ZM 28.124 4.26325C 28.0622 4.62855 27.8378 4.94598 27.514 5.12604L 28.486 6.87396C 29.3406 6.39873 29.9329 5.56091 30.096 4.59675L 28.124 4.26325ZM 27.4922 5.13854C 25.5786 6.27306 23.5432 6.94948 21.3312 7.18594L 21.5488 9.17406C 23.9697 8.90346 26.4065 8.09369 28.5078 6.86146L 27.4922 5.13854ZM 21.2806 7.19278C 19.0414 7.55507 16.8162 7.73593 14.5479 7.74L 14.5521 9.74C 16.8994 9.73419 19.2819 9.54055 21.5994 9.16722L 21.2806 7.19278Z"/>
<path id="path1_stroke" d="M 9.55733 33.87L 9.46226 34.8655L 9.46281 34.8655L 9.55733 33.87ZM 0.00732648 30.27L 1.00733 30.27L 1.00733 30.2114L 1.00048 30.1532L 0.00732648 30.27ZM 10.6173 3.66L 10.5434 4.65727L 10.5455 4.65742L 10.6173 3.66ZM 14.5473 3.8L 14.5493 2.8L 14.5473 2.8L 14.5473 3.8ZM 21.4373 3.35L 21.3411 2.35464L 21.3231 2.35638L 21.3053 2.35875L 21.4373 3.35ZM 28.0073 1.41L 28.4672 2.298L 28.5025 2.27971L 28.5362 2.25869L 28.0073 1.41ZM 29.1073 30.25L 28.1142 30.1332L 28.1071 30.1937L 28.1073 30.2547L 29.1073 30.25ZM 14.5573 33.1C 12.8411 33.1003 11.2084 33.0225 9.65184 32.8745L 9.46281 34.8655C 11.0663 35.0175 12.7935 35.0997 14.5573 35.1L 14.5573 33.1ZM 9.65239 32.8745C 6.9296 32.6159 4.66857 32.1582 3.04787 31.5558C 2.25813 31.2658 1.72802 30.9952 1.34838 30.6811C 1.17257 30.5422 1.10978 30.4774 1.04536 30.3614C 0.982408 30.2722 0.996258 30.3291 1.00733 30.27L -0.992674 30.27C -0.992674 31.1182 -0.480406 31.7737 0.0897109 32.2354C 0.633507 32.6692 1.45027 33.0954 2.35428 33.4317C 4.12108 34.0818 6.63505 34.5941 9.46226 34.8655L 9.65239 32.8745ZM 1.00048 30.1532C 0.995845 30.1284 0.995845 30.1616 1.00048 30.1368L -0.985826 29.9032C -1.00073 30.0445 -1.00073 30.2455 -0.985826 30.3868L 1.00048 30.1532ZM 1.00733 30.02L 1.00733 0.02L -0.992674 0.02L -0.992674 30.02L 1.00733 30.02ZM -0.991606 0.0661934C -0.951048 0.94325 -0.369029 1.60161 0.251181 2.05969C 0.855417 2.50023 1.74861 2.92804 2.74552 3.26723C 4.69963 3.9257 7.45595 4.42698 10.5434 4.65726L 10.6913 2.66274C 7.70871 2.44302 5.20002 1.9893 3.38664 1.37277C 2.49979 1.07446 1.88361 0.784768 1.43941 0.450932C 1.23206 0.300824 1.14493 0.218452 1.06204 0.0892399C 0.983853 -0.01139 0.99734 0.0373203 1.00626 -0.0261934L -0.991606 0.0661934ZM 10.5455 4.65742C 11.8125 4.7485 13.1684 4.79982 14.5473 4.8L 14.5473 2.8C 13.2063 2.80018 11.9222 2.7515 10.6891 2.66258L 10.5455 4.65742ZM 14.5454 4.8C 16.8831 4.80404 19.252 4.64932 21.5693 4.34125L 21.3053 2.35875C 19.0547 2.65908 16.8199 2.80504 14.5493 2.8L 14.5454 4.8ZM 21.5336 4.34536C 23.9216 4.10984 26.3343 3.39741 28.4672 2.298L 27.5475 0.522005C 25.5878 1.54193 23.5404 2.1465 21.3411 2.35464L 21.5336 4.34536ZM 28.5362 2.25869C 29.3035 1.78054 30.066 1.05419 30.1065 0.039968L 28.1081 -0.039968C 28.111 -0.00634711 28.1209 -0.0531833 28.0991 -0.00937308C 28.0802 0.0442186 28.0786 0.0451763 28.0233 0.112145C 27.9302 0.230167 27.7602 0.38572 27.4784 0.561311L 28.5362 2.25869ZM 28.1073 0L 28.1073 30L 30.1073 30L 30.1073 0L 28.1073 0ZM 28.1142 30.1168C 28.1188 30.1416 28.1188 30.1084 28.1142 30.1332L 30.1005 30.3668C 30.1154 30.2255 30.1154 30.0245 30.1005 29.8832L 28.1142 30.1168ZM 28.1073 30.2547C 28.1121 30.2931 28.1203 30.2454 28.0985 30.2923C 28.0804 30.3491 28.079 30.3497 28.0214 30.4211C 27.8973 30.5921 27.7456 30.717 27.4374 30.9072C 26.7843 31.3221 25.8586 31.679 24.5959 32.0106C 22.031 32.69 18.5189 33.1017 14.5573 33.1L 14.5573 35.1C 18.6357 35.0983 22.4037 34.655 25.1062 33.9444C 26.4773 33.581 27.6822 33.1092 28.5 32.6016C 29.3069 32.0956 30.1124 31.3251 30.1073 30.2453L 28.1073 30.2547Z"/>
<path id="path2_stroke" d="M -1 0L -1 11.61L 1 11.61L 1 0L -1 0Z"/>
<path id="path3_stroke" d="M -1 0L -1 9.6L 1 9.6L 1 0L -1 0Z"/>
<path id="path4_stroke" d="M -1 0L -1 8.93L 1 8.93L 1 0L -1 0Z"/>
<path id="path5_stroke" d="M -1 0L -1 7.89L 1 7.89L 1 0L -1 0Z"/>
<path id="path6_stroke" d="M -1 0L -1 7.97L 1 7.97L 1 0L -1 0Z"/>
<path id="path7_stroke" d="M -1 0L -1 8.87L 1 8.87L 1 0L -1 0Z"/>
<path id="path8_stroke" d="M 11.9968 -0.99357L -0.113223 0.38643L 0.113223 2.37357L 12.2232 0.99357L 11.9968 -0.99357Z"/>
</defs>
</svg>
