<svg width="247" height="139" viewBox="0 0 247 139" version="1.1" xmlns="http://www.w3.org/2000/svg" xmlns:xlink="http://www.w3.org/1999/xlink">
<title>Tyg</title>
<desc>Created using Figma</desc>
<g id="Canvas" transform="translate(-241 -125)">
<g id="Tyg">
<g id="Shape">
<use xlink:href="#path0_fill" transform="translate(241 152)" fill="#D2DBDA"/>
</g>
<g id="Shape">
<use xlink:href="#path1_fill" transform="translate(287 125)" fill="#D2DBDA"/>
</g>
<g id="Shape">
<use xlink:href="#path2_fill" transform="translate(387 125)" fill="#D2DBDA"/>
</g>
<g id="Shape">
<use xlink:href="#path3_fill" transform="translate(393 126)" fill="#D2DBDA"/>
</g>
<g id="Shape">
<use xlink:href="#path4_fill" transform="translate(406 126)" fill="#D2DBDA"/>
</g>
<g id="Shape">
<use xlink:href="#path5_fill" transform="translate(406 126)" fill="#D2DBDA"/>
</g>
<g id="Shape">
<use xlink:href="#path6_fill" transform="translate(406 129)" fill="#D2DBDA"/>
</g>
<g id="Shape">
<use xlink:href="#path7_fill" transform="translate(414 134)" fill="#D2DBDA"/>
</g>
<g id="Shape">
<use xlink:href="#path8_fill" transform="translate(422 140)" fill="#D2DBDA"/>
</g>
<g id="Shape">
<use xlink:href="#path9_fill" transform="translate(432 140)" fill="#D2DBDA"/>
</g>
<g id="Shape">
<use xlink:href="#path10_fill" transform="translate(446 184)" fill="#D2DBDA"/>
</g>
<g id="Shape">
<use xlink:href="#path11_fill" transform="translate(414 144)" fill="#D2DBDA"/>
</g>
<g id="Shape">
<use xlink:href="#path12_fill" transform="translate(414 134)" fill="#D2DBDA"/>
</g>
<g id="Shape">
<use xlink:href="#path13_fill" transform="translate(465 184)" fill="#D2DBDA"/>
</g>
<g id="Shape">
<use xlink:href="#path14_fill" transform="translate(459 190)" fill="#D2DBDA"/>
</g>
<g id="Shape">
<use xlink:href="#path15_fill" transform="translate(461 186)" fill="#D2DBDA"/>
</g>
<g id="Shape">
<use xlink:href="#path16_fill" transform="translate(242 232)" fill="#D2DBDA"/>
</g>
<g id="Shape">
<use xlink:href="#path17_fill" transform="translate(264 258)" fill="#D2DBDA"/>
</g>
<g id="Shape">
<use xlink:href="#path18_fill" transform="translate(352 255)" fill="#D2DBDA"/>
</g>
<g id="Shape">
<use xlink:href="#path19_fill" transform="translate(442 218)" fill="#D2DBDA"/>
</g>
<g id="Shape">
<use xlink:href="#path20_fill" transform="translate(437 240)" fill="#D2DBDA"/>
</g>
<g id="Shape">
<use xlink:href="#path21_fill" transform="translate(360 240)" fill="#D2DBDA"/>
</g>
<g id="Shape">
<use xlink:href="#path22_fill" transform="translate(297 245)" fill="#D2DBDA"/>
</g>
<g id="Shape">
<use xlink:href="#path23_fill" transform="translate(264 232)" fill="#D2DBDA"/>
</g>
<g id="Shape">
<use xlink:href="#path24_fill" transform="translate(264 216)" fill="#D2DBDA"/>
</g>
<g id="Shape">
<use xlink:href="#path25_fill" transform="translate(295 205)" fill="#D2DBDA"/>
</g>
<g id="Shape">
<use xlink:href="#path26_fill" transform="translate(270 232)" fill="#D2DBDA"/>
</g>
<g id="Shape">
<use xlink:href="#path27_fill" transform="translate(268 239)" fill="#D2DBDA"/>
</g>
<g id="Shape">
<use xlink:href="#path28_fill" transform="translate(271 245)" fill="#D2DBDA"/>
</g>
<g id="Shape">
<use xlink:href="#path29_fill" transform="translate(290 239)" fill="#D2DBDA"/>
</g>
<g id="Shape">
<use xlink:href="#path30_fill" transform="translate(278 233)" fill="#D2DBDA"/>
</g>
<g id="Shape">
<use xlink:href="#path31_fill" transform="translate(271 245)" fill="#D2DBDA"/>
</g>
<g id="Shape">
<use xlink:href="#path32_fill" transform="translate(299 240)" fill="#D2DBDA"/>
</g>
<g id="Shape">
<use xlink:href="#path33_fill" transform="translate(297 240)" fill="#D2DBDA"/>
</g>
<g id="Shape">
<use xlink:href="#path34_fill" transform="translate(295 240)" fill="#D2DBDA"/>
</g>
<g id="Shape">
<use xlink:href="#path35_fill" transform="translate(290 239)" fill="#D2DBDA"/>
</g>
<g id="Shape">
<use xlink:href="#path36_fill" transform="translate(287 239)" fill="#D2DBDA"/>
</g>
<g id="Shape">
<use xlink:href="#path37_fill" transform="translate(326 239)" fill="#D2DBDA"/>
</g>
<g id="Shape">
<use xlink:href="#path38_fill" transform="translate(326 239)" fill="#D2DBDA"/>
</g>
<g id="Shape">
<use xlink:href="#path39_fill" transform="translate(321 239)" fill="#D2DBDA"/>
</g>
<g id="Shape">
<use xlink:href="#path40_fill" transform="translate(248 230)" fill="#D2DBDA"/>
</g>
<g id="Shape">
<use xlink:href="#path41_fill" transform="translate(259 232)" fill="#D2DBDA"/>
</g>
<g id="Shape">
<use xlink:href="#path42_fill" transform="translate(260 232)" fill="#D2DBDA"/>
</g>
<g id="Shape">
<use xlink:href="#path43_fill" transform="translate(260 232)" fill="#D2DBDA"/>
</g>
<g id="Shape">
<use xlink:href="#path44_fill" transform="translate(252 233)" fill="#D2DBDA"/>
</g>
<g id="Shape">
<use xlink:href="#path45_fill" transform="translate(248 239)" fill="#D2DBDA"/>
</g>
<g id="Shape">
<use xlink:href="#path46_fill" transform="translate(278 255)" fill="#D2DBDA"/>
</g>
<g id="Shape">
<use xlink:href="#path47_fill" transform="translate(336 245)" fill="#D2DBDA"/>
</g>
<g id="Shape">
<use xlink:href="#path48_fill" transform="translate(378 245)" fill="#D2DBDA"/>
</g>
<g id="Shape">
<use xlink:href="#path49_fill" transform="translate(442 245)" fill="#D2DBDA"/>
</g>
<g id="Shape">
<use xlink:href="#path50_fill" transform="translate(423 245)" fill="#D2DBDA"/>
</g>
<g id="Shape">
<use xlink:href="#path51_fill" transform="translate(423 245)" fill="#D2DBDA"/>
</g>
<g id="Shape">
<use xlink:href="#path52_fill" transform="translate(431 249)" fill="#D2DBDA"/>
</g>
<g id="Shape">
<use xlink:href="#path53_fill" transform="translate(432 249)" fill="#D2DBDA"/>
</g>
<g id="Shape">
<use xlink:href="#path54_fill" transform="translate(434 249)" fill="#D2DBDA"/>
</g>
<g id="Shape">
<use xlink:href="#path55_fill" transform="translate(437 249)" fill="#D2DBDA"/>
</g>
<g id="Shape">
<use xlink:href="#path56_fill" transform="translate(439 249)" fill="#D2DBDA"/>
</g>
<g id="Shape">
<use xlink:href="#path57_fill" transform="translate(446 216)" fill="#D2DBDA"/>
</g>
<g id="Shape">
<use xlink:href="#path58_fill" transform="translate(470 190)" fill="#D2DBDA"/>
</g>
<g id="Shape">
<use xlink:href="#path59_fill" transform="translate(442 195)" fill="#D2DBDA"/>
</g>
<g id="Shape">
<use xlink:href="#path60_fill" transform="translate(248 177)" fill="#D2DBDA"/>
</g>
<g id="Shape">
<use xlink:href="#path61_fill" transform="translate(297 186)" fill="#D2DBDA"/>
</g>
<g id="Shape">
<use xlink:href="#path62_fill" transform="translate(307 186)" fill="#D2DBDA"/>
</g>
<g id="Shape">
<use xlink:href="#path63_fill" transform="translate(362 186)" fill="#D2DBDA"/>
</g>
<g id="Shape">
<use xlink:href="#path64_fill" transform="translate(306 184)" fill="#D2DBDA"/>
</g>
<g id="Shape">
<use xlink:href="#path65_fill" transform="translate(246 203)" fill="#D2DBDA"/>
</g>
<g id="Shape">
<use xlink:href="#path66_fill" transform="translate(268 195)" fill="#D2DBDA"/>
</g>
<g id="Shape">
<use xlink:href="#path67_fill" transform="translate(260 194)" fill="#D2DBDA"/>
</g>
<g id="Shape">
<use xlink:href="#path68_fill" transform="translate(320 194)" fill="#D2DBDA"/>
</g>
<g id="Shape">
<use xlink:href="#path69_fill" transform="translate(246 203)" fill="#D2DBDA"/>
</g>
<g id="Shape">
<use xlink:href="#path70_fill" transform="translate(321 199)" fill="#D2DBDA"/>
</g>
<g id="Shape">
<use xlink:href="#path71_fill" transform="translate(367 199)" fill="#D2DBDA"/>
</g>
<g id="Shape">
<use xlink:href="#path72_fill" transform="translate(264 203)" fill="#D2DBDA"/>
</g>
<g id="Shape">
<use xlink:href="#path73_fill" transform="translate(278 212)" fill="#D2DBDA"/>
</g>
<g id="Shape">
<use xlink:href="#path74_fill" transform="translate(292 209)" fill="#D2DBDA"/>
</g>
<g id="Shape">
<use xlink:href="#path75_fill" transform="translate(307 205)" fill="#D2DBDA"/>
</g>
<g id="Shape">
<use xlink:href="#path76_fill" transform="translate(358 205)" fill="#D2DBDA"/>
</g>
<g id="Shape">
<use xlink:href="#path77_fill" transform="translate(369 203)" fill="#D2DBDA"/>
</g>
<g id="Shape">
<use xlink:href="#path78_fill" transform="translate(377 203)" fill="#D2DBDA"/>
</g>
<g id="Shape">
<use xlink:href="#path79_fill" transform="translate(403 199)" fill="#D2DBDA"/>
</g>
<g id="Shape">
<use xlink:href="#path80_fill" transform="translate(422 199)" fill="#D2DBDA"/>
</g>
<g id="Shape">
<use xlink:href="#path81_fill" transform="translate(451 203)" fill="#D2DBDA"/>
</g>
<g id="Shape">
<use xlink:href="#path82_fill" transform="translate(458 199)" fill="#D2DBDA"/>
</g>
<g id="Shape">
<use xlink:href="#path83_fill" transform="translate(465 199)" fill="#D2DBDA"/>
</g>
<g id="Shape">
<use xlink:href="#path84_fill" transform="translate(469 199)" fill="#D2DBDA"/>
</g>
<g id="Shape">
<use xlink:href="#path85_fill" transform="translate(477 195)" fill="#D2DBDA"/>
</g>
<g id="Shape">
<use xlink:href="#path86_fill" transform="translate(446 224)" fill="#D2DBDA"/>
</g>
<g id="Shape">
<use xlink:href="#path87_fill" transform="translate(450 219)" fill="#D2DBDA"/>
</g>
<g id="Shape">
<use xlink:href="#path88_fill" transform="translate(458 219)" fill="#D2DBDA"/>
</g>
<g id="Shape">
<use xlink:href="#path89_fill" transform="translate(461 219)" fill="#D2DBDA"/>
</g>
<g id="Shape">
<use xlink:href="#path90_fill" transform="translate(270 233)" fill="#D2DBDA"/>
</g>
<g id="Shape">
<use xlink:href="#path91_fill" transform="translate(268 233)" fill="#D2DBDA"/>
</g>
<g id="Shape">
<use xlink:href="#path92_fill" transform="translate(268 232)" fill="#D2DBDA"/>
</g>
<g id="Shape">
<use xlink:href="#path93_fill" transform="translate(268 232)" fill="#D2DBDA"/>
</g>
<g id="Shape">
<use xlink:href="#path94_fill" transform="translate(264 232)" fill="#D2DBDA"/>
</g>
<g id="Shape">
<use xlink:href="#path95_fill" transform="translate(432 230)" fill="#D2DBDA"/>
</g>
<g id="Shape">
<use xlink:href="#path96_fill" transform="translate(430 227)" fill="#D2DBDA"/>
</g>
<g id="Shape">
<use xlink:href="#path97_fill" transform="translate(422 230)" fill="#D2DBDA"/>
</g>
<g id="Shape">
<use xlink:href="#path98_fill" transform="translate(416 230)" fill="#D2DBDA"/>
</g>
<g id="Shape">
<use xlink:href="#path99_fill" transform="translate(409 230)" fill="#D2DBDA"/>
</g>
<g id="Shape">
<use xlink:href="#path100_fill" transform="translate(406 232)" fill="#D2DBDA"/>
</g>
<g id="Shape">
<use xlink:href="#path101_fill" transform="translate(386 131)" fill="#D2DBDA"/>
</g>
<g id="Shape">
<use xlink:href="#path102_fill" transform="translate(391 140)" fill="#D2DBDA"/>
</g>
<g id="Shape">
<use xlink:href="#path103_fill" transform="translate(391 167)" fill="#D2DBDA"/>
</g>
<g id="Shape">
<use xlink:href="#path104_fill" transform="translate(378 152)" fill="#D2DBDA"/>
</g>
</g>
</g>
<defs>
<path id="path0_fill" d="M 2.73438 77.5419C -0.583245 72.4113 1.0631 66.6865 3.98161 61.7144C 7.09968 56.4055 10.8913 51.3344 14.3835 46.184C 21.4428 35.804 28.3774 25.3843 35.5115 15.0241C 37.2577 12.4885 39.0786 9.97277 41.149 7.59567C 43.2444 5.17895 45.6889 2.56414 48.7322 0.860546C 49.4306 0.464363 48.6074 -0.328005 48.0337 0.147416C 45.7887 2.02929 43.5187 3.79231 41.5731 5.87227C 39.5526 8.01166 37.8064 10.2897 36.1351 12.6074C 32.3935 17.837 28.9262 23.1657 25.3342 28.4547C 21.5675 34.0013 17.8009 39.5677 14.0343 45.1143C 10.3924 50.5024 6.42618 55.8112 3.20833 61.3578C 0.26487 66.4091 -1.68081 72.6887 2.06088 77.839C 2.31032 78.1956 2.95888 77.8985 2.73438 77.5419Z"/>
<path id="path1_fill" d="M 0.632443 30.9131C 9.94456 23.2444 22.288 19.5805 34.3646 16.6195C 48.4056 13.1686 62.495 9.84549 76.5844 6.54369C 80.6342 5.60641 84.6598 4.64782 88.6853 3.68924C 90.6981 3.22059 92.7109 2.73065 94.7479 2.26201C 96.8092 1.77206 99.307 0.728268 101.417 1.19691C 102.023 1.32472 102.241 0.579155 101.659 0.387437C 100.859 0.131814 100.374 -0.102507 99.5495 0.0466067C 98.6037 0.238324 97.6822 0.472645 96.7607 0.685664C 94.8207 1.15431 92.8806 1.62295 90.9406 2.09159C 87.2303 2.98627 83.4958 3.88095 79.7855 4.77563C 72.2679 6.6076 64.7503 8.39696 57.2327 10.2076C 50.0303 11.9331 42.828 13.6159 35.6256 15.384C 29.5631 16.8751 23.5005 18.4941 17.7047 20.6456C 11.2541 23.0527 5.1915 26.1628 0.0989361 30.4445C -0.216318 30.7427 0.292939 31.19 0.632443 30.9131Z"/>
<path id="path2_fill" d="M 0.206407 0.702581C 2.35391 1.5302 4.39269 2.52822 6.34991 3.69663C 6.34991 3.47755 6.34991 3.25847 6.34991 3.01506C 6.13244 3.11242 5.91497 3.20979 5.6975 3.28282C 5.18101 3.50189 5.64313 4.15912 6.13244 3.96439C 6.34991 3.86702 6.56738 3.76965 6.78485 3.69663C 7.11105 3.57492 7.0295 3.18545 6.78485 3.01506C 4.80044 1.82231 2.7073 0.848632 0.505427 0.0210102C 0.0976726 -0.125041 -0.228531 0.532189 0.206407 0.702581Z"/>
<path id="path3_fill" d="M 0.28438 0.93093C 2.24012 0.956785 4.19585 0.991259 6.15159 0.999878C 7.80798 1.0085 9.34463 0.560334 10.8214 0.267306C 11.2205 0.189739 10.8813 -0.0688153 10.4822 0.0173696C 9.66394 0.189739 8.84572 0.362109 8.00755 0.517242C 7.12946 0.689612 6.41103 0.724086 5.43316 0.715467C 3.7169 0.69823 2.00064 0.680993 0.28438 0.663756C -0.0947934 0.663756 -0.0947934 0.922311 0.28438 0.93093Z"/>
<path id="path4_fill" d="M 0.0400122 0.205761C 0.298141 0.434562 0.520665 0.679142 0.716487 0.939501C 0.823298 1.08152 1.08143 0.947391 0.974615 0.805377C 0.752091 0.521348 0.511764 0.268879 0.226933 0.0321882C 0.11122 -0.0703776 -0.0846015 0.0953056 0.0400122 0.205761Z"/>
<path id="path5_fill" d="M 1.28006 0.0163824C -0.598872 -0.262732 0.13843 3.10658 0.162214 3.88411C 0.257349 6.27652 0.447621 8.64899 0.733028 11.0215C 1.28006 15.7465 2.18385 20.4316 3.42061 25.0569C 4.63359 29.6025 6.06063 34.2278 8.05848 38.574C 8.81956 40.1889 9.84227 41.6842 11.7926 42.4418C 13.1482 42.9601 13.9331 43.4386 14.8131 44.4554C 15.5266 45.2927 16.2877 46.0902 17.1439 46.8278C 18.0239 47.6054 18.9991 48.343 20.0218 49.0009C 20.6402 49.3997 21.2823 49.7984 21.9721 50.1373C 22.5429 50.4364 23.2326 50.6956 23.7321 51.0943C 24.7548 51.9316 24.2078 53.5864 24.517 54.7028C 24.8024 55.7196 25.4207 56.6168 26.2056 57.4142C 26.1818 57.2547 26.1581 57.0953 26.1343 56.9557C 25.3494 58.3114 24.184 59.368 22.6856 60.1854C 22.1386 60.4845 22.6618 61.2421 23.2088 60.9231C 24.8261 60.026 26.0867 58.8098 26.9429 57.3544C 27.0381 57.1949 27.0143 57.0354 26.8716 56.8959C 26.0153 56.0585 25.4445 55.0418 25.278 53.9453C 25.1591 53.1079 25.397 52.1908 25.0164 51.3933C 24.7072 50.7554 24.0888 50.3766 23.4229 50.0177C 22.3526 49.4595 21.2823 48.9013 20.2834 48.2433C 18.3331 46.9275 16.7634 45.3924 15.2888 43.7177C 14.7893 43.1395 14.2423 42.6212 13.4812 42.2823C 12.4347 41.8038 11.3644 41.5845 10.5558 40.8069C 8.93848 39.2718 8.3201 36.9791 7.60658 35.0851C 6.82171 33.0516 6.1082 30.9981 5.46603 28.9246C 4.13413 24.6781 3.11142 20.3519 2.35034 16.0056C 1.89844 13.4338 1.56547 10.842 1.35141 8.23032C 1.23249 6.9743 1.16114 5.71829 1.08979 4.46227C 1.066 4.10341 0.899515 0.614484 1.13735 0.654358C 1.56547 0.714168 1.77952 0.0961293 1.28006 0.0163824Z"/>
<path id="path6_fill" d="M 0.251866 0.555928C 1.61969 0.875458 3.01069 1.10101 4.42488 1.27017C 4.33215 1.17619 4.23941 1.06342 4.14668 0.969438C 4.21623 2.36034 4.37851 3.73244 4.6799 5.10454C 4.819 5.7624 4.9581 6.43905 5.21312 7.05932C 5.42177 7.54801 6.21 8.16828 6.18682 8.67577C 6.16364 9.10808 6.97506 9.10808 6.99824 8.67577C 7.02142 8.26226 6.81277 8.01791 6.53457 7.67959C 6.00135 7.04052 5.7927 6.40146 5.60724 5.63083C 5.21312 4.08956 5.00447 2.5295 4.91173 0.969438C 4.91173 0.837867 4.79582 0.687499 4.63353 0.668703C 3.21934 0.49954 1.82834 0.292785 0.437333 0.0108456C -0.0031516 -0.0831341 -0.188619 0.461948 0.251866 0.555928Z"/>
<path id="path7_fill" d="M 0.231464 0.276638C 1.20121 0.394254 2.19116 0.484728 3.20131 0.539013C 3.64578 0.566155 4.09025 0.58425 4.55492 0.602344C 4.79736 0.611392 6.3934 0.575202 6.25198 0.810435C 6.13076 1.00043 6.77726 1.08186 6.91868 0.891861C 7.26213 0.475681 6.45401 0.321875 5.68629 0.312828C 3.90842 0.285685 2.17096 0.177117 0.433494 0.00521608C -0.0109732 -0.0400209 -0.172598 0.222354 0.231464 0.276638Z"/>
<path id="path8_fill" d="M 0.216039 0.369545C 3.23959 0.956428 6.47607 1.10627 9.64867 0.931454C 10.1171 0.90648 10.1171 0.46944 9.64867 0.5069C 6.49736 0.694203 3.43123 0.494414 0.38638 0.00742589C 0.003113 -0.0550084 -0.167228 0.294624 0.216039 0.369545Z"/>
<path id="path9_fill" d="M 0.498073 0.15596C -0.766948 2.48763 0.569677 4.80004 2.3598 6.6885C 2.86103 7.22806 3.45774 7.72908 3.93511 8.28791C 4.60342 9.05871 4.41247 9.84879 4.53182 10.7159C 4.69889 11.7951 5.39108 12.7778 6.2026 13.6257C 8.42235 15.9767 10.9524 18.1542 13.1721 20.5051C 15.4158 22.8946 17.5639 25.3612 19.7359 27.8085C 21.7886 30.1401 23.8651 32.4525 26.0372 34.7264C 28.066 36.8461 30.1664 39.1585 33.1499 40.4496C 35.489 41.4709 38.8306 41.7985 40.382 43.7062C 42.3631 46.115 40.1195 49.4487 37.4223 50.8169C 35.5129 51.7804 33.3886 51.7033 31.2404 51.896C 29.3549 52.0694 27.6125 52.6861 25.7985 53.11C 21.5977 54.112 17.2298 54.4589 12.8619 54.2277C 12.3129 54.1891 12.3129 54.8829 12.8619 54.9214C 16.5614 55.1334 20.2849 54.9214 23.889 54.2277C 25.7269 53.8808 27.4454 53.3605 29.2355 52.9173C 31.1927 52.4548 33.1977 52.5897 35.1787 52.2621C 40.0956 51.4528 44.7499 45.6332 40.0479 42.4344C 37.9236 40.9892 35.0116 40.6808 32.7203 39.4668C 29.5458 37.7711 27.2306 34.9191 24.987 32.4911C 20.4997 27.6543 16.3705 22.6055 11.6923 17.8651C 10.4034 16.5548 9.04293 15.3022 7.68243 14.0304C 7.01412 13.3945 6.34581 12.72 5.86844 11.9685C 5.34334 11.1013 5.41494 10.292 5.2956 9.36703C 5.12852 7.94105 3.48161 6.90047 2.52688 5.80208C 1.16639 4.26048 0.163916 2.33347 1.14252 0.46428C 1.28573 0.0981497 0.689019 -0.190901 0.498073 0.15596Z"/>
<path id="path10_fill" d="M 28.9638 3.79271C 29.1826 2.23991 28.4532 0.252329 25.5843 0.0194089C 24.3686 -0.0892872 23.4934 0.267857 22.764 0.857921C 21.597 1.82066 20.2355 2.41072 18.6551 3.03184C 15.4944 4.27408 12.2608 5.43868 8.61389 5.96663C 5.38027 6.43247 2.43841 6.8362 0.128688 8.48217C -0.284632 8.76167 0.396129 9.19646 0.785136 8.90143C 2.92467 7.39521 5.67203 6.99148 8.66251 6.58775C 11.4585 6.19955 14.06 5.45421 16.5399 4.55359C 18.7037 3.77719 21.3295 2.96973 22.9585 1.74302C 23.4204 1.38587 23.8094 0.888977 24.5631 0.718169C 25.2925 0.547361 26.1192 0.718169 26.727 0.997673C 28.1128 1.61879 28.2344 2.81445 28.2344 3.80824C 28.2101 4.10327 28.9152 4.08775 28.9638 3.79271Z"/>
<path id="path11_fill" d="M 26.2451 54.922C 29.3905 52.6668 29.5313 48.8429 28.2168 45.8034C 26.5972 41.9991 23.663 38.5477 20.2829 35.7239C 13.2879 29.8606 9.50866 21.997 5.89378 14.4472C 3.68729 9.81929 1.85638 5.17175 0.823555 0.249673C 0.753135 -0.142525 -0.0449553 -0.0444754 0.00199119 0.347722C 0.518403 4.46579 2.11458 8.4466 3.87508 12.2901C 5.54168 15.9376 7.2787 19.5654 9.25045 23.1148C 11.1753 26.5857 13.3583 29.9782 16.1751 33.0178C 17.5835 34.5473 19.1796 35.8808 20.7993 37.2535C 22.5598 38.7242 23.8508 40.4499 25.1184 42.2148C 27.7004 45.8034 30.3294 51.1569 25.7522 54.5102C 25.3766 54.7455 25.893 55.1769 26.2451 54.922Z"/>
<path id="path12_fill" d="M 0.999175 8.62453C 0.910363 7.07201 0.805404 5.51949 0.700444 3.98687C 0.611632 2.6732 0.530893 1.33963 0.256383 0.165287C 0.167571 -0.212891 -0.0584958 0.125479 0.0141686 0.503657C 0.506672 3.01157 0.555115 6.0569 0.765034 8.78376C 0.789256 9.16194 1.01532 9.00271 0.999175 8.62453Z"/>
<path id="path13_fill" d="M 0.462784 5.33658C 2.79991 4.958 5.25389 4.07466 5.93166 1.82423C 6.07188 1.3405 5.324 0.856761 4.92669 1.29843C 3.66464 2.70758 2.19226 3.73815 0.39267 4.53736C -0.214982 4.81078 0.0654728 5.75722 0.743239 5.71515C 2.4026 5.58896 4.01521 6.13579 5.69794 5.96754C 7.07685 5.84135 8.54924 5.37864 9.41397 4.34807C 11.3538 2.01352 8.08181 -1.14128 5.37075 0.415089C 4.62287 0.835729 4.45927 2.01352 5.37075 2.41313C 5.69794 2.62345 5.76806 2.58139 5.60446 2.24487C 5.37075 2.37107 5.11366 2.51829 4.87995 2.64448C 4.38915 2.9179 3.89836 3.19131 3.40756 3.46473C 2.00529 4.24291 3.2907 6.24095 4.69298 5.46277C 5.79143 4.85284 7.56764 4.22188 8.15192 3.08615C 8.7362 1.90836 7.80135 0.898825 6.67953 0.415089C 6.67953 1.08811 6.67953 1.74011 6.67953 2.41313C 6.91325 2.28694 7.31056 2.329 7.45079 2.58139C 7.63776 2.87583 7.31056 3.08615 7.10022 3.27544C 6.63279 3.73815 6.09525 4.13775 5.44086 4.41117C 3.89836 5.04213 2.35585 4.30601 0.743239 4.4322C 0.860095 4.83181 0.976951 5.21039 1.09381 5.60999C 2.91676 4.74768 4.50601 3.50679 5.76806 2.05559C 5.44086 1.88733 5.09029 1.69804 4.76309 1.52979C 4.24893 3.46473 2.16888 4.20085 0.252443 4.68459C -0.191611 4.81078 -0.00464091 5.42071 0.462784 5.33658Z"/>
<path id="path14_fill" d="M 0.590569 0.978583C 2.49529 0.509966 4.57778 0.468617 6.60948 0.441052C 7.1174 0.441052 7.1428 0 6.60948 0C 4.4 0.0275657 2.21593 0.0826972 0.184229 0.606446C -0.247506 0.744275 0.158833 1.08885 0.590569 0.978583Z"/>
<path id="path15_fill" d="M 0.420605 0.994203C 1.89711 0.818185 3.35157 0.60075 4.76197 0.3419C 5.18068 0.259068 5.00438 -0.0619066 4.56363 0.0105715C 3.15324 0.279776 1.69877 0.49721 0.222269 0.683583C -0.174404 0.735353 0.00189489 1.04597 0.420605 0.994203Z"/>
<path id="path16_fill" d="M 0.0530026 0.490724C 1.17237 2.15165 0.685688 4.09616 0.88036 5.89887C 1.07503 7.68133 2.14573 9.15997 2.82708 10.8209C 4.23846 14.3048 2.2674 18.0723 3.84911 21.5562C 5.09015 24.2299 7.88856 26.1136 10.7356 27.5517C 14.1911 29.2937 18.3765 31.4002 22.562 30.9344C 23.146 30.8736 23.146 30.1039 22.562 30.1647C 18.3522 30.6305 13.9964 28.4024 10.5896 26.5795C 7.40188 24.8375 4.53047 22.5284 4.16545 19.2066C 3.97078 17.4241 4.31146 15.6214 4.31146 13.8389C 4.28713 12.34 3.92211 10.9424 3.21643 9.56507C 2.29173 7.7421 1.70772 6.26347 1.70772 4.27845C 1.70772 2.84033 1.68338 1.42246 0.75869 0.146385C 0.466681 -0.197954 -0.190338 0.126129 0.0530026 0.490724Z"/>
<path id="path17_fill" d="M 0.470061 1.76516C 6.30927 0.891941 12.1245 0.506099 18.0598 1.01379C 24.0191 1.54178 29.8824 2.86177 35.3371 4.93313C 36.2983 5.29866 37.2595 5.76573 38.3168 5.90789C 39.7105 6.09065 41.2244 5.9485 42.6421 5.92819C 45.6458 5.88758 48.6736 5.80635 51.6533 5.56266C 54.681 5.31897 57.6847 4.95343 60.6163 4.28329C 63.4759 3.65376 66.2393 2.679 69.0988 2.02916C 72.6312 1.23717 75.9713 1.44024 79.5517 1.90731C 82.5795 2.29316 85.6553 2.679 88.659 2.04947C 89.2597 1.92762 88.9954 1.19655 88.4187 1.27778C 82.5795 2.1307 76.8364 0.0187203 70.9972 0.871634C 68.0896 1.29809 65.3261 2.27285 62.5147 3.02422C 59.4148 3.85683 56.2189 4.38483 52.9749 4.68944C 49.9952 4.97374 46.9675 5.07528 43.9638 5.1362C 42.498 5.15651 41.0081 5.21743 39.5183 5.19712C 37.9323 5.17682 36.7549 4.64882 35.3611 4.12083C 30.2428 2.21193 24.8121 0.952864 19.2613 0.384255C 12.9895 -0.265584 6.38136 -0.143739 0.205735 1.15594C -0.17874 1.25748 0.0134976 1.82608 0.470061 1.76516Z"/>
<path id="path18_fill" d="M 0.369112 3.9996C 12.008 3.86402 23.6225 3.6437 35.2615 3.79623C 37.9211 3.83012 40.3611 4.01655 42.8255 3.25391C 45.4852 2.42349 48.2668 2.28791 51.146 2.16927C 56.9777 1.93201 62.8093 1.69475 68.641 1.45748C 75.2779 1.18632 81.9391 1.03379 88.5516 0.644003C 89.1372 0.610108 89.1616 0 88.5516 0C 82.6467 0.118632 76.7175 0.457581 70.8126 0.694845C 64.981 0.93211 59.1493 1.15243 53.3176 1.38969C 50.6336 1.49138 47.852 1.49138 45.2412 1.94896C 44.1432 2.13538 43.1671 2.44043 42.1423 2.76243C 40.5807 3.25391 39.0679 3.22002 37.4087 3.20307C 31.6258 3.11833 25.8674 3.10138 20.0845 3.13528C 13.5208 3.18612 6.90838 3.22002 0.344712 3.50812C -0.118893 3.49117 -0.118893 4.01655 0.369112 3.9996Z"/>
<path id="path19_fill" d="M 23.4787 0.59547C 26.3305 2.62459 29.0009 4.85662 31.1268 7.41331C 33.3824 10.1526 34.7305 13.176 35.975 16.2603C 36.1305 16.0979 36.2861 15.9356 36.4675 15.753C 35.275 15.6313 34.2379 15.9762 33.2268 16.4632C 31.9305 17.0922 30.712 17.7821 29.3639 18.33C 26.4861 19.4663 23.3491 20.075 20.1861 20.4808C 17.1009 20.8867 14.0157 21.1099 10.9306 21.5563C 9.37501 21.7795 7.84538 22.0636 6.31576 22.3882C 5.53798 22.5506 4.5528 22.6723 4.34539 23.3825C 4.5528 23.281 4.7602 23.1999 4.96761 23.0984C 3.41206 22.7129 1.85651 22.7332 0.326879 23.2405C -0.243491 23.4231 -0.0101578 24.1536 0.586137 23.9709C 1.96021 23.5651 3.30835 23.5245 4.70835 23.8695C 4.96761 23.9304 5.27872 23.7883 5.33057 23.5854C 5.48613 23.0781 8.49353 22.7535 9.11575 22.6317C 10.5157 22.3882 11.9157 22.1853 13.3417 22.023C 16.1157 21.6983 18.8898 21.4751 21.6379 21.0693C 24.1787 20.7041 26.6676 20.1562 29.0268 19.304C 30.3231 18.8373 31.5416 18.2894 32.7342 17.6604C 33.875 17.0516 35.0157 16.382 36.4935 16.5241C 36.8046 16.5646 37.0638 16.24 36.9861 16.0168C 35.7157 12.8716 34.3416 9.76709 32.0083 6.9872C 29.8305 4.38993 27.1342 2.11731 24.1268 0.0678988C 23.6861 -0.175596 23.0639 0.291102 23.4787 0.59547Z"/>
<path id="path20_fill" d="M 0.300324 14.9995C 1.62466 14.8669 2.9283 14.7154 4.25264 14.5639C 4.81134 14.507 5.32866 14.4692 5.45282 13.882C 5.53559 13.4653 5.26658 12.916 5.39074 12.5182C 5.45282 12.3478 5.80459 11.9879 5.92875 11.8174C 6.653 10.8704 7.93595 10.2453 8.88781 9.52558C 9.44652 9.10888 10.1708 8.76794 9.96384 8.04819C 9.81899 7.55572 9.54998 7.19585 9.5086 6.64656C 9.4879 6.30562 9.42583 6.00257 9.23959 5.71845C 8.72227 4.94188 8.68089 4.07059 8.10149 3.29402C 7.33586 2.25226 6.57023 1.21051 5.7839 0.168764C 5.4942 -0.228996 4.79065 0.149823 5.08035 0.547582C 5.90806 1.6651 6.88062 2.76367 7.60486 3.93801C 7.91526 4.44941 7.81179 4.96082 8.0601 5.47222C 8.14288 5.66163 8.26703 5.73739 8.39119 5.90786C 8.74297 6.38139 8.68089 6.55185 8.76366 7.06326C 8.82574 7.44208 9.11543 7.87772 9.11543 8.21865C 9.09474 8.78688 7.85318 9.43087 7.35655 9.77181C 6.90131 10.0938 6.40468 10.3969 5.97014 10.7757C 5.61836 11.0787 5.24589 11.8553 4.85273 12.0258C 4.74926 12.0826 4.66649 12.1962 4.66649 12.3099C 4.68719 12.5751 4.87342 13.4463 4.72857 13.6736C 4.48026 14.0335 3.77671 13.9767 3.36285 14.0146C 2.30752 14.1472 1.25219 14.2797 0.217553 14.4313C -0.113531 14.4881 -0.0514532 15.0184 0.300324 14.9995Z"/>
<path id="path21_fill" d="M 0.346185 6C 3.09069 5.98281 5.81069 5.86247 8.53069 5.69056C 11.2997 5.50146 14.1422 5.12326 16.9357 5.07168C 19.6557 5.00292 22.3757 5.02011 25.0957 4.83101C 27.9137 4.64191 30.7318 4.41843 33.5743 4.24652C 38.9898 3.9027 44.4298 3.64483 49.8453 3.3182C 52.4917 3.16348 55.1137 3.04314 57.7357 2.76809C 60.4557 2.47584 63.2002 2.44146 65.8712 2.06326C 68.9588 1.63348 72.1689 1.54753 75.3054 1.37562C 78.442 1.2037 81.5296 0.997413 84.6416 0.687974C 85.2052 0.636401 85.0582 -0.0168577 84.5191 0.000333327C 79.0056 0.103479 73.5656 0.584828 68.0521 0.756738C 65.3076 0.842693 62.5876 0.859884 59.8186 0.980222C 57.0986 1.11775 54.3786 1.15213 51.6586 1.30685C 40.8031 1.94292 29.8006 2.40708 19.0921 3.86831C 18.3815 3.97146 17.7199 4.16056 17.0337 4.29809C 16.2741 4.43562 15.441 4.47 14.6568 4.55595C 13.015 4.72786 11.3977 4.86539 9.75591 5.00292C 6.64384 5.2436 3.50726 5.4155 0.370689 5.46708C -0.119401 5.48427 -0.119401 6 0.346185 6Z"/>
<path id="path22_fill" d="M 0.381544 8.07698C 4.70307 8.37612 9.04901 9.05989 13.395 8.99579C 17.57 8.93168 22.1112 8.99578 26.1886 8.05561C 28.1663 7.60689 30.1439 7.2009 32.1704 6.83765C 34.2701 6.45303 36.2478 5.89747 38.2987 5.36328C 42.254 4.2949 46.3557 3.44019 50.4087 2.64959C 55.0965 1.70941 59.7842 1.13249 64.5696 0.790603C 65.1312 0.747868 65.1556 0 64.5696 0C 56.4149 0.064103 48.2846 2.20087 40.4228 3.88891C 38.4207 4.31627 36.3943 4.55131 34.3922 4.91456C 32.2681 5.32055 30.1195 5.79064 27.9465 5.94021C 25.8468 6.06842 23.7715 6.13252 21.6718 6.30346C 19.4744 6.4744 17.277 6.58124 15.0796 6.64534C 12.6869 6.70945 10.3674 6.77355 7.97473 6.96586C 5.43553 7.15817 2.94516 7.32911 0.405959 7.39321C -0.13118 7.41458 -0.13118 8.03424 0.381544 8.07698Z"/>
<path id="path23_fill" d="M 37.7404 22.8252C 32.9143 22.2341 28.0883 22.3523 23.2381 22.6479C 20.7526 22.8055 18.2672 22.9828 15.7576 23.1207C 13.3446 23.2586 10.5214 23.7709 8.51854 22.4114C 6.78115 21.2293 4.97137 20.0274 3.35464 18.7271C 2.43769 17.9981 1.78617 17.1903 1.54486 16.1264C 1.30356 15.0822 1.37595 13.9788 1.32769 12.9149C 1.15878 8.71829 1.08639 4.52169 0.820954 0.325089C 0.796824 -0.108363 -0.0236084 -0.108363 0.000521965 0.325089C 0.0487827 3.87151 0.265956 7.39823 0.386608 10.9447C 0.458999 12.58 0.386608 14.2941 0.627911 15.9097C 0.845084 17.2297 1.56899 18.2739 2.72725 19.1999C 4.10268 20.3033 5.64702 21.3081 7.09485 22.3326C 8.22897 23.1404 9.26658 23.8694 10.8351 23.9679C 12.8379 24.0861 14.9131 23.8497 16.8918 23.7118C 18.9911 23.5739 21.0905 23.4163 23.1898 23.298C 27.9917 23.0025 32.8178 22.8646 37.5956 23.3768C 38.0541 23.4557 38.1506 22.8646 37.7404 22.8252Z"/>
<path id="path24_fill" d="M 0.848532 14.9606C 2.19174 14.5035 3.63263 14.3573 4.97583 13.9186C 6.31903 13.4798 7.68666 13.1325 9.10312 12.8583C 12.0826 12.2916 15.2086 12.2185 18.1881 11.5969C 21.0698 11.0119 23.8784 10.3173 26.8822 10.0431C 29.9594 9.75057 33.0854 9.71401 36.187 9.69572C 42.5367 9.6226 48.8863 9.54948 55.236 9.40323C 58.3865 9.33011 61.5125 9.25699 64.6629 9.18387C 66.2014 9.1473 67.74 9.09246 69.2542 9.0559C 70.9881 9.00106 72.6488 8.78169 74.3584 8.69029C 80.6836 8.34296 87.0333 8.12359 93.3586 7.84938C 96.6067 7.70313 99.8304 7.59345 103.078 7.46548C 106.229 7.33752 109.379 7.15471 112.53 7.22784C 118.904 7.37408 125.302 7.02675 131.676 6.77082C 134.9 6.64285 138.148 6.51489 141.372 6.38693C 142.813 6.33208 144.107 6.2224 145.499 5.96647C 147.16 5.6557 148.869 5.61914 150.579 5.54602C 154.169 5.38149 157.686 5.71054 161.251 5.60086C 162.204 5.5643 163.205 5.60086 164.158 5.49117C 164.988 5.39977 165.745 5.1804 166.575 5.14384C 168.431 5.07072 170.312 5.10728 172.168 4.96103C 174.586 4.75995 178.347 4.90619 180.105 3.40718C 181.253 2.4383 181.448 0.738203 179.788 0.043538C 179.299 -0.157549 178.86 0.39087 179.348 0.610238C 180.593 1.17694 180.129 2.52971 179.055 3.005C 177.785 3.5717 176.246 3.51686 174.854 3.49858C 173.389 3.4803 171.948 3.44374 170.483 3.51686C 168.847 3.58999 167.064 3.84591 165.428 3.69967C 162.497 3.44374 159.493 3.69967 156.611 4.08356C 153.558 4.50402 150.262 4.7051 147.16 4.63198C 145.695 4.59542 144.278 4.30293 142.788 4.35777C 141.177 4.41261 139.565 4.48574 137.953 4.54058C 134.876 4.65026 131.823 4.77823 128.746 4.88791C 125.669 4.9976 122.616 5.10728 119.539 5.27181C 116.462 5.43633 113.409 5.80194 110.332 6.02131C 104.226 6.42349 97.9987 6.51489 91.8688 6.6977C 88.7917 6.7891 85.6901 6.8805 82.613 6.95363C 79.5602 7.04503 76.4098 7.28268 73.3571 7.17299C 71.8673 7.11815 70.4753 7.06331 68.9855 7.09987C 67.3737 7.13643 65.7619 7.19127 64.15 7.22784C 61.0973 7.30096 58.0446 7.37408 54.9674 7.42892C 48.9352 7.53861 42.903 7.63001 36.8708 7.68485C 33.525 7.72141 30.2036 7.73969 26.8822 8.05047C 23.6341 8.34296 20.6302 9.0559 17.4798 9.69572C 14.3538 10.3355 11.1057 10.4087 8.00414 11.0485C 6.53883 11.3593 5.04909 11.7249 3.68147 12.2367C 2.38711 12.712 1.28813 13.6261 0.189142 14.3207C -0.323717 14.6498 0.311251 15.1434 0.848532 14.9606Z"/>
<path id="path25_fill" d="M 148.559 0.445437C 152.372 7.14515 151.245 14.713 150.141 21.7902C 150.309 21.658 150.453 21.5448 150.621 21.4127C 149.446 21.2995 148.271 21.1674 147.095 21.0541C 147.263 21.1485 147.407 21.2429 147.575 21.3372C 146.472 18.7328 141.987 19.6764 139.516 20.0728C 134.384 20.9031 129.131 21.809 123.902 22.1676C 118.794 22.5073 113.661 23.2622 108.504 23.3377C 106.034 23.3754 103.611 23.5453 101.165 23.7906C 100.014 23.9039 98.9103 23.9794 97.831 24.3191C 96.5119 24.7154 95.1447 24.6965 93.7536 24.8475C 91.3552 25.1117 89.0287 25.7345 86.6542 26.0742C 84.1598 26.4139 81.6414 26.4139 79.123 26.3195C 77.8998 26.2818 76.9164 26.4516 75.7172 26.546C 74.374 26.6404 72.9829 26.5271 71.6158 26.5083C 69.1454 26.4894 66.7709 26.7159 64.3245 26.9612C 63.1253 27.0744 61.902 27.1877 60.6788 27.2443C 60.0792 27.2632 59.4556 27.282 58.856 27.2065C 57.9925 27.1122 57.4409 26.7913 56.6494 26.5649C 54.5148 25.9798 51.9004 25.8288 49.6939 26.2063C 47.3434 26.6215 45.1608 27.5085 42.8582 27.9992C 41.7789 28.2256 40.6517 28.3578 39.5963 28.7163C 38.3971 29.1315 37.1739 29.3202 35.9027 29.509C 33.2164 29.9053 30.3623 30.0185 27.628 30.1129C 24.6779 30.2073 21.7518 30.1884 18.8256 30.1506C 13.0693 30.0751 7.33701 29.9997 1.65265 29.207C -0.00228882 28.9805 -0.721828 30.9621 0.957096 31.2075C 5.80199 31.8869 10.6709 32.0945 15.5877 31.9624C 20.5286 31.8303 25.4454 31.1697 30.3862 30.9055C 32.7367 30.7734 35.0632 30.6413 37.3897 30.5281C 38.541 30.4715 39.7163 30.5847 40.8435 30.4903C 42.0188 30.396 43.242 30.094 44.3693 29.8109C 46.5759 29.2825 48.7345 28.3389 51.037 28.0935C 52.1883 27.9803 53.3635 28.0747 54.4908 28.1879C 55.0184 28.2445 55.5941 28.3578 56.1457 28.3766C 56.7693 28.3955 57.4169 28.2256 58.0165 28.169C 60.439 27.9803 62.8374 27.8859 65.2599 27.6406C 67.7303 27.3953 70.2007 27.3764 72.6951 27.4896C 73.9183 27.5462 75.1416 27.6406 76.2928 27.9426C 77.516 28.2634 78.6673 28.32 79.9625 28.3578C 82.3369 28.4332 84.7114 28.3766 87.0619 28.0558C 89.3884 27.7538 91.7149 27.2632 93.9455 26.7347C 95.0488 26.4705 96.248 25.961 97.4473 25.9232C 98.0709 25.9043 98.6465 26.0176 99.2701 25.9798C 99.9657 25.9232 100.637 25.8288 101.333 25.7534C 106.202 25.2627 111.071 24.7531 115.915 24.2058C 121.504 23.583 127.02 22.7338 132.561 21.9223C 135.343 21.5259 138.101 21.0919 140.859 20.6389C 142.538 20.3558 145.824 19.7897 146.568 21.5071C 146.64 21.6958 146.808 21.7713 147.047 21.7902C 148.223 21.9034 149.398 22.0166 150.573 22.1299C 150.861 22.1487 151.029 21.9411 151.053 21.7524C 152.132 14.5431 153.092 6.91868 149.134 0.124606C 148.99 -0.177353 148.367 0.124606 148.559 0.445437Z"/>
<path id="path26_fill" d="M 22.8826 5.53741C 19.8134 3.62366 15.4654 4.51454 11.8149 3.98661C 7.72257 3.39269 4.23483 1.46243 0.654083 0.0436147C 0.165799 -0.15436 -0.275982 0.373573 0.212302 0.588045C 3.44428 2.03986 6.88551 3.68965 10.5825 4.44855C 14.512 5.24045 18.8833 4.25058 22.4408 5.96636C 22.7896 6.11484 23.2081 5.73539 22.8826 5.53741Z"/>
<path id="path27_fill" d="M 26.5074 0.0180503C 21.9916 1.12112 17.7239 2.66217 13.4811 4.10588C 9.08937 5.59827 4.57359 6.91221 0.231493 8.45326C -0.289559 8.64792 0.157057 9.11835 0.702921 8.97235C 5.14427 7.67463 9.43674 6.1498 13.8285 4.80341C 18.2202 3.45702 22.736 2.17552 26.8299 0.488476C 27.1773 0.358703 26.954 -0.0955006 26.5074 0.0180503Z"/>
<path id="path28_fill" d="M 6.47611 0.0129052C 4.1571 0.406577 1.75903 0.980682 0.494108 2.30933C 0.151527 2.65379 0.283289 3.09667 0.704928 3.39192C 0.731281 3.40833 0.757633 3.42473 0.783985 3.44113C 0.704928 3.22789 0.599518 3.01465 0.520461 2.80142C 0.309641 3.29351 0.335994 3.8184 0.177879 4.32689C 0.0197643 4.78618 -0.0329406 5.24546 0.0197643 5.70475C 0.0724692 6.09842 0.968453 6.09842 0.994805 5.70475C 1.02116 5.29467 1.07386 4.901 1.20562 4.50733C 1.36374 4.04804 1.83808 3.802 2.28608 3.45754C 1.94349 3.50674 1.60091 3.57236 1.25833 3.62157C 1.28468 3.62157 1.31103 3.62157 1.33739 3.63797C 1.96985 3.71998 2.6023 3.57236 2.94489 3.22789C 3.41923 2.76861 3.91993 2.32573 4.31521 1.83364C 4.86862 1.17752 5.60648 0.833055 6.68693 0.554204C 7.21398 0.406577 7.02952 -0.0855128 6.47611 0.0129052Z"/>
<path id="path29_fill" d="M 0.658592 3.93641C 2.45208 2.86551 4.6192 2.9726 6.61196 2.99938C 8.92854 3.02615 11.2202 3.07969 13.5368 3.10647C 17.8461 3.16001 22.5042 3.58837 26.5645 1.74107C 27.4114 1.36626 26.8883 0.107959 26.141 0.0544143C 23.7746 -0.10622 21.4082 0.134731 19.0418 0.188276C 16.6505 0.241821 14.2592 0.161504 11.8679 0.188276C 7.88234 0.215049 3.24918 0.188276 0.135492 3.21356C -0.23815 3.5616 0.23513 4.20413 0.658592 3.93641Z"/>
<path id="path30_fill" d="M 18.4211 0.029343C 12.2922 1.78628 6.24054 3.66544 0.214614 5.54459C -0.27467 5.69737 0.16311 6.10987 0.626643 5.97237C 6.70407 4.1696 12.8073 2.35155 18.8074 0.426563C 19.2452 0.273786 18.8589 -0.108156 18.4211 0.029343Z"/>
<path id="path31_fill" d="M 4.26785 0.021333C 2.90558 0.248971 1.57653 0.467123 0.247483 0.713731C -0.317362 0.818065 0.181031 1.07416 0.779102 0.979308C 2.14137 0.75167 3.47042 0.514548 4.76624 0.26794C 5.29786 0.173091 4.83269 -0.073516 4.26785 0.021333Z"/>
<path id="path32_fill" d="M 6.31579 0.102264C 4.24479 1.85984 2.17378 3.59335 0.126048 5.35093C -0.246267 5.688 0.288936 6.21768 0.661252 5.90469C 2.75553 4.17118 4.80326 2.4136 6.87427 0.656022C 7.24658 0.343029 6.71138 -0.234806 6.31579 0.102264Z"/>
<path id="path33_fill" d="M 6.23589 0.0728071C 4.20489 1.20645 2.17388 2.35899 0.142878 3.49263C -0.279149 3.73825 0.327515 4.17282 0.749542 3.92719C 2.78055 2.79355 4.81155 1.64101 6.84255 0.50737C 7.29096 0.261748 6.68429 -0.172815 6.23589 0.0728071Z"/>
<path id="path34_fill" d="M 6.33101 0.0936845C 4.30279 1.88825 2.20916 3.61467 0.115521 5.31838C -0.21161 5.59097 0.224564 6.2043 0.573504 5.93171C 2.73257 4.25072 4.8262 2.47887 6.87622 0.661586C 7.24697 0.343561 6.70175 -0.22434 6.33101 0.0936845Z"/>
<path id="path35_fill" d="M 6.46847 0.0798508C 4.37574 1.89068 2.22487 3.64114 0.112755 5.43185C -0.216658 5.71353 0.248395 6.19642 0.577807 5.91473C 2.72868 4.18439 4.82141 2.35344 6.89477 0.522497C 7.20481 0.260933 6.75913 -0.181713 6.46847 0.0798508Z"/>
<path id="path36_fill" d="M 6.50348 0.0654816C 4.30043 1.72455 2.11722 3.46555 0.112645 5.3909C -0.22476 5.71861 0.271423 6.21019 0.608828 5.90295C 2.67295 4.12099 4.69738 2.33902 6.86074 0.679953C 7.19814 0.413682 6.86074 -0.200789 6.50348 0.0654816Z"/>
<path id="path37_fill" d="M 6.20303 0.0775647C 4.18526 1.21679 2.13985 2.35601 0.149725 3.51303C -0.292526 3.76223 0.34321 4.17164 0.785461 3.92244C 2.83087 2.78321 4.821 1.62619 6.83877 0.486972C 7.30866 0.237768 6.64528 -0.17164 6.20303 0.0775647Z"/>
<path id="path38_fill" d="M 4.21328 0.10938C 2.83827 1.18276 1.49251 2.25615 0.146749 3.35393C -0.292085 3.69546 0.351538 4.23215 0.790373 3.89062C 2.16539 2.81724 3.51115 1.71946 4.8569 0.646073C 5.29574 0.304541 4.62286 -0.232151 4.21328 0.10938Z"/>
<path id="path39_fill" d="M 4.22817 0.10412C 2.85841 1.21105 1.48866 2.31798 0.1189 3.42491C -0.259968 3.74421 0.35205 4.21253 0.760062 3.89322C 2.15896 2.80758 3.49957 1.67936 4.86933 0.572436C 5.27734 0.274417 4.63618 -0.215186 4.22817 0.10412Z"/>
<path id="path40_fill" d="M 18.3514 0.0537132C 16.8936 0.861813 15.3563 1.15746 13.554 1.19688C 12.4143 1.21659 11.5397 1.39398 10.6915 1.98527C 8.06756 3.83799 5.81467 6.0849 3.42925 8.0953C 1.67995 9.57353 -0.466928 11.17 0.0896686 13.3381C 0.619761 15.4076 2.5811 17.4574 4.56895 18.8962C 5.01953 19.2116 5.65564 18.7386 5.23156 18.4035C 3.48226 16.945 1.12335 14.836 0.990826 12.7665C 0.911312 11.5248 1.9715 10.4999 2.97867 9.61295C 3.98585 8.74572 4.99302 7.8982 6.0267 7.03097C 7.00737 6.20316 7.96154 5.37535 8.94221 4.54754C 9.86987 3.75915 10.877 2.53714 12.1758 2.08382C 13.2625 1.70933 14.7202 1.94585 15.9129 1.70933C 17.0261 1.49253 17.9803 1.09833 18.8549 0.585877C 19.2525 0.32965 18.7489 -0.163094 18.3514 0.0537132Z"/>
<path id="path41_fill" d="M 0 0.239119C 0.0425484 2.04112 0.680774 3.82732 1.85085 5.40802C 2.91456 6.84646 4.42503 8.33232 6.5099 8.98041C 6.91411 9.10686 7.21195 8.58523 6.80774 8.44297C 2.80819 7.08356 0.91479 3.27407 0.659499 0.223312C 0.659499 -0.0770213 0 -0.0770213 0 0.239119Z"/>
<path id="path42_fill" d="M 3.25478 0.488473C 2.60487 1.92187 2.91683 3.71867 3.07281 5.21264C 3.38477 4.97037 3.72272 4.70792 4.03468 4.46566C 3.22879 4.44547 2.73485 3.3149 2.57887 2.83037C 2.50088 2.5881 2.26691 2.0632 2.44889 1.86131C 2.3969 1.8815 2.31891 1.90169 2.26691 1.92187C 2.44889 1.92187 2.63087 1.92187 2.83884 1.94206C 2.42289 1.53829 2.03294 1.11432 1.617 0.710549C 1.30504 1.92187 1.25305 3.29471 2.44889 4.24358C 2.86483 4.5666 3.77471 4.46566 3.8787 3.96094C 4.06068 3.05244 3.82671 2.14395 4.03468 1.23546C 4.19066 0.589417 3.69672 0.044321 2.81284 0.00394347C -2.07451 -0.177755 0.1092 5.97981 4.03468 6C 4.50262 6 5.04854 5.65679 4.99655 5.25302C 4.76258 3.73886 4.86657 1.96225 4.19066 0.528851C 4.00868 0.145265 3.41076 0.125076 3.25478 0.488473Z"/>
<path id="path43_fill" d="M 0.187336 0.24023C -0.788597 3.97296 2.16631 7.22607 6.31402 8.95689C 6.8291 9.16543 7.28996 8.56068 6.77488 8.35215C 3.0067 6.78816 0.187336 3.84784 1.02772 0.427909C 1.10905 -0.0100096 0.295773 -0.176836 0.187336 0.24023Z"/>
<path id="path44_fill" d="M 0.00312794 0.308471C -0.123225 3.93698 3.60418 7.25448 6.51029 8.95469C 6.86829 9.16204 7.20523 8.60221 6.84724 8.39487C 5.37312 7.52402 4.04642 6.44584 2.95136 5.16031C 1.79313 3.81258 0.613833 2.15383 0.677009 0.329205C 0.677009 -0.106216 0.0241867 -0.106216 0.00312794 0.308471Z"/>
<path id="path45_fill" d="M 0.00235871 0.296429C 0.569437 3.83177 3.47879 6.61237 6.6347 8.91629C 10.1358 11.4784 14.1793 13.5043 18.5187 14.974C 18.9871 15.1329 19.209 14.5172 18.7406 14.3583C 14.5738 12.9482 10.7029 11.0216 7.34971 8.57865C 4.26777 6.33431 1.3091 3.65301 0.742025 0.216984C 0.692714 -0.120661 -0.0469524 -0.041215 0.00235871 0.296429Z"/>
<path id="path46_fill" d="M 0.460896 1.06776C 2.34787 0.8587 4.46496 1.61894 6.25988 2.07508C 8.00878 2.51221 9.71166 2.91133 11.5066 3.21543C 13.1634 3.48151 14.8663 3.40549 16.5462 3.48151C 18.5482 3.55753 20.5272 3.7666 22.4832 4.07069C 23.4037 4.22274 24.3472 4.37479 25.2447 4.62186C 26.1421 4.86894 26.9475 5.24906 27.822 5.53415C 29.4788 6.06631 31.2047 5.93327 32.9076 5.74321C 33.9201 5.62917 34.9327 5.74321 35.9452 5.76222C 37.0037 5.78122 38.0393 5.80023 39.0978 5.85725C 41.0308 5.95227 42.9638 6.06631 44.8968 5.95227C 45.9783 5.89526 46.6227 5.62917 47.5662 5.26806C 48.5557 4.88795 49.7753 4.83093 50.8338 4.69789C 53.089 4.4128 55.2981 4.29876 57.5993 4.31777C 58.0366 4.31777 58.1746 3.70958 57.7144 3.65256C 55.8965 3.4435 54.0325 3.55753 52.2146 3.72859C 51.3861 3.80461 50.5577 3.89964 49.7063 3.99467C 49.177 4.05169 48.6477 4.12771 48.1184 4.12771C 47.5201 4.14672 47.0599 4.01368 46.4846 3.89964C 45.6102 3.72859 44.6897 3.89964 43.8152 3.91865C 42.7797 3.93765 41.7211 3.91865 40.6856 3.86163C 38.7296 3.7666 36.7046 3.55753 34.7716 3.88063C 33.7591 4.05169 32.8386 4.22274 31.803 4.22274C 30.8596 4.20373 29.9161 4.1087 28.9726 3.97566C 28.1211 3.86163 27.3157 3.93765 26.4643 3.86163C 25.3597 3.7856 24.2552 3.61455 23.1506 3.46251C 21.3326 3.19642 19.4917 2.96835 17.6508 2.83531C 15.7638 2.70227 13.8308 2.81631 11.9898 2.49321C 9.94178 2.13209 8.14686 1.06776 6.16784 0.516594C 5.24736 0.269518 4.25785 0.0414474 3.29135 0.00343567C 2.30184 -0.0345761 1.2433 0.250512 0.322825 0.478583C -0.229459 0.592618 0.000659168 1.12478 0.460896 1.06776Z"/>
<path id="path47_fill" d="M 0.348612 8.99847C 6.85497 8.50344 13.3613 7.97646 19.8677 7.44949C 23.0613 7.19399 26.2787 6.93849 29.52 6.76283C 32.8089 6.58717 36.0978 6.52329 39.3629 6.3157C 42.5327 6.12407 45.7025 5.88454 48.8722 5.69291C 51.9705 5.50129 55.2117 5.51725 58.1908 4.97431C 61.3844 4.39943 64.8879 4.51121 68.153 4.55912C 71.2512 4.59106 74.3495 4.75075 77.4239 5.02222C 80.2839 5.27772 83.4775 5.88454 86.2421 4.97431C 88.9113 4.08005 89.1973 2.21169 88.9113 0.407207C 88.816 -0.135736 87.529 -0.135736 87.6244 0.407207C 87.7912 1.34937 88.0772 2.32347 87.3145 3.20176C 86.6472 3.96827 85.4079 4.38346 84.1209 4.54315C 81.3563 4.86253 78.3296 4.27168 75.565 4.11199C 72.4905 3.93633 69.3923 3.84052 66.294 3.82455C 63.2672 3.80858 60.312 3.85649 57.309 3.60099C 55.9029 3.47324 54.4491 3.63292 53.043 3.71277C 51.4938 3.80858 49.9447 3.9044 48.3956 4.01618C 45.4165 4.23974 42.4612 4.47928 39.5059 4.78268C 33.3332 5.40547 27.232 6.25182 21.0355 6.76283C 14.1478 7.33771 7.2363 7.89662 0.348612 8.48747C -0.104211 8.55134 -0.128044 9.03041 0.348612 8.99847Z"/>
<path id="path48_fill" d="M 0.334459 5.99798C 9.20644 5.32385 18.0549 4.31264 26.9504 3.84917C 29.0862 3.74384 31.1986 3.82811 33.3345 3.68064C 35.3999 3.53317 37.4653 3.2593 39.4838 2.8801C 40.5165 2.6905 41.5023 2.3113 42.5116 2.10063C 43.6147 1.8689 44.6474 1.4265 45.7271 1.19476C 47.8394 0.773426 50.3039 0.710226 52.4163 1.02623C 53.5429 1.19476 54.6694 1.53183 55.7961 1.78463C 56.8992 2.03743 58.0023 2.14277 59.1054 2.3745C 61.2648 2.83797 63.3067 3.46997 65.5599 3.61744C 66.1467 3.65957 66.1467 2.83797 65.5599 2.79584C 63.5414 2.64837 61.476 2.20597 59.5749 1.57396C 58.636 1.25796 57.8145 0.794493 56.8288 0.541692C 55.8665 0.309957 54.8807 0.141423 53.8714 0.0992895C 49.7406 -0.0692446 45.6332 -0.0903114 41.5727 0.583825C 37.4184 1.27903 33.1702 1.65823 29.0393 2.45877C 24.6268 3.30144 20.003 3.55424 15.5201 3.99664C 10.4739 4.48118 5.40416 4.88145 0.334459 5.38705C -0.111486 5.40811 -0.111486 6.04012 0.334459 5.99798Z"/>
<path id="path49_fill" d="M 0.347138 0.47975C 1.78441 0.508806 3.19732 0.508806 4.63459 0.465222C 5.1218 0.450695 5.1218 -0.0141943 4.63459 0.000333484C 3.19732 0.0439168 1.78441 0.0584446 0.347138 0.0439168C -0.115713 0.029389 -0.115713 0.465222 0.347138 0.47975Z"/>
<path id="path50_fill" d="M 4.06938 0.139455C 2.80558 1.25445 1.48159 2.35022 0.127518 3.42676C -0.293751 3.75357 0.428423 4.21494 0.849692 3.88814C 2.29404 2.77314 3.61803 1.63893 4.91192 0.447039C 5.27301 0.120231 4.43047 -0.187353 4.06938 0.139455Z"/>
<path id="path51_fill" d="M 4.39516 0.11737C 3.02793 1.90692 1.55389 3.6081 0.101217 5.33137C -0.219226 5.70695 0.293483 6.23719 0.635289 5.8837C 2.19478 4.22671 3.60473 2.39297 4.95059 0.559235C 5.16422 0.227836 4.63015 -0.214028 4.39516 0.11737Z"/>
<path id="path52_fill" d="M 4.30112 0.159661C 3.0128 2.01892 1.53747 3.62876 0.103694 5.35198C -0.207996 5.73744 0.249149 6.21359 0.602398 5.89615C 2.26475 4.377 3.65696 2.44972 4.9245 0.545117C 5.21541 0.159661 4.59203 -0.225795 4.30112 0.159661Z"/>
<path id="path53_fill" d="M 4.22208 0.0931089C 2.88415 1.23566 1.44128 2.32548 0.10335 3.46803C -0.237692 3.76685 0.339455 4.18871 0.759199 3.90747C 2.28077 2.85281 3.6187 1.63995 4.9304 0.462241C 5.21898 0.180997 4.53689 -0.170557 4.22208 0.0931089Z"/>
<path id="path54_fill" d="M 4.10775 0.124956C 2.72489 1.21747 1.30987 2.30999 0.0878078 3.46677C -0.265947 3.7881 0.538042 4.19512 0.923956 3.89521C 2.2425 2.82411 3.52888 1.71018 4.87958 0.61766C 5.29766 0.274909 4.52583 -0.239216 4.10775 0.124956Z"/>
<path id="path55_fill" d="M 0.727388 0.0515001C 0.49035 0.313429 0.253311 0.568643 0.0247385 0.837288C -0.0768494 0.958179 0.160189 1.06564 0.270243 0.951462C 0.515747 0.696249 0.74432 0.427604 0.972892 0.165674C 1.08295 0.0447839 0.828976 -0.0693904 0.727388 0.0515001Z"/>
<path id="path56_fill" d="M 0.637906 0.0515514C 0.449852 0.267397 0.261798 0.47245 0.0612077 0.688296C -0.0140139 0.763841 -0.0265508 0.871764 0.0612077 0.94731C 0.136429 1.01206 0.286872 1.02286 0.362094 0.94731C 0.550148 0.742257 0.750739 0.526411 0.938792 0.321358C 1.01401 0.245812 1.02655 0.13789 0.938792 0.0623437C 0.876108 -0.0132022 0.713128 -0.0239945 0.637906 0.0515514Z"/>
<path id="path57_fill" d="M 0.54205 8.94901C 3.48836 7.47611 6.74356 6.37566 10.2126 5.71539C 11.9709 5.37679 13.8005 5.17363 15.5825 4.86889C 17.3645 4.56415 19.0278 4.03932 20.7861 3.68379C 22.5206 3.32827 24.3026 3.27748 26.0609 3.05739C 27.8192 2.85423 29.5062 2.46484 31.1932 2.04159C 34.5672 1.21202 37.8462 0.365522 41.4815 0.704121C 41.9805 0.754911 42.2419 0.213152 41.6954 0.145433C 38.2976 -0.345536 34.8999 0.500962 31.7397 1.27974C 30.0765 1.68606 28.3895 2.10931 26.6549 2.38019C 24.7779 2.668 22.8295 2.68493 20.9524 3.04046C 19.1228 3.37906 17.3883 3.95467 15.5587 4.27634C 13.7054 4.61494 11.8283 4.8181 9.99876 5.17363C 6.4822 5.85083 3.15572 7.00207 0.161881 8.50883C -0.218288 8.69506 0.13812 9.15217 0.54205 8.94901Z"/>
<path id="path58_fill" d="M 17.8621 23.7134C 18.0814 20.4466 17.9992 17.1607 17.8895 13.8939C 17.8347 12.2891 17.7799 10.6844 17.6976 9.07965C 17.6428 8.06713 17.5057 6.99729 16.6833 6.13761C 15.9432 5.33523 14.737 4.95315 13.4486 4.70479C 12.5988 4.53286 11.6942 4.43734 10.9266 4.13167C 9.96716 3.78779 9.55597 3.17646 8.92547 2.60334C 6.95174 0.922169 3.33322 0.78844 0.619341 0.0242733C 0.0984948 -0.12856 -0.257874 0.482773 0.23556 0.673815C 3.03168 1.70544 6.54054 1.49529 8.51428 3.44392C 9.30925 4.20809 10.0768 4.70479 11.3652 5.01046C 12.9826 5.39254 14.9563 5.44986 15.9432 6.577C 16.8752 7.64684 16.7656 9.09875 16.8204 10.3023C 16.9026 11.7542 16.9575 13.2061 17.0123 14.639C 17.1219 17.6574 17.1219 20.6759 17.0397 23.7134C 17.0123 24.0955 17.8347 24.0955 17.8621 23.7134Z"/>
<path id="path59_fill" d="M 0.39606 14.9981C 3.03646 15.0656 5.20158 13.3553 5.46562 11.1499C 5.36001 11.2624 5.25439 11.3749 5.14878 11.5099C 15.8952 8.5169 26.6944 5.05128 36.7807 0.685497C 37.2824 0.460456 36.8335 -0.147153 36.3319 0.0328793C 31.1039 2.01324 25.9551 4.08361 20.6479 5.90643C 15.4727 7.68425 10.2183 9.30455 4.93754 10.8123C 4.75272 10.8573 4.6471 10.9923 4.6207 11.1724C 4.40946 13.0177 2.53478 14.368 0.39606 14.3229C -0.13202 14.2779 -0.13202 14.9756 0.39606 14.9981Z"/>
<path id="path60_fill" d="M 174.738 0.336628C 168.982 -0.659859 163.321 0.743357 157.803 2.1059C 151.833 3.59046 145.839 4.42426 139.655 4.93267C 133.661 5.42075 127.667 5.82748 121.768 6.82396C 115.893 7.82045 110.446 10.1795 104.404 10.4642C 101.289 10.6065 98.2202 10.3422 95.1043 10.4032C 92.0597 10.4642 89.1817 11.115 86.2322 11.7454C 83.1877 12.3962 80.1193 12.5182 77.051 12.9656C 75.4812 13.1893 73.7924 13.0062 72.2225 12.9452C 70.6051 12.8842 68.9877 12.8232 67.3941 12.7419C 65.9431 12.6809 64.4922 12.5792 63.0413 12.6199C 61.3525 12.6605 59.6875 12.8436 57.9987 12.8639C 54.859 12.9046 51.7431 12.9859 48.6272 13.1689C 42.5857 13.5553 36.6155 14.3485 30.7642 15.6703C 19.3233 18.2531 8.38196 22.9508 0.12836 30.3126C -0.275996 30.6786 0.366216 31.2481 0.794356 30.882C 8.23925 24.2523 17.9438 19.7173 28.1954 17.1549C 33.9039 15.7313 39.7552 14.8975 45.6778 14.4095C 48.7223 14.1654 51.7669 14.0027 54.8115 13.9417C 56.3337 13.9011 57.8798 13.8807 59.4021 13.9214C 60.9481 13.9621 62.4466 14.2061 63.9927 14.2671C 67.1324 14.3891 70.2721 14.4298 73.4356 14.5315C 74.9817 14.5722 76.4564 14.6128 77.9786 14.8365C 79.4771 15.0602 81.1183 14.8365 82.6168 14.6535C 85.6376 14.3078 88.5157 13.4943 91.4889 13.0062C 94.5096 12.4978 97.5304 12.7012 100.599 12.7622C 103.62 12.8232 106.26 12.3962 109.114 11.5624C 111.849 10.7489 114.513 9.75241 117.249 8.95929C 122.981 7.2917 128.832 6.60026 134.85 6.11219C 141.415 5.58344 148.027 5.15637 154.449 3.71248C 161.014 2.24826 167.722 -0.151447 174.596 0.987395C 175 1.00773 175.19 0.417974 174.738 0.336628Z"/>
<path id="path61_fill" d="M 22.5258 0.024678C 18.8354 1.23259 14.7838 0.526075 10.9902 1.32375C 7.27396 2.12143 3.48036 3.60283 0.202884 5.31214C -0.261639 5.56284 0.15127 6.17819 0.641601 5.95028C 4.20295 4.37772 7.7643 2.66841 11.6869 1.91631C 15.3515 1.2098 19.1967 1.84794 22.7581 0.66282C 23.1968 0.526075 22.9903 -0.134857 22.5258 0.024678Z"/>
<path id="path62_fill" d="M 0.459932 3.99177C 9.5542 2.42294 18.8679 3.68672 28.0109 2.61904C 32.4483 2.0961 36.7151 0.766946 41.2257 0.723368C 45.7362 0.679789 50.2224 1.33347 54.7086 0.701578C 55.2206 0.63621 55.0012 -0.061049 54.4891 0.00431901C 49.7592 0.679789 45.0292 -0.126417 40.2992 0.0261084C 35.813 0.178634 31.5462 1.55136 27.1088 2.00894C 18.1852 2.92409 9.13972 1.81284 0.264881 3.35988C -0.198366 3.44704 -0.00331444 4.07893 0.459932 3.99177Z"/>
<path id="path63_fill" d="M 0.308755 5.3153C 2.1782 5.89446 3.93225 6.01857 5.91709 5.99789C 7.8327 5.9772 9.72522 5.93583 11.6408 5.87378C 13.5103 5.81173 15.2412 5.54283 17.0645 5.25325C 19.0494 4.92229 21.2419 5.08777 23.2499 5.0464C 26.7349 4.96366 30.3122 4.7775 33.6818 3.86739C 36.9822 2.97796 40.0056 1.55073 43.4445 1.03362C 47.7835 0.392399 52.284 1.13704 56.6229 1.34388C 56.4845 1.17841 56.346 1.03362 56.2075 0.868142C 56.1613 1.15772 56.1152 1.44731 56.069 1.73689C 55.9998 2.19195 56.7383 2.39879 56.8307 1.92305C 56.8768 1.63347 56.9461 1.34388 56.9922 1.07499C 57.0384 0.826773 56.8768 0.619928 56.5768 0.599244C 52.8148 0.288977 48.9144 -0.166081 45.1293 0.061448C 41.7828 0.268292 38.5978 1.30252 35.4128 2.15058C 33.7972 2.56427 32.2278 3.12275 30.6122 3.55712C 28.7428 4.05355 26.6887 4.1156 24.75 4.19834C 22.8806 4.26039 21.0342 4.26039 19.1648 4.28108C 17.1338 4.30176 15.2182 3.80533 13.2102 3.76396C 11.0638 3.7226 8.94052 3.74328 6.79412 3.76396C 5.64014 3.78465 4.48616 3.78465 3.35526 3.88807C 2.22436 4.01218 1.32426 4.26039 0.262596 4.61203C -0.0835979 4.71545 -0.106677 5.17051 0.308755 5.3153Z"/>
<path id="path64_fill" d="M 122.964 0.641994C 124.73 1.18373 125.589 2.91312 125.148 4.41332C 124.657 6.12188 122.816 7.33037 120.976 7.93461C 117.124 9.20561 112.559 8.66387 108.535 8.58053C 103.971 8.49719 99.4069 8.39301 94.8428 8.30966C 90.4014 8.20548 85.9354 8.01796 81.494 8.12214C 77.2735 8.22632 73.151 8.99725 69.0041 9.664C 64.6853 10.3724 60.3421 11.1017 56.0233 11.7893C 47.2632 13.1853 38.4049 14.3521 29.473 14.2063C 19.7804 14.0396 9.94054 12.456 0.32155 14.2271C -0.242829 14.3313 0.00255316 15.0397 0.542394 14.9355C 9.98961 13.4353 19.4614 14.748 28.9822 14.9772C 38.3313 15.1856 47.5822 13.9354 56.7104 12.4769C 61.3481 11.7268 65.9859 10.9558 70.5991 10.1849C 75.2613 9.41397 79.8009 8.83056 84.5613 8.89307C 94.2048 9.01809 103.848 9.33063 113.492 9.43481C 117.443 9.47648 122.252 9.28896 124.878 6.39274C 126.743 4.35081 126.374 0.829519 123.086 0.0169128C 122.694 -0.108103 122.497 0.496142 122.964 0.641994Z"/>
<path id="path65_fill" d="M 0.673201 26.8639C 2.37673 24.695 2.57142 22.1281 3.30151 19.6806C 4.12894 16.855 5.75946 14.2682 7.56034 11.7809C 9.31255 9.35327 11.0648 6.68688 13.5714 4.69704C 16.1267 2.6873 19.5094 1.63268 22.7461 0.617865C 23.1842 0.478576 23.0138 -0.118376 22.5514 0.0209126C 19.4851 0.956139 16.3457 1.93116 13.7904 3.66232C 11.0891 5.49298 9.36122 8.11957 7.56034 10.5472C 5.7838 12.9748 4.08027 15.4621 3.00947 18.1683C 1.93868 20.9342 1.98735 24.0383 0.0647963 26.5654C -0.202902 26.8838 0.429839 27.1823 0.673201 26.8639Z"/>
<path id="path66_fill" d="M 0.479796 5.99305C 3.27019 5.51173 5.85947 4.62041 8.49903 3.83604C 11.3397 2.99819 14.2558 2.42775 17.2976 2.12469C 23.6828 1.46511 30.1686 1.09076 36.6041 0.591614C 37.132 0.555961 37.132 -0.0501404 36.6041 0.00333912C 30.2691 0.502482 23.8839 0.894665 17.549 1.51859C 14.5575 1.82164 11.6665 2.30296 8.85097 3.12298C 6.0103 3.943 3.24505 4.90563 0.253548 5.49391C -0.198948 5.56521 0.00216156 6.06435 0.479796 5.99305Z"/>
<path id="path67_fill" d="M 55.65 0.000592816C 47.1321 0.533976 38.6379 1.21283 30.1437 1.89168C 26.1339 2.20686 22.0766 2.61902 18.1854 3.73427C 14.7213 4.70406 11.3283 6.1345 8.07775 7.68615C 4.89836 9.21357 1.86132 11.2259 0.0580829 14.4019C -0.202912 14.8383 0.485166 15.2505 0.746161 14.8141C 2.40704 11.929 5.1119 10.0621 8.00657 8.6317C 11.2571 7.0073 14.7213 5.57687 18.2091 4.58284C 22.0291 3.49183 25.9915 3.05542 29.9302 2.716C 33.8925 2.40082 37.8549 2.10988 41.8173 1.7947C 46.444 1.43103 51.047 1.14009 55.6738 0.727933C 56.1008 0.703688 56.1246 -0.0236519 55.65 0.000592816Z"/>
<path id="path68_fill" d="M 0.38183 3.09978C 2.12063 3.23217 3.88292 3.28512 5.64521 3.41751C 7.431 3.54989 9.0993 4 10.9086 4C 14.3392 4 17.7933 3.92057 21.2239 3.81466C 24.584 3.70875 28.0616 3.76171 31.3747 3.15273C 34.8053 2.49081 38.2359 1.93479 41.643 1.114C 42.1834 0.981618 42.0894 -0.0509869 41.502 0.00196717C 38.0949 0.319692 34.7113 0.557985 31.2807 0.505031C 27.8736 0.452077 24.4195 0.849232 20.9889 0.928663C 17.6288 1.03457 14.2687 1.03457 10.9086 1.08753C 9.1698 1.114 7.57198 1.53764 5.85669 1.74945C 4.0239 1.96127 2.19112 2.01422 0.358333 2.25252C -0.111612 2.27899 -0.135109 3.04683 0.38183 3.09978Z"/>
<path id="path69_fill" d="M 0.788992 30.7814C 3.6185 25.1284 6.42319 19.3748 11.139 14.5465C 13.3977 12.233 15.6315 9.89939 18.1135 7.72669C 19.3297 6.66045 20.6452 5.49363 22.2337 4.7694C 23.9711 3.9647 26.1057 3.50199 27.992 3.01917C 32.41 1.9127 36.9521 1.14824 41.5439 0.766002C 42.1396 0.725767 42.1644 -0.0387016 41.5439 0.0015336C 37.3741 0.222827 33.2539 0.766002 29.233 1.69141C 27.2226 2.15412 25.2618 2.67717 23.3258 3.30082C 21.5884 3.84399 19.5779 4.28658 18.0143 5.13152C 11.4617 8.71245 8.33435 15.1903 5.10772 20.783C 3.2462 24.0018 1.58324 27.281 0.0195636 30.6205C -0.129358 31.0027 0.61525 31.1637 0.788992 30.7814Z"/>
<path id="path70_fill" d="M 0.365916 5.0957C 3.7094 4.79147 6.93174 5.31044 10.2268 5.63257C 13.4007 5.93679 16.6714 6.07996 19.8696 5.95469C 21.5655 5.8831 23.2615 5.75783 24.9575 5.68625C 26.6292 5.61467 28.3736 5.41782 30.0211 5.45361C 31.6444 5.4894 33.2435 5.63257 34.8425 5.79363C 36.3931 5.95469 37.968 5.901 39.5186 5.82942C 42.7651 5.68625 46.0117 5.38203 49.2098 5.04201C 52.5049 4.6841 55.8726 4.55883 59.1918 4.37987C 62.608 4.20092 66.0968 4.52304 69.513 4.63041C 72.7596 4.71989 75.9819 4.6841 79.2043 4.43356C 82.7658 4.14723 86.1093 3.39561 89.5254 2.59031C 93.1354 1.73132 96.6001 0.603897 100.477 0.890227C 101.082 0.943914 101.203 0.192298 100.622 0.120715C 97.5934 -0.290884 94.6133 0.424941 91.7787 1.14077C 88.6048 1.94607 85.4551 2.55452 82.1601 3.07349C 78.8166 3.59246 75.5216 3.96827 72.1054 4.00406C 68.7377 4.03986 65.37 3.89669 62.0023 3.73563C 60.3548 3.66405 58.7315 3.53878 57.084 3.48509C 55.3153 3.4314 53.7889 3.64615 52.0687 3.843C 48.7253 4.2546 45.3818 4.82726 42.0141 5.0957C 38.7917 5.36413 35.4725 5.14938 32.2744 4.86305C 30.6269 4.71989 28.9067 4.46935 27.2591 4.39777C 25.5874 4.32619 23.843 4.45145 22.1712 4.52304C 18.4643 4.6841 14.8301 5.14938 11.1232 4.88095C 7.51321 4.61251 3.87899 4.16512 0.244775 4.59462C -0.142875 4.61251 -0.0459622 5.13149 0.365916 5.0957Z"/>
<path id="path71_fill" d="M 76.7326 4.28697C 78.2807 4.07079 80.5545 3.35019 79.8772 1.83694C 79.2241 0.359724 76.1279 0.0714862 74.3863 0.0174415C 73.0801 -0.0185882 71.6288 -0.0185882 70.3468 0.215605C 68.702 0.521858 67.0813 0.629947 65.4123 0.774067C 62.4371 1.04429 59.4619 1.33253 56.5109 1.62077C 53.5357 1.89099 50.5846 2.01709 47.6094 2.23327C 44.6342 2.44945 41.6832 2.80975 38.708 3.06196C 32.7092 3.56637 26.6862 3.58439 20.6874 3.81858C 13.8904 4.0888 7.23847 5.36786 0.417255 5.34985C -0.139085 5.34985 -0.139085 5.96235 0.417255 5.98037C 5.73877 6.1425 10.9877 5.25977 16.2609 4.82741C 21.534 4.39506 26.8313 4.53918 32.1287 4.323C 37.3534 4.10682 42.6266 3.85461 47.8029 3.29615C 53.2938 2.70166 58.712 1.98106 64.2513 1.6568C 65.7268 1.56672 67.2265 1.44062 68.702 1.40459C 69.5002 1.38657 70.2742 1.53069 71.0483 1.53069C 71.7256 1.54871 72.4512 1.45863 73.1285 1.40459C 74.5073 1.33253 75.9102 1.22444 77.2648 1.44062C 77.5792 1.49466 77.9421 1.54871 78.2323 1.67481C 78.8854 1.92702 79.1515 2.68364 78.5952 3.07997C 78.063 3.4763 77.2164 3.58439 76.4907 3.69248C 76.007 3.80057 76.2247 4.35903 76.7326 4.28697Z"/>
<path id="path72_fill" d="M 0.600438 8.91582C 1.92985 8.01365 3.23634 7.35754 4.88664 6.81624C 6.39942 6.32415 7.93511 5.91408 9.49373 5.504C 12.7943 4.61824 16.0262 3.53565 19.4414 2.87953C 23.4755 2.09219 27.5783 1.5837 31.7499 1.55089C 33.7898 1.53449 35.8298 1.56729 37.8698 1.45247C 39.7951 1.35405 41.7205 1.12441 43.6458 0.960383C 48.2758 0.583115 52.9288 0.615921 57.6046 0.632324C 58.1318 0.632324 58.1318 0.0418179 57.6046 0.0418179C 53.3184 -0.0237939 49.0322 -0.0401969 44.7689 0.205847C 42.7519 0.320668 40.7807 0.566712 38.7637 0.681533C 36.6549 0.812757 34.5462 0.763548 32.4375 0.779951C 28.2201 0.82916 24.1631 1.33765 20.0832 2.05938C 18.1578 2.40384 16.2325 2.74831 14.2383 2.87953C 12.611 2.99435 10.9377 3.35521 9.40205 3.76529C 5.80347 4.74947 2.59455 6.43897 0.096179 8.53855C -0.201792 8.8174 0.256625 9.16186 0.600438 8.91582Z"/>
<path id="path73_fill" d="M 0.340105 0.998414C 1.81389 0.895759 3.28768 0.758885 4.7388 0.536466C 5.19227 0.468029 5.01088 -0.0623561 4.53474 0.00608069C 3.12897 0.211391 1.74587 0.365374 0.340105 0.468029C -0.113368 0.502247 -0.113368 1.03263 0.340105 0.998414Z"/>
<path id="path74_fill" d="M 0.445436 0.998553C 2.54602 0.822866 4.62352 0.632537 6.7241 0.45685C 7.20885 0.412928 7.0011 -0.0409323 6.51635 0.00298966C 4.43885 0.193318 2.33827 0.383646 0.26077 0.573975C -0.200896 0.603256 0.00685337 1.02783 0.445436 0.998553Z"/>
<path id="path75_fill" d="M 0.377778 0.999786C 8.76444 0.82237 17.0756 0.766344 25.4622 0.831707C 27.477 0.850383 29.4667 0.831707 31.4815 0.82237C 33.6726 0.813032 35.8133 0.710318 38.0044 0.682305C 42.1852 0.616941 46.3659 0.626279 50.5467 0.598266C 51.1511 0.598266 51.1511 0.262109 50.5467 0.252772C 46.3659 0.17807 42.1852 0.150057 38.0044 0.103369C 35.8889 0.0846935 33.8489 -0.00868329 31.7333 0.000654388C 29.643 0.00999206 27.5526 0.0286674 25.4622 0.0753558C 17.1007 0.280785 8.73926 0.495551 0.377778 0.710318C -0.125926 0.710318 -0.125926 1.00912 0.377778 0.999786Z"/>
<path id="path76_fill" d="M 0.301132 0.498213C 2.43547 0.510049 4.54868 0.462704 6.68302 0.368016C 7.10566 0.344344 7.10566 -0.0225748 6.68302 0.00109735C 4.56981 0.095786 2.43547 0.14313 0.301132 0.14313C -0.100377 0.14313 -0.100377 0.498213 0.301132 0.498213Z"/>
<path id="path77_fill" d="M 0.424487 0.993619C 1.83234 0.784526 3.24019 0.627706 4.67003 0.540583C 5.10999 0.505735 5.10999 -0.0169985 4.67003 0.000425975C 3.17419 0.0701237 1.70035 0.226944 0.248505 0.470886C -0.191448 0.540584 0.00653103 1.06332 0.424487 0.993619Z"/>
<path id="path78_fill" d="M 0.204935 0.497314C 0.427958 0.46021 0.6616 0.410739 0.884622 0.373636C 1.0864 0.336533 1.00144 -0.034499 0.799662 0.00260417C 0.576639 0.0397074 0.342997 0.0891783 0.119974 0.126282C -0.092428 0.175752 0.00315307 0.534417 0.204935 0.497314Z"/>
<path id="path79_fill" d="M 0.247032 3.85039C 1.72014 4.14881 3.17127 3.98965 4.55643 3.47239C 6.11749 2.89544 7.48067 1.92061 9.15166 1.64208C 10.9986 1.34366 12.8454 1.46303 14.4944 2.27871C 15.7917 2.93523 16.913 3.61165 18.4521 3.47239C 19.0457 3.41271 19.2436 2.63681 18.606 2.49755C 17.0889 2.13945 15.8576 1.16461 14.4505 0.587668C 12.9993 -0.00917113 11.4163 -0.068855 9.85524 0.0505128C 8.31617 0.169881 6.88703 0.527984 5.76571 1.54261C 4.99617 2.23892 4.46849 2.79597 3.36915 3.09439C 2.42372 3.35302 1.41233 3.37292 0.444913 3.25355C 0.00517821 3.21376 -0.192702 3.77081 0.247032 3.85039Z"/>
<path id="path80_fill" d="M 0.180228 0.257345C 2.90306 0.722705 6.25619 1.15359 9.3572 0.946767C 10.9455 0.843354 12.2313 0.533114 13.87 0.524496C 15.4836 0.515878 17.0719 0.593438 18.635 0.429701C 19.1645 0.377994 19.114 0.0505189 18.509 0.0763722C 17.0215 0.145314 15.5844 0.0419011 14.0717 0.0332833C 12.7103 0.0246655 11.5758 0.153932 10.3657 0.334905C 7.21422 0.8175 3.53335 0.429701 0.457554 0.00743C 0.0793819 -0.0442766 -0.197944 0.188403 0.180228 0.257345Z"/>
<path id="path81_fill" d="M 0.223486 0.243903C 2.31321 0.535467 4.42363 0.788667 6.57543 0.995831C 7.00993 1.0342 7.17545 0.79634 6.76165 0.750304C 4.60985 0.535467 2.49943 0.289939 0.409699 0.00604774C -0.00410855 -0.0399887 -0.169632 0.190194 0.223486 0.243903Z"/>
<path id="path82_fill" d="M 0.150547 0.194179C 2.18383 0.574697 4.3379 0.849516 6.59263 0.997496C 6.99526 1.02568 7.17644 0.807236 6.77381 0.77905C 4.55935 0.63107 2.44554 0.377392 0.45252 0.0109666C 0.110284 -0.0454065 -0.191688 0.130759 0.150547 0.194179Z"/>
<path id="path83_fill" d="M 0.144386 0.650057C 2.28469 1.69584 4.38678 2.82878 6.50798 3.96171C 6.87107 4.1578 7.21505 3.54776 6.83285 3.32988C 4.73076 2.1098 2.55223 1.04223 0.373705 0.0182281C 0.0679463 -0.112495 -0.161372 0.497547 0.144386 0.650057Z"/>
<path id="path84_fill" d="M 0.152237 0.573703C 2.2358 1.77191 4.33866 2.88889 6.49939 3.96525C 6.88523 4.14803 7.2132 3.55908 6.82736 3.3763C 4.68592 2.29994 2.56377 1.20327 0.460913 0.0456774C 0.113653 -0.157409 -0.195023 0.370616 0.152237 0.573703Z"/>
<path id="path85_fill" d="M 0.110848 0.580923C 2.07626 2.02613 4.1998 3.13621 6.52666 3.97401C 7.00107 4.14158 7.20439 3.45039 6.72998 3.28283C 4.49348 2.48692 2.43771 1.39778 0.540075 0.0572972C 0.223802 -0.173098 -0.205425 0.350527 0.110848 0.580923Z"/>
<path id="path86_fill" d="M 0.139302 0.484524C 2.26056 1.65112 4.35949 2.80082 6.48076 3.95051C 6.86035 4.1534 7.21761 3.67999 6.83802 3.47711C 4.71676 2.32741 2.5955 1.17772 0.451909 0.044935C 0.139302 -0.141045 -0.195634 0.298544 0.139302 0.484524Z"/>
<path id="path87_fill" d="M 0.112349 0.376723C 3.45516 2.36752 6.91879 4.23766 10.5032 5.95699C 10.8657 6.13797 11.2081 5.7006 10.8456 5.51962C 7.3014 3.81537 3.85791 2.00556 0.535234 0.0600049C 0.233173 -0.136058 -0.20985 0.195741 0.112349 0.376723Z"/>
<path id="path88_fill" d="M 0.151663 0.421341C 1.88241 1.07882 3.26701 2.33262 4.75342 3.26532C 6.28055 4.21331 7.84841 5.11543 9.49771 5.95639C 9.86423 6.13988 10.2104 5.69646 9.84386 5.51298C 8.05203 4.59557 6.32128 3.6017 4.65161 2.54668C 3.30774 1.69043 2.06567 0.604824 0.477451 0.023796C 0.11094 -0.0985256 -0.194487 0.283729 0.151663 0.421341Z"/>
<path id="path89_fill" d="M 0.0863389 0.491447C 2.10019 2.51411 4.26895 4.35121 6.5754 5.94708C 6.88523 6.16976 7.17784 5.63162 6.86801 5.40894C 4.61319 3.79452 2.46165 2.03164 0.465011 0.0832023C 0.206826 -0.17659 -0.171847 0.231655 0.0863389 0.491447Z"/>
<path id="path90_fill" d="M 9.43176 0.0860826C 6.31881 2.86247 3.20585 5.61717 0.113935 8.41525C -0.222601 8.71891 0.261169 9.19611 0.597704 8.91413C 3.71066 6.15943 6.80258 3.33966 9.89449 0.563274C 10.21 0.281297 9.74726 -0.195894 9.43176 0.0860826Z"/>
<path id="path91_fill" d="M 9.48617 0.0547826C 6.37061 1.87684 3.23295 3.68218 0.117386 5.52095C -0.214057 5.70483 0.227867 6.13945 0.55931 5.95557C 3.67487 4.16695 6.74624 2.34489 9.83971 0.53955C 10.2153 0.322241 9.86181 -0.162527 9.48617 0.0547826Z"/>
<path id="path92_fill" d="M 6.42986 0.0532559C 4.34586 1.18128 2.26186 2.3093 0.177856 3.43732C -0.238944 3.65564 0.153339 4.16507 0.570139 3.94674C 2.65414 2.81872 4.73814 1.6907 6.82214 0.562684C 7.23894 0.344358 6.84666 -0.165071 6.42986 0.0532559Z"/>
<path id="path93_fill" d="M 4.33863 0.0934378C 3.01667 1.24709 1.62128 2.28302 0.176922 3.27186C -0.239249 3.55438 0.152441 4.21361 0.593092 3.93108C 2.11089 2.94224 3.53077 1.81214 4.8772 0.611402C 5.24441 0.305332 4.70584 -0.212632 4.33863 0.0934378Z"/>
<path id="path94_fill" d="M 4.47215 0.0574042C 2.96978 1.08318 1.51159 2.20013 0.119678 3.38547C -0.233822 3.7046 0.274335 4.20609 0.627836 3.90976C 1.97556 2.77001 3.36747 1.67585 4.82566 0.672869C 5.22334 0.444919 4.86984 -0.193341 4.47215 0.0574042Z"/>
<path id="path95_fill" d="M 6.43789 0.130264C 4.41587 2.97816 2.28356 5.7179 0.0777228 8.43962C -0.179625 8.74604 0.261542 9.21468 0.537272 8.89024C 2.83502 6.18654 4.96733 3.35667 6.95258 0.436683C 7.15478 0.112239 6.65847 -0.176155 6.43789 0.130264Z"/>
<path id="path96_fill" d="M 9.41186 0.0859348C 6.27991 2.9185 3.10415 5.71941 0.0598002 8.59945C -0.181119 8.83681 0.366425 9.1533 0.629247 8.91593C 3.80501 6.13084 6.82745 3.26663 9.9156 0.434071C 10.2003 0.196705 9.69658 -0.167255 9.41186 0.0859348Z"/>
<path id="path97_fill" d="M 6.3293 0.156158C 4.33413 2.95462 2.25222 5.71002 0.0835679 8.37932C -0.198357 8.72375 0.300434 9.24039 0.582359 8.87443C 2.83776 6.18361 4.96304 3.38515 6.93652 0.500584C 7.19676 0.134632 6.58954 -0.209794 6.3293 0.156158Z"/>
<path id="path98_fill" d="M 6.39764 0.0905539C 4.33298 1.91953 2.26833 3.72885 0.107643 5.47916C -0.228463 5.75449 0.299704 6.18715 0.63581 5.91182C 2.8205 4.20084 4.95718 2.41119 6.90179 0.523216C 7.21389 0.228219 6.70973 -0.184776 6.39764 0.0905539Z"/>
<path id="path99_fill" d="M 6.40626 0.0976332C 4.42412 1.99015 2.30984 3.77453 0.107457 5.50484C -0.2229 5.7752 0.283648 6.17173 0.614005 5.91939C 2.83841 4.22513 4.93067 2.40471 6.91281 0.512186C 7.19912 0.223801 6.7146 -0.190751 6.40626 0.0976332Z"/>
<path id="path100_fill" d="M 6.41943 0.0846685C 4.299 1.8894 2.17857 3.69413 0.0985321 5.51621C -0.204386 5.77651 0.260088 6.17563 0.563007 5.91533C 2.68343 4.12796 4.78367 2.30587 6.9041 0.483791C 7.20701 0.223494 6.72235 -0.175629 6.41943 0.0846685Z"/>
<path id="path101_fill" d="M 22.7944 44.3753C 19.2536 42.7961 18.6514 39.1044 16.5558 36.5202C 14.5566 34.0591 11.4012 32.6029 8.89609 30.5725C 6.10198 28.3165 4.56041 25.2811 3.4524 22.1842C 2.89839 20.6255 2.34439 19.0258 2.00717 17.4056C 1.62177 15.5187 1.98308 13.5908 1.71812 11.6835C 1.45316 9.75561 0.537854 7.84825 0.826899 5.87936C 1.14003 3.86945 2.44074 2.08514 3.8137 0.505925C 4.12684 0.136758 3.40422 -0.2119 3.11518 0.157267C 1.93491 1.51088 0.875074 2.96704 0.32107 4.60778C -0.208847 6.2075 -0.0161503 7.72519 0.417418 9.32491C 0.706464 10.3709 0.971422 11.4169 1.06777 12.5039C 1.16412 13.5703 1.04368 14.6163 1.04368 15.6828C 1.0196 17.3645 1.59769 18.9848 2.10352 20.605C 3.09109 23.7429 4.24727 26.9424 6.6319 29.5471C 8.99244 32.0902 12.461 33.5874 14.966 35.987C 17.8324 38.7557 18.2178 43.1857 22.409 44.97C 22.8666 45.1341 23.252 44.5804 22.7944 44.3753Z"/>
<path id="path102_fill" d="M 6.94417 18.5353C 3.22012 12.9334 -0.0448008 6.85599 1.0265 0.323824C 1.07752 -0.0482612 0.286793 -0.130947 0.235779 0.241139C -0.937553 6.89734 2.45491 13.1401 6.28099 18.8454C 6.51055 19.1968 7.19925 18.8868 6.94417 18.5353Z"/>
<path id="path103_fill" d="M 6.87955 5.43986C 5.73037 4.66358 4.59887 3.86789 3.48505 3.03339C 2.40658 2.2183 1.20436 1.44202 0.550215 0.161159C 0.355738 -0.207574 -0.139293 0.122345 0.0375038 0.491078C 0.620934 1.6749 1.64636 2.43178 2.61874 3.18865C 3.90936 4.1784 5.25302 5.09053 6.59667 5.96384C 6.89723 6.13851 7.16242 5.63393 6.87955 5.43986Z"/>
<path id="path104_fill" d="M 0.987873 3.53563C 0.792791 2.44938 0.597708 1.34051 0.390433 0.254261C 0.305085 -0.198341 -0.0728876 0.00532976 0.012461 0.457932C 0.207543 1.54418 0.402626 2.65305 0.597708 3.7393C 0.683057 4.1919 1.07322 4.01086 0.987873 3.53563Z"/>
</defs>
</svg>
