<svg width="165" height="54" viewBox="0 0 165 54" version="1.1" xmlns="http://www.w3.org/2000/svg" xmlns:xlink="http://www.w3.org/1999/xlink">
<title>Group 2</title>
<desc>Created using Figma</desc>
<g id="Canvas" transform="translate(-262 507)">
<g id="Group 2">
<g id="Animals">
<g id="Animals" filter="url(#filter0_d)">
<use xlink:href="#path0_fill" transform="translate(338 -482)" fill="#FFFFFF"/>
</g>
</g>
<g id="Bear">
<g id="Shape">
<use xlink:href="#path1_fill" transform="matrix(-1 0 0 1 338.004 -506.005)" fill="#FFFFFF"/>
</g>
<g id="Oval">
<use xlink:href="#path2_fill" transform="matrix(-1 0 0 1 308.85 -470.96)" fill="#FFFFFF"/>
</g>
</g>
</g>
</g>
<defs>
<filter id="filter0_d" filterUnits="userSpaceOnUse" x="334" y="-479" width="93" height="26" color-interpolation-filters="sRGB">
<feFlood flood-opacity="0" result="BackgroundImageFix"/>
<feColorMatrix in="SourceAlpha" type="matrix" values="0 0 0 0 0 0 0 0 0 0 0 0 0 0 0 0 0 0 255 0"/>
<feOffset dx="0" dy="2"/>
<feGaussianBlur stdDeviation="2"/>
<feColorMatrix type="matrix" values="0 0 0 0 0 0 0 0 0 0 0 0 0 0 0 0 0 0 0.5 0"/>
<feBlend mode="normal" in2="BackgroundImageFix" result="effect1_dropShadow"/>
<feBlend mode="normal" in="SourceGraphic" in2="effect1_dropShadow" result="shape"/>
</filter>
<path id="path0_fill" d="M 12.1 18.326L 4.444 18.326L 2.86 22L 0 22L 7.084 6.336L 9.394 6.336L 16.5 22L 13.662 22L 12.1 18.326ZM 11.154 16.126L 8.272 9.416L 5.39 16.126L 11.154 16.126ZM 24.354 10.604C 27.0087 10.604 28.336 12.1293 28.336 15.18L 28.336 22L 25.586 22L 25.586 15.312C 25.586 14.432 25.4173 13.794 25.08 13.398C 24.7427 12.9873 24.222 12.782 23.518 12.782C 22.682 12.782 22.0073 13.0533 21.494 13.596C 20.9807 14.124 20.724 14.828 20.724 15.708L 20.724 22L 17.996 22L 17.996 14.036C 17.996 12.8627 17.9373 11.814 17.82 10.89L 20.394 10.89L 20.592 12.716C 20.9733 12.0413 21.4867 11.5207 22.132 11.154C 22.792 10.7873 23.5327 10.604 24.354 10.604ZM 31.2519 10.89L 33.9799 10.89L 33.9799 22L 31.2519 22L 31.2519 10.89ZM 34.1339 5.852L 34.1339 8.558L 31.0759 8.558L 31.0759 5.852L 34.1339 5.852ZM 50.1002 10.604C 51.3615 10.604 52.3002 10.9853 52.9162 11.748C 53.5322 12.496 53.8402 13.64 53.8402 15.18L 53.8402 22L 51.0902 22L 51.0902 15.268C 51.0902 14.388 50.9435 13.7573 50.6502 13.376C 50.3715 12.98 49.9022 12.782 49.2422 12.782C 48.4795 12.782 47.8782 13.0533 47.4382 13.596C 47.0129 14.124 46.8002 14.8573 46.8002 15.796L 46.8002 22L 44.0502 22L 44.0502 15.268C 44.0502 14.4027 43.8962 13.772 43.5882 13.376C 43.2949 12.98 42.8255 12.782 42.1802 12.782C 41.4175 12.782 40.8162 13.0533 40.3762 13.596C 39.9362 14.124 39.7162 14.8573 39.7162 15.796L 39.7162 22L 36.9882 22L 36.9882 14.036C 36.9882 12.8627 36.9295 11.814 36.8122 10.89L 39.3862 10.89L 39.5842 12.65C 39.9069 11.99 40.3689 11.484 40.9702 11.132C 41.5862 10.78 42.2902 10.604 43.0822 10.604C 44.7835 10.604 45.8909 11.308 46.4042 12.716C 46.7562 12.056 47.2549 11.5427 47.9002 11.176C 48.5602 10.7947 49.2935 10.604 50.1002 10.604ZM 67.4013 10.89L 67.4013 22L 64.6953 22L 64.6953 20.218C 64.358 20.834 63.874 21.318 63.2433 21.67C 62.6126 22.0073 61.894 22.176 61.0873 22.176C 60.1193 22.176 59.2613 21.9413 58.5133 21.472C 57.7653 21.0027 57.186 20.3353 56.7753 19.47C 56.3646 18.6047 56.1593 17.6 56.1593 16.456C 56.1593 15.312 56.3646 14.3 56.7753 13.42C 57.2006 12.5253 57.7873 11.836 58.5353 11.352C 59.2833 10.8533 60.134 10.604 61.0873 10.604C 61.894 10.604 62.6126 10.78 63.2433 11.132C 63.874 11.4693 64.358 11.946 64.6953 12.562L 64.6953 10.89L 67.4013 10.89ZM 61.8353 20.02C 62.7446 20.02 63.4486 19.7047 63.9473 19.074C 64.446 18.4433 64.6953 17.556 64.6953 16.412C 64.6953 15.2387 64.446 14.3367 63.9473 13.706C 63.4486 13.0753 62.7373 12.76 61.8133 12.76C 60.904 12.76 60.1926 13.09 59.6793 13.75C 59.1806 14.3953 58.9313 15.2973 58.9313 16.456C 58.9313 17.6 59.1806 18.48 59.6793 19.096C 60.1926 19.712 60.9113 20.02 61.8353 20.02ZM 70.3964 5.808L 73.1244 5.808L 73.1244 22L 70.3964 22L 70.3964 5.808ZM 80.2027 22.176C 78.1934 22.176 76.5947 21.7067 75.4067 20.768L 76.1767 18.832C 77.3647 19.712 78.7214 20.152 80.2467 20.152C 80.9067 20.152 81.4127 20.042 81.7647 19.822C 82.1314 19.602 82.3147 19.294 82.3147 18.898C 82.3147 18.5607 82.1901 18.2967 81.9407 18.106C 81.6914 17.9007 81.2661 17.7247 80.6647 17.578L 78.8167 17.16C 76.7927 16.72 75.7807 15.686 75.7807 14.058C 75.7807 13.3833 75.9714 12.7893 76.3527 12.276C 76.7341 11.748 77.2694 11.3373 77.9587 11.044C 78.6481 10.7507 79.4474 10.604 80.3567 10.604C 81.1487 10.604 81.9114 10.7287 82.6447 10.978C 83.3781 11.2127 84.0234 11.5573 84.5807 12.012L 83.7667 13.882C 82.6521 13.0607 81.5081 12.65 80.3347 12.65C 79.7041 12.65 79.2127 12.7673 78.8607 13.002C 78.5087 13.2367 78.3327 13.5593 78.3327 13.97C 78.3327 14.2927 78.4354 14.5493 78.6407 14.74C 78.8607 14.9307 79.2274 15.092 79.7407 15.224L 81.6327 15.642C 82.7327 15.8913 83.5321 16.28 84.0307 16.808C 84.5441 17.3213 84.8007 17.996 84.8007 18.832C 84.8007 19.8587 84.3901 20.6727 83.5687 21.274C 82.7474 21.8753 81.6254 22.176 80.2027 22.176Z"/>
<path id="path1_fill" fill-rule="evenodd" d="M 37.7436 7.88495C 38.9345 8.25079 40.2014 8.29224 41.4136 8.00494C 58.3336 2.82492 85.5936 13.7149 71.6336 51.575L 62.0036 51.575C 62.0036 51.575 65.3436 35.6149 48.7836 34.7449C 48.7836 34.7449 53.0836 42.7149 49.9236 51.5849L 41.4436 51.5849C 41.4436 51.5849 43.6936 34.6149 31.6936 30.0549C 31.4719 30.6448 31.4719 31.2951 31.6936 31.8849C 31.6936 31.8849 27.6236 33.3049 28.0036 35.8849L 25.6136 37.1149C 25.6136 37.1149 25.3336 40.7649 31.7336 40.5249C 38.1336 40.2849 36.1836 50.4049 35.7336 51.5849L 27.6036 51.5849C 27.6036 51.5849 23.1236 36.9349 23.6636 32.0049C 23.6636 32.0049 23.6636 24.0649 20.0536 22.7349C 16.8438 21.4255 13.4854 20.5154 10.0536 20.0249C 6.41364 19.5249 -0.686371 18.4449 0.0536499 14.1049L 5.77365 10.2849C 6.15128 9.88019 6.37738 9.3573 6.41364 8.80493C 6.51364 7.80493 8.43362 5.80493 13.6036 3.80493C 13.6036 3.80493 14.3936 2.92493 13.7036 0.254944C 13.7036 0.254944 13.9536 -0.685059 16.3236 1.04492C 18.6936 2.77493 24.6536 5.77493 25.0036 5.58493C 26.7323 6.07791 28.5555 6.13971 30.3136 5.76492C 32.93 5.83005 35.4868 6.55957 37.7436 7.88495ZM 7.54865 10.7726C 7.72705 11.1629 8.125 11.4054 8.55365 11.3849C 8.82776 11.3853 9.09 11.2731 9.27902 11.0746C 9.46808 10.8761 9.56735 10.6087 9.55365 10.335C 9.55316 9.90582 9.29156 9.52017 8.89304 9.36102C 8.49451 9.20187 8.03925 9.30124 7.74329 9.612C 7.44733 9.92276 7.37027 10.3823 7.54865 10.7726Z"/>
<path id="path2_fill" d="M 0.72 1.44C 1.11765 1.44 1.44 1.11765 1.44 0.72C 1.44 0.322355 1.11765 0 0.72 0C 0.322355 0 0 0.322355 0 0.72C 0 1.11765 0.322355 1.44 0.72 1.44Z"/>
</defs>
</svg>
