<svg width="143" height="55" viewBox="0 0 143 55" version="1.1" xmlns="http://www.w3.org/2000/svg" xmlns:xlink="http://www.w3.org/1999/xlink">
<title>Group 4</title>
<desc>Created using Figma</desc>
<g id="Canvas" transform="translate(-268 684)">
<g id="Group 4">
<g id="People">
<g id="People" filter="url(#filter0_d)">
<use xlink:href="#path0_fill" transform="translate(337 -662)" fill="#FFFFFF"/>
</g>
</g>
<g id="Asset 4">
<g id="People-2">
<g id="Bottom_shirt">
<g id="Shape">
<use xlink:href="#path1_fill" transform="translate(268 -656.107)" fill="#FFFFFF"/>
</g>
</g>
<g id="Topshit">
<g id="Shape">
<use xlink:href="#path2_fill" transform="translate(269.689 -668.492)" fill="#FFFFFF"/>
</g>
</g>
<g id="Head">
<g id="Shape">
<use xlink:href="#path3_fill" transform="translate(273.343 -683.023)" fill="#FFFFFF"/>
</g>
</g>
</g>
<g id="People-3">
<g id="Bottom_shirt-2">
<g id="Shape">
<use xlink:href="#path4_fill" transform="translate(295.402 -656.107)" fill="#FFFFFF"/>
</g>
</g>
<g id="Topshit-2">
<g id="Shape">
<use xlink:href="#path5_fill" transform="translate(297.13 -668.512)" fill="#FFFFFF"/>
</g>
</g>
<g id="Head-2">
<g id="Shape">
<use xlink:href="#path6_fill" transform="translate(300.784 -683.022)" fill="#FFFFFF"/>
</g>
</g>
</g>
</g>
</g>
</g>
<defs>
<filter id="filter0_d" filterUnits="userSpaceOnUse" x="334" y="-659" width="77" height="30" color-interpolation-filters="sRGB">
<feFlood flood-opacity="0" result="BackgroundImageFix"/>
<feColorMatrix in="SourceAlpha" type="matrix" values="0 0 0 0 0 0 0 0 0 0 0 0 0 0 0 0 0 0 255 0"/>
<feOffset dx="0" dy="2"/>
<feGaussianBlur stdDeviation="2"/>
<feColorMatrix type="matrix" values="0 0 0 0 0 0 0 0 0 0 0 0 0 0 0 0 0 0 0.5 0"/>
<feBlend mode="normal" in2="BackgroundImageFix" result="effect1_dropShadow"/>
<feBlend mode="normal" in="SourceGraphic" in2="effect1_dropShadow" result="shape"/>
</filter>
<path id="path0_fill" d="M 1.694 6.336L 8.492 6.336C 10.1787 6.336 11.4913 6.74667 12.43 7.568C 13.3687 8.37467 13.838 9.482 13.838 10.89C 13.838 12.298 13.3613 13.4127 12.408 14.234C 11.4693 15.0553 10.164 15.466 8.492 15.466L 4.532 15.466L 4.532 22L 1.694 22L 1.694 6.336ZM 8.162 13.266C 9.14467 13.266 9.88533 13.068 10.384 12.672C 10.8973 12.2613 11.154 11.6747 11.154 10.912C 11.154 10.1347 10.9047 9.548 10.406 9.152C 9.90733 8.74133 9.15933 8.536 8.162 8.536L 4.532 8.536L 4.532 13.266L 8.162 13.266ZM 25.4641 16.588L 17.8081 16.588C 17.8668 17.776 18.1601 18.656 18.6881 19.228C 19.2308 19.7853 20.0301 20.064 21.0861 20.064C 22.3035 20.064 23.4328 19.668 24.4741 18.876L 25.2661 20.768C 24.7381 21.1933 24.0855 21.538 23.3081 21.802C 22.5455 22.0513 21.7681 22.176 20.9761 22.176C 19.1575 22.176 17.7275 21.6627 16.6861 20.636C 15.6448 19.6093 15.1241 18.2013 15.1241 16.412C 15.1241 15.2827 15.3515 14.278 15.8061 13.398C 16.2608 12.518 16.8988 11.836 17.7201 11.352C 18.5415 10.8533 19.4728 10.604 20.5141 10.604C 22.0395 10.604 23.2421 11.1027 24.1221 12.1C 25.0168 13.0827 25.4641 14.4393 25.4641 16.17L 25.4641 16.588ZM 20.5801 12.584C 19.8468 12.584 19.2455 12.804 18.7761 13.244C 18.3215 13.6693 18.0281 14.2927 17.8961 15.114L 23.0661 15.114C 22.9781 14.278 22.7215 13.6473 22.2961 13.222C 21.8855 12.7967 21.3135 12.584 20.5801 12.584ZM 32.8309 22.176C 31.7015 22.176 30.7042 21.9413 29.8389 21.472C 28.9882 21.0027 28.3282 20.3353 27.8589 19.47C 27.4042 18.59 27.1769 17.5633 27.1769 16.39C 27.1769 15.2167 27.4042 14.1973 27.8589 13.332C 28.3282 12.452 28.9882 11.7773 29.8389 11.308C 30.7042 10.8387 31.7015 10.604 32.8309 10.604C 33.9455 10.604 34.9282 10.8387 35.7789 11.308C 36.6295 11.7773 37.2822 12.452 37.7369 13.332C 38.2062 14.1973 38.4409 15.2167 38.4409 16.39C 38.4409 17.5633 38.2062 18.59 37.7369 19.47C 37.2822 20.3353 36.6295 21.0027 35.7789 21.472C 34.9282 21.9413 33.9455 22.176 32.8309 22.176ZM 32.8089 20.02C 33.7475 20.02 34.4589 19.7193 34.9429 19.118C 35.4415 18.502 35.6909 17.5927 35.6909 16.39C 35.6909 15.202 35.4415 14.3 34.9429 13.684C 34.4442 13.0533 33.7402 12.738 32.8309 12.738C 31.9069 12.738 31.1955 13.0533 30.6969 13.684C 30.1982 14.3 29.9489 15.202 29.9489 16.39C 29.9489 17.5927 30.1909 18.502 30.6749 19.118C 31.1735 19.7193 31.8849 20.02 32.8089 20.02ZM 47.1484 10.604C 48.1017 10.604 48.9451 10.8533 49.6784 11.352C 50.4264 11.836 51.0057 12.5253 51.4164 13.42C 51.8417 14.3 52.0544 15.312 52.0544 16.456C 52.0544 17.6 51.8491 18.6047 51.4384 19.47C 51.0277 20.3353 50.4484 21.0027 49.7004 21.472C 48.9671 21.9413 48.1164 22.176 47.1484 22.176C 46.3417 22.176 45.6231 22.0073 44.9924 21.67C 44.3617 21.318 43.8777 20.834 43.5404 20.218L 43.5404 26.752L 40.8124 26.752L 40.8124 14.036C 40.8124 12.8627 40.7537 11.814 40.6364 10.89L 43.2104 10.89L 43.4304 12.804C 43.7237 12.1147 44.2004 11.5793 44.8604 11.198C 45.5204 10.802 46.2831 10.604 47.1484 10.604ZM 46.4004 20.02C 47.3244 20.02 48.0357 19.712 48.5344 19.096C 49.0331 18.48 49.2824 17.6 49.2824 16.456C 49.2824 15.2973 49.0331 14.3953 48.5344 13.75C 48.0357 13.09 47.3317 12.76 46.4224 12.76C 45.4837 12.76 44.7651 13.0753 44.2664 13.706C 43.7677 14.3367 43.5184 15.2387 43.5184 16.412C 43.5184 17.5707 43.7677 18.4653 44.2664 19.096C 44.7651 19.712 45.4764 20.02 46.4004 20.02ZM 54.455 5.808L 57.183 5.808L 57.183 22L 54.455 22L 54.455 5.808ZM 69.9153 16.588L 62.2593 16.588C 62.318 17.776 62.6113 18.656 63.1393 19.228C 63.682 19.7853 64.4813 20.064 65.5373 20.064C 66.7546 20.064 67.884 19.668 68.9253 18.876L 69.7173 20.768C 69.1893 21.1933 68.5366 21.538 67.7593 21.802C 66.9966 22.0513 66.2193 22.176 65.4273 22.176C 63.6086 22.176 62.1786 21.6627 61.1373 20.636C 60.096 19.6093 59.5753 18.2013 59.5753 16.412C 59.5753 15.2827 59.8026 14.278 60.2573 13.398C 60.712 12.518 61.35 11.836 62.1713 11.352C 62.9926 10.8533 63.924 10.604 64.9653 10.604C 66.4906 10.604 67.6933 11.1027 68.5733 12.1C 69.468 13.0827 69.9153 14.4393 69.9153 16.17L 69.9153 16.588ZM 65.0313 12.584C 64.298 12.584 63.6966 12.804 63.2273 13.244C 62.7726 13.6693 62.4793 14.2927 62.3473 15.114L 67.5173 15.114C 67.4293 14.278 67.1726 13.6473 66.7473 13.222C 66.3366 12.7967 65.7646 12.584 65.0313 12.584Z"/>
<path id="path1_fill" d="M 27.4412 0L 27.4412 13.9857C 27.4349 14.6064 27.3923 15.2262 27.3135 15.842L 21.6269 17.8062L 21.6269 9.42857L 19.7412 9.42857L 19.7412 18.4839L 17.0992 19.4661C 16.5706 19.67 16.0769 19.9549 15.6358 20.3107L 13.7501 16.942L 11.8644 20.1339C 11.4842 19.8345 11.0557 19.602 10.5974 19.4464L 7.32691 18.2679L 7.32691 8.88839L 5.44119 8.88839L 5.44119 17.6098L 1.75816 16.3036L 0.0983369 15.7143C 0.030523 15.1406 -0.00227583 14.5634 0.000122582 13.9857L 0.000122582 0.00982143C 2.59389 2.84837 6.00514 4.81138 9.76262 5.62768C 10.411 5.7689 11.0668 5.87383 11.7269 5.94196C 12.3957 6.01275 13.0678 6.04881 13.7403 6.05C 13.9758 6.0647 14.212 6.0647 14.4474 6.05C 19.4167 5.86529 24.1013 3.68408 27.4412 0Z"/>
<path id="path2_fill" d="M 23.6009 3.63393C 22.3732 7.86696 18.042 11.0884 12.7384 11.4911C 12.3818 11.5109 12.0244 11.5109 11.6679 11.4911C 7.91098 11.5695 4.30027 10.0358 1.74821 7.27768C 0.991882 6.4316 0.39911 5.45253 0 4.39018C 0.791151 2.91991 1.84659 1.60811 3.11339 0.520536C 4.10788 2.23822 5.65559 3.56779 7.50357 4.29196C 8.78387 4.81731 10.1564 5.08112 11.5402 5.06786C 11.9405 5.06567 12.3404 5.04272 12.7384 4.99911C 15.9473 4.76889 18.7999 2.87094 20.2518 0C 20.7752 0.350129 21.2651 0.747957 21.7152 1.18839C 22.4359 1.92815 23.0687 2.74878 23.6009 3.63393L 23.6009 3.63393Z"/>
<path id="path3_fill" fill-rule="evenodd" d="M 8.15192 0.00494385C 6.9101 0.00665283 5.68472 0.288635 4.56708 0.829956C 1.77188 2.20117 0.000335693 5.04327 0.00012207 8.15674C -0.00363159 8.79999 0.078949 9.4408 0.245667 10.0621C 1.11896 13.7209 4.39029 16.3014 8.15192 16.2987C 11.13 16.4021 13.9272 14.8723 15.4468 12.3091C 16.9665 9.74591 16.9665 6.55774 15.4468 3.99451C 13.9272 1.43127 11.13 -0.0985107 8.15192 0.00494385ZM 4.53763 8.16656C 3.7457 8.16656 3.1037 7.5246 3.1037 6.7326C 3.1037 5.94067 3.7457 5.29871 4.53763 5.29871C 5.32956 5.29871 5.97156 5.94067 5.97156 6.7326C 5.97156 7.5246 5.32956 8.16656 4.53763 8.16656ZM 10.2144 6.7326C 10.2144 7.5246 10.8564 8.16656 11.6483 8.16656L 11.6483 8.15674C 12.4365 8.15674 13.0769 7.52075 13.0823 6.7326C 13.0823 5.94067 12.4403 5.29871 11.6483 5.29871C 10.8564 5.29871 10.2144 5.94067 10.2144 6.7326Z"/>
<path id="path4_fill" d="M 27.4805 3.48927e-15L 27.4805 13.9857C 27.4742 14.6064 27.4316 15.2262 27.3528 15.842L 21.6662 17.8062L 21.6662 9.42857L 19.7412 9.42857L 19.7412 18.4839L 17.0992 19.4661C 16.5706 19.67 16.0769 19.9549 15.6358 20.3107L 13.6716 16.9616L 11.8841 20.1339C 11.5038 19.8345 11.0754 19.602 10.6171 19.4464L 7.36619 18.2679L 7.36619 8.88839L 5.48048 8.88839L 5.48048 17.6098L 1.79744 16.3036L 0.0983369 15.7143C 0.030523 15.1406 -0.00227583 14.5634 0.000122582 13.9857L 0.000122582 0.00982143C 2.59389 2.84837 6.00514 4.81138 9.76262 5.62768C 10.411 5.7689 11.0668 5.87383 11.7269 5.94196C 12.3794 6.01108 13.035 6.04713 13.6912 6.05C 13.9267 6.0647 14.1629 6.0647 14.3983 6.05C 19.3986 5.8889 24.1195 3.70568 27.4805 0L 27.4805 3.48927e-15Z"/>
<path id="path5_fill" d="M 23.6009 3.65357C 22.3732 7.88661 18.042 11.108 12.7384 11.5107C 12.3818 11.5305 12.0244 11.5305 11.6679 11.5107C 7.90794 11.5841 4.29675 10.0431 1.74821 7.27768C 0.991882 6.4316 0.39911 5.45253 0 4.39018C 0.791151 2.91991 1.84659 1.60811 3.11339 0.520536C 4.10788 2.23822 5.65559 3.56779 7.50357 4.29196C 8.78387 4.81731 10.1564 5.08112 11.5402 5.06786C 11.9405 5.06567 12.3404 5.04272 12.7384 4.99911C 15.9473 4.76889 18.7999 2.87094 20.2518 0C 20.776 0.356351 21.266 0.760778 21.7152 1.20804C 22.4359 1.9478 23.0687 2.76843 23.6009 3.65357L 23.6009 3.65357Z"/>
<path id="path6_fill" fill-rule="evenodd" d="M 8.15192 0.00408936C 6.90015 0.00134277 5.66418 0.283447 4.53763 0.829102C 1.75388 2.20862 -0.00518799 5.04901 0.00012207 8.15588C -0.00363159 8.79913 0.078949 9.43994 0.245667 10.0612C 1.11469 13.7023 4.35953 16.2779 8.10281 16.2979C 11.0803 16.4098 13.8817 14.8884 15.4088 12.3299C 16.936 9.77142 16.9456 6.58362 15.4339 4.01593C 13.9222 1.4483 11.13 -0.0899658 8.15192 0.00408936ZM 4.53763 8.16571C 3.7457 8.16571 3.1037 7.52374 3.1037 6.73175C 3.1037 5.93982 3.7457 5.29785 4.53763 5.29785C 5.32956 5.29785 5.97156 5.93982 5.97156 6.73175C 5.97156 7.52374 5.32956 8.16571 4.53763 8.16571ZM 10.2144 6.73505C 10.2162 7.5257 10.8577 8.16571 11.6483 8.16571L 11.6483 8.15588C 12.0287 8.15588 12.3934 8.00482 12.6623 7.7359C 12.9312 7.46698 13.0823 7.10223 13.0823 6.72198C 13.0768 5.93134 12.4325 5.29425 11.6418 5.29785C 10.8512 5.30145 10.2126 5.9444 10.2144 6.73505Z"/>
</defs>
</svg>
