<svg width="142" height="57" viewBox="0 0 142 57" version="1.1" xmlns="http://www.w3.org/2000/svg" xmlns:xlink="http://www.w3.org/1999/xlink">
<title>Group 3</title>
<desc>Created using Figma</desc>
<g id="Canvas" transform="translate(-267 599)">
<g id="Group 3">
<g id="Group">
<g id="Planet">
<g id="Planet" filter="url(#filter0_d)">
<use xlink:href="#path0_fill" transform="translate(337 -571)" fill="#FFFFFF"/>
</g>
</g>
</g>
<g id="Planet">
<g id="Shape">
<use xlink:href="#path1_stroke" transform="translate(268 -597.999)" fill="#FFFFFF"/>
</g>
<g id="Shape">
<use xlink:href="#path2_fill" transform="translate(268.107 -592.261)" fill="#FFFFFF"/>
<use xlink:href="#path3_stroke" transform="translate(268.107 -592.261)" fill="#FFFFFF"/>
</g>
<g id="Shape">
<use xlink:href="#path4_fill" transform="translate(304.69 -576.119)" fill="#FFFFFF"/>
<use xlink:href="#path5_stroke" transform="translate(304.69 -576.119)" fill="#FFFFFF"/>
</g>
<g id="Shape">
<use xlink:href="#path6_fill" transform="translate(300.085 -596.099)" fill="#FFFFFF"/>
<use xlink:href="#path7_stroke" transform="translate(300.085 -596.099)" fill="#FFFFFF"/>
</g>
</g>
</g>
</g>
<defs>
<filter id="filter0_d" filterUnits="userSpaceOnUse" x="334" y="-568" width="75" height="26" color-interpolation-filters="sRGB">
<feFlood flood-opacity="0" result="BackgroundImageFix"/>
<feColorMatrix in="SourceAlpha" type="matrix" values="0 0 0 0 0 0 0 0 0 0 0 0 0 0 0 0 0 0 255 0"/>
<feOffset dx="0" dy="2"/>
<feGaussianBlur stdDeviation="2"/>
<feColorMatrix type="matrix" values="0 0 0 0 0 0 0 0 0 0 0 0 0 0 0 0 0 0 0.5 0"/>
<feBlend mode="normal" in2="BackgroundImageFix" result="effect1_dropShadow"/>
<feBlend mode="normal" in="SourceGraphic" in2="effect1_dropShadow" result="shape"/>
</filter>
<path id="path0_fill" d="M 1.694 6.336L 8.492 6.336C 10.1787 6.336 11.4913 6.74667 12.43 7.568C 13.3687 8.37467 13.838 9.482 13.838 10.89C 13.838 12.298 13.3613 13.4127 12.408 14.234C 11.4693 15.0553 10.164 15.466 8.492 15.466L 4.532 15.466L 4.532 22L 1.694 22L 1.694 6.336ZM 8.162 13.266C 9.14467 13.266 9.88533 13.068 10.384 12.672C 10.8973 12.2613 11.154 11.6747 11.154 10.912C 11.154 10.1347 10.9047 9.548 10.406 9.152C 9.90733 8.74133 9.15933 8.536 8.162 8.536L 4.532 8.536L 4.532 13.266L 8.162 13.266ZM 16.1483 5.808L 18.8763 5.808L 18.8763 22L 16.1483 22L 16.1483 5.808ZM 32.5107 10.89L 32.5107 22L 29.8047 22L 29.8047 20.218C 29.4673 20.834 28.9833 21.318 28.3527 21.67C 27.722 22.0073 27.0033 22.176 26.1967 22.176C 25.2287 22.176 24.3707 21.9413 23.6227 21.472C 22.8747 21.0027 22.2953 20.3353 21.8847 19.47C 21.474 18.6047 21.2687 17.6 21.2687 16.456C 21.2687 15.312 21.474 14.3 21.8847 13.42C 22.31 12.5253 22.8967 11.836 23.6447 11.352C 24.3927 10.8533 25.2433 10.604 26.1967 10.604C 27.0033 10.604 27.722 10.78 28.3527 11.132C 28.9833 11.4693 29.4673 11.946 29.8047 12.562L 29.8047 10.89L 32.5107 10.89ZM 26.9447 20.02C 27.854 20.02 28.558 19.7047 29.0567 19.074C 29.5553 18.4433 29.8047 17.556 29.8047 16.412C 29.8047 15.2387 29.5553 14.3367 29.0567 13.706C 28.558 13.0753 27.8467 12.76 26.9227 12.76C 26.0133 12.76 25.302 13.09 24.7887 13.75C 24.29 14.3953 24.0407 15.2973 24.0407 16.456C 24.0407 17.6 24.29 18.48 24.7887 19.096C 25.302 19.712 26.0207 20.02 26.9447 20.02ZM 41.8638 10.604C 44.5184 10.604 45.8458 12.1293 45.8458 15.18L 45.8458 22L 43.0958 22L 43.0958 15.312C 43.0958 14.432 42.9271 13.794 42.5898 13.398C 42.2524 12.9873 41.7318 12.782 41.0278 12.782C 40.1918 12.782 39.5171 13.0533 39.0038 13.596C 38.4904 14.124 38.2338 14.828 38.2338 15.708L 38.2338 22L 35.5058 22L 35.5058 14.036C 35.5058 12.8627 35.4471 11.814 35.3298 10.89L 37.9038 10.89L 38.1018 12.716C 38.4831 12.0413 38.9964 11.5207 39.6418 11.154C 40.3018 10.7873 41.0424 10.604 41.8638 10.604ZM 58.4856 16.588L 50.8296 16.588C 50.8883 17.776 51.1816 18.656 51.7096 19.228C 52.2523 19.7853 53.0516 20.064 54.1076 20.064C 55.325 20.064 56.4543 19.668 57.4956 18.876L 58.2876 20.768C 57.7596 21.1933 57.107 21.538 56.3296 21.802C 55.567 22.0513 54.7896 22.176 53.9976 22.176C 52.179 22.176 50.749 21.6627 49.7076 20.636C 48.6663 19.6093 48.1456 18.2013 48.1456 16.412C 48.1456 15.2827 48.373 14.278 48.8276 13.398C 49.2823 12.518 49.9203 11.836 50.7416 11.352C 51.563 10.8533 52.4943 10.604 53.5356 10.604C 55.061 10.604 56.2636 11.1027 57.1436 12.1C 58.0383 13.0827 58.4856 14.4393 58.4856 16.17L 58.4856 16.588ZM 53.6016 12.584C 52.8683 12.584 52.267 12.804 51.7976 13.244C 51.343 13.6693 51.0496 14.2927 50.9176 15.114L 56.0876 15.114C 55.9996 14.278 55.743 13.6473 55.3176 13.222C 54.907 12.7967 54.335 12.584 53.6016 12.584ZM 64.162 12.958L 64.162 17.93C 64.162 19.2353 64.7706 19.888 65.988 19.888C 66.3253 19.888 66.692 19.8293 67.088 19.712L 67.088 21.89C 66.604 22.066 66.0173 22.154 65.328 22.154C 64.0666 22.154 63.0986 21.802 62.424 21.098C 61.7493 20.394 61.412 19.382 61.412 18.062L 61.412 12.958L 59.278 12.958L 59.278 10.89L 61.412 10.89L 61.412 8.184L 64.162 7.26L 64.162 10.89L 67.11 10.89L 67.11 12.958L 64.162 12.958Z"/>
<path id="path1_stroke" d="M 54.2467 27.1281L 55.2466 27.1445L 55.2467 27.1363L 55.2467 27.1281L 54.2467 27.1281ZM 4.12385e-06 27.3552L -0.999996 27.3552L -0.999996 27.3676L -0.999689 27.38L 4.12385e-06 27.3552ZM 4.12385e-06 27.1281L 1 27.1281L 1 27.1275L 4.12385e-06 27.1281ZM 54.2467 26.5661L 55.2467 26.5661L 55.2467 26.5557L 55.2465 26.5453L 54.2467 26.5661ZM 53.2469 27.1117C 53.0139 41.3311 41.4517 52.7532 27.2305 52.8127L 27.2388 54.8127C 42.5486 54.7486 54.9958 42.4523 55.2466 27.1445L 53.2469 27.1117ZM 27.2305 52.8127C 13.0092 52.8723 1.35178 41.5475 0.999698 27.3305L -0.999689 27.38C -0.62066 42.6852 11.9291 54.8768 27.2388 54.8127L 27.2305 52.8127ZM 1 27.3552L 1 27.1281L -0.999996 27.1281L -0.999996 27.3552L 1 27.3552ZM 1 27.1275C 0.995569 19.0778 4.705 11.4763 11.053 6.52645L 9.82314 4.94926C 2.98885 10.2783 -1.00477 18.4622 -0.999996 27.1286L 1 27.1275ZM 11.0531 6.52636C 18.8501 0.444798 29.4122 -0.714324 38.3426 3.53151L 39.2014 1.72527C 29.5874 -2.84556 18.2169 -1.59772 9.82302 4.94934L 11.0531 6.52636ZM 38.3426 3.53151C 47.273 7.77735 53.0416 16.7007 53.247 26.5869L 55.2465 26.5453C 55.0254 15.9024 48.8153 6.29609 39.2014 1.72527L 38.3426 3.53151ZM 53.2467 26.5661L 53.2467 27.1281L 55.2467 27.1281L 55.2467 26.5661L 53.2467 26.5661Z"/>
<path id="path2_fill" d="M 28.2654 36.9696C 27.8737 37.5576 27.762 38.2887 27.9604 38.9668C 28.1587 39.6449 28.6468 40.2006 29.2937 40.4848C 29.2937 40.4848 33.7415 45.0402 24.7502 44.6935C 24.7502 44.6935 19.86 41.2859 20.9958 38.213C 22.1317 35.1402 17.4089 36.5033 17.4089 36.5033C 17.4089 36.5033 13.535 36.9696 14.4556 31.1587C 15.3763 25.3478 4.78279 23.8772 4.78279 23.8772C 3.09448 23.3417 1.48586 22.5817 0.000181754 21.6174L 0.000181754 21.3902C -0.0303206 13.0506 3.77988 5.1612 10.3306 0L 10.3306 0C 10.3306 0 16.3089 4.69891 15.9741 8.26196C 15.6393 11.825 12.4589 9.88804 12.4589 9.88804C 12.4589 9.88804 11.1197 15.0174 7.18605 14.6707C 7.18605 14.6707 2.40344 16.5957 12.4589 19.2141C 12.4589 19.2141 21.785 18.3174 21.785 22.5141C 21.785 22.5141 23.4828 27.5239 28.1458 23.088C 28.1458 23.088 33.8371 21.1511 34.1241 30.0228C 34.1839 30.0228 33.9687 34.0043 28.2654 36.9696Z"/>
<path id="path3_stroke" d="M 28.2654 36.9696L 28.0693 36.5925L 27.9723 36.6429L 27.9117 36.7339L 28.2654 36.9696ZM 29.2937 40.4848L 29.5977 40.1879L 29.5401 40.1289L 29.4646 40.0957L 29.2937 40.4848ZM 24.7502 44.6935L 24.5072 45.0422L 24.6094 45.1134L 24.7338 45.1182L 24.7502 44.6935ZM 17.4089 36.5033L 17.4597 36.9252L 17.4937 36.9211L 17.5267 36.9116L 17.4089 36.5033ZM 4.78279 23.8772L 4.65431 24.2823L 4.68866 24.2932L 4.72435 24.2981L 4.78279 23.8772ZM 0.000181754 21.6174L -0.424818 21.6174L -0.424818 21.8482L -0.231201 21.9739L 0.000181754 21.6174ZM 0.000181754 21.3902L 0.425185 21.3902L 0.425179 21.3887L 0.000181754 21.3902ZM 12.4589 9.88804L 12.6799 9.52506L 12.192 9.22788L 12.0477 9.78069L 12.4589 9.88804ZM 7.18605 14.6707L 7.22337 14.2473L 7.12188 14.2383L 7.02736 14.2764L 7.18605 14.6707ZM 12.4589 19.2141L 12.3518 19.6254L 12.4246 19.6444L 12.4996 19.6372L 12.4589 19.2141ZM 21.785 22.5141L 21.36 22.5141L 21.36 22.5842L 21.3825 22.6505L 21.785 22.5141ZM 28.1458 23.088L 28.0089 22.6857L 27.9205 22.7158L 27.8529 22.7801L 28.1458 23.088ZM 34.1241 30.0228L 33.6993 30.0366L 33.7126 30.4478L 34.1241 30.4478L 34.1241 30.0228ZM 27.9117 36.7339C 27.4503 37.4264 27.3188 38.2875 27.5524 39.0861L 28.3683 38.8475C 28.2051 38.2899 28.297 37.6887 28.6191 37.2052L 27.9117 36.7339ZM 27.5524 39.0861C 27.7861 39.8848 28.3609 40.5392 29.1227 40.8739L 29.4646 40.0957C 28.9327 39.862 28.5314 39.4051 28.3683 38.8475L 27.5524 39.0861ZM 29.2937 40.4848C 28.9896 40.7817 28.9894 40.7816 28.9893 40.7815C 28.9893 40.7814 28.9892 40.7813 28.9892 40.7813C 28.9892 40.7813 28.9892 40.7813 28.9892 40.7813C 28.9896 40.7817 28.9898 40.7819 28.9905 40.7826C 28.9922 40.7844 28.9941 40.7864 28.9974 40.7899C 29.0047 40.7976 29.0141 40.8076 29.0275 40.8224C 29.0561 40.8537 29.0937 40.8959 29.1418 40.9532C 29.2414 41.0717 29.3647 41.2283 29.4927 41.4242C 29.7564 41.8263 29.9732 42.2965 29.9687 42.7145C 29.9648 43.0709 29.8005 43.4724 29.0801 43.7941C 28.3229 44.1321 26.9942 44.3547 24.7666 44.2688L 24.7338 45.1182C 27.0018 45.2056 28.4889 44.9888 29.4266 44.5702C 30.4009 44.1352 30.8106 43.463 30.8186 42.7238C 30.826 42.0463 30.4928 41.3993 30.2035 40.9581C 30.0551 40.7324 29.9012 40.5358 29.7926 40.4065C 29.7367 40.3399 29.6875 40.2846 29.6553 40.2493C 29.6384 40.2308 29.6239 40.2153 29.6149 40.2058C 29.6101 40.2007 29.6057 40.1962 29.6032 40.1936C 29.6018 40.1921 29.6004 40.1906 29.5997 40.1899C 29.5992 40.1894 29.5987 40.1889 29.5985 40.1887C 29.5984 40.1885 29.5982 40.1883 29.5981 40.1882C 29.5979 40.188 29.5977 40.1879 29.2937 40.4848ZM 24.7502 44.6935C 24.9932 44.3448 24.9932 44.3448 24.9933 44.3449C 24.9933 44.3449 24.9933 44.3449 24.9933 44.3449C 24.9932 44.3448 24.9932 44.3448 24.993 44.3447C 24.9925 44.3443 24.992 44.344 24.9911 44.3433C 24.989 44.3419 24.9862 44.3399 24.9821 44.337C 24.9734 44.3308 24.9613 44.3222 24.9446 44.3101C 24.9102 44.2852 24.8616 44.2496 24.7982 44.2017C 24.6692 44.1045 24.4908 43.9658 24.276 43.7866C 23.842 43.4248 23.2906 42.9258 22.767 42.3258C 22.2407 41.7247 21.7756 41.071 21.4982 40.365C 21.2257 39.6794 21.1571 39.0024 21.3945 38.3604L 20.5972 38.0657C 20.2666 38.9601 20.3834 39.8614 20.7083 40.6789C 21.0284 41.4761 21.5728 42.2504 22.1271 42.8853C 22.6841 43.5214 23.2843 44.0663 23.7317 44.4394C 23.9576 44.6278 24.1524 44.7793 24.2864 44.8804C 24.3544 44.9317 24.4098 44.9723 24.4464 44.9988C 24.4653 45.0124 24.4805 45.0233 24.4902 45.0302C 24.4953 45.0338 24.4996 45.0368 24.5022 45.0387C 24.5036 45.0397 24.5049 45.0405 24.5056 45.041C 24.506 45.0413 24.5064 45.0416 24.5066 45.0418C 24.5068 45.0419 24.5069 45.042 24.507 45.042C 24.5071 45.0421 24.5072 45.0422 24.7502 44.6935ZM 21.3945 38.3604C 21.7042 37.5224 21.6663 36.8338 21.2258 36.3601C 20.8226 35.9265 20.1896 35.8039 19.646 35.7812C 19.0895 35.7596 18.4866 35.8389 18.0507 35.9206C 17.8299 35.9621 17.6382 36.0059 17.5079 36.038C 17.4415 36.0544 17.3869 36.0687 17.3512 36.0783C 17.3327 36.0833 17.3176 36.0874 17.3081 36.0901C 17.303 36.0915 17.2988 36.0927 17.2962 36.0935C 17.2948 36.0939 17.2935 36.0942 17.2928 36.0944C 17.2923 36.0946 17.2919 36.0947 17.2917 36.0947C 17.2915 36.0948 17.2914 36.0948 17.2913 36.0949C 17.2912 36.0949 17.291 36.0949 17.4089 36.5033C 17.5267 36.9116 17.5266 36.9116 17.5266 36.9116C 17.5266 36.9116 17.5265 36.9117 17.5265 36.9117C 17.5264 36.9117 17.5266 36.9116 17.5267 36.9116C 17.5271 36.9115 17.5276 36.9114 17.5284 36.9111C 17.5304 36.9106 17.5328 36.9099 17.5367 36.9088C 17.545 36.9065 17.5562 36.9034 17.5721 36.8991C 17.605 36.8902 17.6508 36.8782 17.7113 36.8634C 17.8348 36.8329 18.0032 36.7943 18.2075 36.756C 18.6215 36.6781 19.1284 36.6087 19.6106 36.6305C 20.1057 36.6511 20.4405 36.7639 20.6034 36.939C 20.7289 37.074 20.8554 37.3673 20.5972 38.0657L 21.3945 38.3604ZM 17.4089 36.5033C 17.3581 36.0813 17.3584 36.0813 17.3586 36.0812C 17.3587 36.0812 17.359 36.0812 17.3591 36.0812C 17.359 36.0812 17.36 36.0811 17.3598 36.0811C 17.3599 36.0811 17.3603 36.0811 17.3602 36.0811C 17.3591 36.0812 17.3589 36.0812 17.357 36.0814C 17.3514 36.0819 17.346 36.0824 17.3355 36.0831C 17.3112 36.0849 17.2822 36.0865 17.2385 36.087C 17.1437 36.0884 17.0273 36.0853 16.8748 36.0641C 16.5533 36.0217 16.1956 35.9309 15.8341 35.6643C 15.1629 35.1847 14.4286 34.045 14.8754 31.2252L 14.0359 31.0922C 13.562 34.0832 14.3043 35.6159 15.3399 36.3559C 15.8318 36.699 16.385 36.8548 16.7611 36.9065C 16.9574 36.9324 17.1365 36.9383 17.2499 36.9369C 17.3103 36.936 17.3637 36.9333 17.3957 36.931C 17.4134 36.9297 17.4296 36.9283 17.4386 36.9275C 17.444 36.9269 17.4493 36.9264 17.452 36.9261C 17.4537 36.9259 17.4557 36.9257 17.4565 36.9256C 17.4572 36.9255 17.458 36.9254 17.4583 36.9254C 17.4586 36.9253 17.4589 36.9253 17.459 36.9253C 17.4594 36.9253 17.4597 36.9252 17.4089 36.5033ZM 14.8754 31.2252C 15.1291 29.6235 14.5816 28.317 13.6479 27.2844C 12.7375 26.285 11.4235 25.5069 10.1329 24.9487C 8.84006 24.3914 7.50845 24.0149 6.52033 23.7839C 6.02337 23.6679 5.60226 23.5855 5.31111 23.5334C 5.16419 23.5071 5.04645 23.4877 4.96769 23.4753C 4.92766 23.469 4.89599 23.4642 4.87532 23.4611C 4.86468 23.4596 4.85614 23.4583 4.85074 23.4576C 4.84789 23.4572 4.84551 23.4568 4.84407 23.4566C 4.84328 23.4565 4.84257 23.4564 4.84217 23.4563C 4.84193 23.4563 4.8417 23.4563 4.84158 23.4563C 4.84138 23.4562 4.84123 23.4562 4.78279 23.8772C 4.72435 24.2981 4.72428 24.2981 4.72424 24.2981C 4.72429 24.2981 4.72429 24.2981 4.72438 24.2981C 4.72463 24.2982 4.72488 24.2982 4.72537 24.2983C 4.7265 24.2984 4.72795 24.2986 4.73019 24.299C 4.73496 24.2997 4.74161 24.3006 4.75098 24.302C 4.77035 24.3049 4.79804 24.309 4.83539 24.3149C 4.91135 24.3269 5.02031 24.3448 5.16125 24.3701C 5.44583 24.421 5.84515 24.499 6.32695 24.6116C 7.29633 24.838 8.55555 25.1923 9.79595 25.729C 11.0387 26.2648 12.2005 26.9439 13.0174 27.8546C 13.811 28.7321 14.2424 29.7884 14.0359 31.0922L 14.8754 31.2252ZM 4.91127 23.4721C 3.24985 22.9462 1.6928 22.2105 0.231564 21.2609L -0.231201 21.9739C 1.27892 22.9529 2.93911 23.7373 4.65431 24.2823L 4.91127 23.4721ZM 0.425182 21.6174L 0.425182 21.3902L -0.424818 21.3902L -0.424818 21.6174L 0.425182 21.6174ZM 0.425179 21.3887C 0.395155 13.1798 4.14561 5.41411 10.5936 0.333834L 10.0676 -0.333834C 3.41415 4.90829 -0.455796 12.9214 -0.424815 21.3918L 0.425179 21.3887ZM 10.3306 0C 10.068 0.334139 10.0679 0.334106 10.0679 0.334091C 10.0679 0.33411 10.068 0.334112 10.068 0.33415C 10.0681 0.334259 10.0683 0.334371 10.0686 0.334587C 10.0692 0.335089 10.07 0.335737 10.0713 0.336734C 10.074 0.338866 10.0777 0.341837 10.083 0.346052C 10.0939 0.35476 10.1096 0.367277 10.1307 0.384317C 10.1736 0.418975 10.2353 0.469218 10.315 0.53559C 10.4761 0.669561 10.7026 0.862135 10.9763 1.10677C 11.5269 1.59875 12.2469 2.28108 12.9615 3.07857C 13.678 3.8773 14.3646 4.75915 14.8604 5.67132C 15.3555 6.5793 15.6233 7.4523 15.551 8.2222L 16.3972 8.30171C 16.4923 7.29009 16.1384 6.23959 15.6067 5.26442C 15.0757 4.29343 14.3305 3.33248 13.5943 2.51111C 12.8562 1.68848 12.1026 0.973397 11.5427 0.472983C 11.2612 0.221425 11.0232 0.0190603 10.8586 -0.117859C 10.7756 -0.186932 10.7091 -0.241122 10.6647 -0.277036C 10.6421 -0.295281 10.6242 -0.309584 10.6125 -0.318875C 10.6065 -0.32366 10.6017 -0.327483 10.5986 -0.329895C 10.597 -0.33117 10.5957 -0.332233 10.5949 -0.332872C 10.5944 -0.333226 10.594 -0.333543 10.5938 -0.33372C 10.5936 -0.333826 10.5935 -0.333931 10.5934 -0.333984C 10.5933 -0.33407 10.5933 -0.334139 10.3306 0ZM 15.551 8.2222C 15.4729 9.05284 15.2361 9.48407 14.995 9.70725C 14.7584 9.92612 14.4549 10.0026 14.1107 9.9866C 13.7478 9.97345 13.4109 9.86196 13.124 9.74248C 12.9847 9.68491 12.8764 9.63146 12.7938 9.58803C 12.7544 9.56737 12.7264 9.55183 12.705 9.53965C 12.6953 9.53407 12.6891 9.53047 12.684 9.52744C 12.6818 9.52618 12.6808 9.5256 12.6797 9.52494C 12.6794 9.52474 12.6791 9.52456 12.6793 9.52466C 12.6793 9.52465 12.6795 9.52478 12.6795 9.52478C 12.6795 9.52481 12.6796 9.52488 12.6797 9.5249C 12.6798 9.52498 12.6799 9.52506 12.4589 9.88804C 12.2378 10.251 12.238 10.2511 12.2382 10.2512C 12.2382 10.2513 12.2384 10.2514 12.2386 10.2515C 12.2388 10.2516 12.2392 10.2519 12.2396 10.2521C 12.2402 10.2525 12.2414 10.2532 12.2426 10.2539C 12.2446 10.2551 12.2482 10.2572 12.2521 10.2595C 12.259 10.2636 12.2707 10.2705 12.2843 10.2782C 12.3097 10.2927 12.3504 10.3152 12.3986 10.3406C 12.4912 10.3892 12.634 10.4592 12.7981 10.5276C 13.118 10.6599 13.5971 10.81 14.0712 10.8357C 14.5639 10.8586 15.1183 10.7512 15.5723 10.3311C 16.0216 9.91539 16.3079 9.2526 16.3972 8.30171L 15.551 8.2222ZM 12.4589 9.88804C 12.0477 9.78069 12.0477 9.78056 12.0477 9.78045C 12.0477 9.78044 12.0477 9.78035 12.0478 9.78033C 12.0478 9.78027 12.0478 9.78032 12.0477 9.78043C 12.0476 9.78085 12.0475 9.78118 12.0473 9.78201C 12.0468 9.78407 12.0461 9.78651 12.045 9.79054C 12.0426 9.79939 12.0393 9.8112 12.0344 9.82821C 12.0242 9.8639 12.0095 9.91322 11.9886 9.9792C 11.9456 10.1146 11.8826 10.3001 11.7927 10.5285C 11.6102 10.9928 11.3399 11.5824 10.944 12.1735C 10.1557 13.3553 8.96503 14.4008 7.22337 14.2473L 7.14873 15.094C 9.34077 15.2872 10.7865 13.9414 11.6512 12.6452C 12.0818 11.9973 12.3921 11.3263 12.5837 10.8396C 12.6807 10.5926 12.7531 10.3801 12.7987 10.2363C 12.8221 10.1627 12.8401 10.1022 12.8514 10.0629C 12.8572 10.0424 12.862 10.0255 12.8648 10.015C 12.8664 10.0093 12.8677 10.0044 12.8685 10.0015C 12.8689 9.99988 12.8693 9.99834 12.8695 9.99752C 12.8697 9.99701 12.8698 9.99648 12.8699 9.99623C 12.8699 9.99605 12.87 9.99584 12.87 9.99575C 12.8701 9.99557 12.8701 9.9954 12.4589 9.88804ZM 7.18605 14.6707C 7.02736 14.2764 7.02711 14.2765 7.02684 14.2766C 7.02673 14.2766 7.02644 14.2768 7.02621 14.2769C 7.02591 14.277 7.02522 14.2773 7.02462 14.2775C 7.02373 14.2779 7.02191 14.2786 7.02014 14.2793C 7.01722 14.2806 7.01187 14.2828 7.00615 14.2852C 6.99601 14.2895 6.97884 14.297 6.9596 14.3057C 6.92383 14.3219 6.86695 14.3488 6.80422 14.3814C 6.68454 14.4437 6.50598 14.5479 6.3387 14.674C 6.02317 14.9138 5.57991 15.3595 5.62789 15.9926C 5.6756 16.622 6.19257 17.2064 7.1829 17.7691C 8.19635 18.3449 9.82462 18.9673 12.3518 19.6254L 12.566 18.8028C 10.0654 18.1517 8.52072 17.5516 7.60282 17.03C 6.66181 16.4953 6.48903 16.1074 6.47546 15.9283C 6.46216 15.7529 6.58609 15.5536 6.85307 15.3507C 6.97704 15.2554 7.09357 15.1888 7.19616 15.1356C 7.24456 15.1104 7.28062 15.0934 7.30999 15.0801C 7.32333 15.0741 7.33178 15.0704 7.33913 15.0673C 7.34215 15.066 7.3435 15.0654 7.34511 15.0648C 7.34559 15.0646 7.346 15.0644 7.34575 15.0645C 7.34577 15.0645 7.34544 15.0646 7.34545 15.0646C 7.34537 15.0647 7.34519 15.0647 7.34515 15.0647C 7.34496 15.0648 7.34474 15.0649 7.18605 14.6707ZM 12.4589 19.2141C 12.4996 19.6372 12.4995 19.6372 12.4995 19.6372C 12.4995 19.6372 12.4995 19.6372 12.4996 19.6372C 12.4998 19.6372 12.5001 19.6371 12.5005 19.6371C 12.5015 19.637 12.5028 19.6369 12.5048 19.6367C 12.509 19.6363 12.515 19.6358 12.5233 19.635C 12.5404 19.6335 12.5649 19.6314 12.598 19.6287C 12.6651 19.6232 12.7617 19.6159 12.8868 19.6079C 13.139 19.5918 13.4943 19.5736 13.9251 19.5645C 14.7914 19.5461 15.9255 19.564 17.0676 19.7119C 18.2106 19.8585 19.2955 20.1165 20.1149 20.5958C 20.9009 21.0508 21.36 21.6605 21.36 22.5141L 22.21 22.5141C 22.21 21.2694 21.5033 20.4174 20.5407 19.8602C 19.6114 19.3273 18.3648 19.0226 17.1762 18.8688C 15.9868 18.7163 14.7894 18.6961 13.9071 18.7147C 13.4636 18.7241 13.0902 18.7432 12.8325 18.7597C 12.7025 18.768 12.5987 18.7758 12.5292 18.7815C 12.494 18.7843 12.4662 18.7867 12.448 18.7884C 12.4387 18.7892 12.4312 18.7899 12.4265 18.7903C 12.424 18.7905 12.4219 18.7907 12.4206 18.7908C 12.42 18.7909 12.4193 18.791 12.419 18.791C 12.4188 18.791 12.4186 18.791 12.4185 18.7911C 12.4183 18.7911 12.4182 18.7911 12.4589 19.2141ZM 21.785 22.5141C 21.3825 22.6505 21.3825 22.6508 21.3826 22.651C 21.3827 22.6511 21.3827 22.6514 21.3828 22.6516C 21.3829 22.6519 21.3832 22.6526 21.3834 22.6532C 21.3837 22.6541 21.3843 22.6559 21.3849 22.6577C 21.386 22.6607 21.3879 22.6661 21.39 22.672C 21.3938 22.6826 21.4003 22.7003 21.408 22.7207C 21.4227 22.7591 21.4467 22.8194 21.477 22.8895C 21.5355 23.0245 21.6309 23.2252 21.7554 23.4407C 21.9995 23.8606 22.4167 24.4202 22.9747 24.8139C 23.5608 25.22 24.3243 25.465 25.2637 25.2873C 26.1877 25.1126 27.2392 24.537 28.4388 23.396L 27.8529 22.7801C 26.7209 23.857 25.8115 24.3187 25.1057 24.4522C 24.4153 24.5827 23.88 24.4071 23.4588 24.1152C 23.0095 23.811 22.7108 23.3953 22.4908 23.0145C 22.3833 22.8297 22.3097 22.6736 22.2571 22.5519C 22.2318 22.4937 22.2148 22.4508 22.2023 22.4179C 22.1965 22.4027 22.1929 22.3928 22.19 22.3847C 22.1887 22.3813 22.1881 22.3796 22.1875 22.3778C 22.1873 22.3772 22.1873 22.3772 22.1872 22.3769C 22.1872 22.3769 22.1873 22.3771 22.1873 22.3771C 22.1873 22.3771 22.1873 22.3773 22.1873 22.3773C 22.1874 22.3775 22.1875 22.3777 21.785 22.5141ZM 28.1458 23.088C 28.2828 23.4904 28.2825 23.4905 28.2823 23.4905C 28.2822 23.4906 28.282 23.4906 28.2819 23.4907C 28.2819 23.4907 28.2815 23.4908 28.2816 23.4908C 28.2812 23.4909 28.2818 23.4907 28.2824 23.4905C 28.2843 23.4899 28.286 23.4893 28.2898 23.4881C 28.299 23.4852 28.3099 23.4819 28.3274 23.4769C 28.3655 23.4659 28.4153 23.4524 28.4855 23.4365C 28.6328 23.4028 28.8259 23.3669 29.0734 23.3477C 29.5842 23.306 30.2025 23.3303 30.86 23.6192C 32.1074 24.1534 33.5587 25.6892 33.6993 30.0366L 34.5489 30.0091C 34.4025 25.4847 32.8647 23.5531 31.1947 22.8379C 30.3935 22.502 29.571 22.4561 29.0058 22.5004C 28.7152 22.5241 28.4615 22.5702 28.2964 22.6078C 28.2104 22.6275 28.1376 22.647 28.0922 22.66C 28.0679 22.6671 28.0469 22.6735 28.0345 22.6774C 28.0275 22.6796 28.0211 22.6817 28.0176 22.6828C 28.0154 22.6835 28.0133 22.6842 28.0122 22.6846C 28.0115 22.6848 28.0106 22.6851 28.0103 22.6852C 28.01 22.6853 28.0097 22.6854 28.0095 22.6855C 28.0092 22.6856 28.0089 22.6857 28.1458 23.088ZM 34.1241 30.4478C 33.9617 30.4478 33.8558 30.3597 33.8082 30.3063C 33.7627 30.2553 33.7411 30.2058 33.7328 30.1853C 33.715 30.1414 33.7097 30.1059 33.7087 30.0989C 33.7053 30.0772 33.7058 30.0654 33.7058 30.0727C 33.7062 30.0906 33.7052 30.1118 33.7005 30.158C 33.6905 30.2611 33.6694 30.3993 33.6227 30.5919C 33.5267 30.993 33.3469 31.5292 32.9844 32.1778C 32.2672 33.4682 30.8499 35.1469 28.0693 36.5925L 28.4614 37.3466C 31.3842 35.8271 32.9261 34.0323 33.7274 32.5907C 34.1242 31.8732 34.3434 31.2287 34.4491 30.7906C 34.5033 30.5636 34.5338 30.3676 34.5464 30.2414C 34.553 30.173 34.5561 30.1057 34.5558 30.0638C 34.5553 30.0372 34.5524 29.9957 34.5488 29.9698C 34.5451 29.9484 34.5321 29.8978 34.5206 29.8661C 34.5088 29.8395 34.4712 29.7763 34.4427 29.7408C 34.3943 29.6864 34.2874 29.5978 34.1241 29.5978L 34.1241 30.4478Z"/>
<path id="path4_fill" d="M 17.5563 5.24831C 17.5725 11.7094 15.2638 17.9607 11.052 22.8603C 7.46503 22.6211 4.21286 21.3179 6.92699 16.882C 12.0205 8.64396 7.46503 9.86353 7.46503 9.86353C -0.42627 13.1994 0.00416438 7.32874 0.00416438 7.32874C 0.00416438 -5.0343 5.34873 1.98418 5.34873 1.98418C 9.9759 6.61135 14.4716 6.0494 17.5563 4.66244L 17.5563 5.24831Z"/>
<path id="path5_stroke" d="M 17.5563 5.24831L 17.1313 5.24831L 17.1313 5.24937L 17.5563 5.24831ZM 11.052 22.8603L 11.0237 23.2843L 11.2358 23.2985L 11.3743 23.1373L 11.052 22.8603ZM 6.92699 16.882L 6.5655 16.6585L 6.56447 16.6602L 6.92699 16.882ZM 7.46503 9.86353L 7.35513 9.45298L 7.32668 9.4606L 7.29955 9.47207L 7.46503 9.86353ZM 0.00416438 7.32874L 0.428027 7.35982L 0.429164 7.3443L 0.429164 7.32874L 0.00416438 7.32874ZM 5.34873 1.98418L 5.01061 2.24166L 5.02796 2.26445L 5.04821 2.2847L 5.34873 1.98418ZM 17.5563 4.66244L 17.9813 4.66244L 17.9813 4.00537L 17.3821 4.27482L 17.5563 4.66244ZM 17.1313 5.24937C 17.154 11.6351 14.8975 17.7451 10.7297 22.5832L 11.3743 23.1373C 15.6301 18.1762 17.991 11.7836 17.9813 5.24725L 17.1313 5.24937ZM 11.0803 22.4362C 9.2908 22.3169 7.72671 21.9336 6.92514 21.1424C 6.54575 20.768 6.32952 20.2947 6.34692 19.6656C 6.36482 19.0183 6.63181 18.1787 7.28951 17.1038L 6.56447 16.6602C 5.8651 17.8032 5.52081 18.79 5.49724 19.6421C 5.47317 20.5125 5.78526 21.2117 6.32803 21.7474C 7.37075 22.7766 9.22622 23.1645 11.0237 23.2843L 11.0803 22.4362ZM 7.28848 17.1055C 8.57079 15.0315 9.2647 13.5237 9.56945 12.4234C 9.87125 11.3338 9.81362 10.5585 9.45542 10.0415C 9.09299 9.51832 8.51748 9.39372 8.11481 9.37705C 7.91157 9.36966 7.7131 9.38819 7.58755 9.40695C 7.5211 9.41706 7.46155 9.42862 7.42543 9.43638C 7.40569 9.44065 7.38781 9.44482 7.37762 9.44729C 7.37173 9.44873 7.36603 9.45016 7.36306 9.45092C 7.36118 9.4514 7.35918 9.45191 7.35824 9.45216C 7.35758 9.45233 7.3568 9.45254 7.35647 9.45263C 7.35621 9.4527 7.35587 9.45279 7.35574 9.45282C 7.35543 9.4529 7.35513 9.45298 7.46503 9.86353C 7.57494 10.2741 7.57468 10.2741 7.57443 10.2742C 7.57437 10.2742 7.57413 10.2743 7.57401 10.2743C 7.57407 10.2743 7.57337 10.2745 7.57348 10.2745C 7.57332 10.2745 7.57328 10.2745 7.57358 10.2744C 7.57494 10.2741 7.5757 10.2739 7.57827 10.2733C 7.58501 10.2716 7.59209 10.27 7.60447 10.2673C 7.6326 10.2612 7.66594 10.2546 7.71411 10.2475C 7.81779 10.2317 7.93542 10.2193 8.07966 10.2263C 8.37196 10.2384 8.61697 10.3238 8.75671 10.5255C 8.90069 10.7333 9.02689 11.1978 8.75029 12.1965C 8.47664 13.1845 7.82993 14.6135 6.5655 16.6585L 7.28848 17.1055ZM 7.29955 9.47207C 5.3606 10.2917 3.97889 10.5252 3.00233 10.451C 2.04166 10.378 1.46368 10.0076 1.10136 9.57442C 0.709569 9.11916 0.556864 8.59483 0.479441 8.12412C 0.440938 7.89609 0.42931 7.70973 0.425963 7.56443C 0.424254 7.49512 0.424939 7.44488 0.426078 7.40621C 0.426582 7.38842 0.4271 7.37703 0.427594 7.3676C 0.427798 7.36364 0.427913 7.36174 0.428043 7.35968C 0.428084 7.35902 0.428129 7.35838 0.428105 7.35872C 0.428106 7.35871 0.428085 7.35901 0.428085 7.35901C 0.428079 7.3591 0.428064 7.35931 0.428061 7.35935C 0.428045 7.35958 0.428027 7.35982 0.00416438 7.32874C -0.419698 7.29767 -0.419719 7.29796 -0.419742 7.29827C -0.419751 7.29841 -0.419776 7.29874 -0.419795 7.29901C -0.41982 7.29937 -0.419877 7.30018 -0.419926 7.3009C -0.419999 7.30198 -0.420143 7.30415 -0.420278 7.30629C -0.420502 7.30985 -0.420884 7.31633 -0.421254 7.32336C -0.421907 7.33595 -0.422842 7.35712 -0.423564 7.38151C -0.424877 7.42721 -0.425733 7.49984 -0.423799 7.58453C -0.419861 7.74726 -0.403465 7.99348 -0.35902 8.2637C -0.270546 8.78949 -0.0376529 9.52433 0.449361 10.1198C 0.965847 10.7373 1.75988 11.209 2.93792 11.2986C 4.10009 11.3869 5.62382 11.1033 7.63051 10.255L 7.29955 9.47207ZM 0.429164 7.32874C 0.429164 4.25216 0.764225 2.4501 1.22482 1.45678C 1.4522 0.966411 1.6967 0.702623 1.91772 0.566816C 2.15066 0.412762 2.33741 0.392982 2.61069 0.440204C 3.14526 0.523917 3.73344 0.93666 4.2246 1.39229C 4.46338 1.61337 4.65662 1.82283 4.79862 1.98591C 4.8682 2.06574 4.92066 2.12915 4.95829 2.17568C 4.97647 2.19814 4.98944 2.21452 4.9989 2.22659C 5.00332 2.23224 5.00623 2.23598 5.00849 2.23891C 5.00948 2.24019 5.01 2.24087 5.0105 2.24152C 5.01068 2.24175 5.0107 2.24179 5.01079 2.24191C 5.0108 2.24192 5.01075 2.24186 5.01076 2.24186C 5.01069 2.24178 5.01061 2.24166 5.34873 1.98418C 5.68685 1.7267 5.68673 1.72653 5.68658 1.72634C 5.6865 1.72624 5.68633 1.72602 5.68618 1.72581C 5.68595 1.72551 5.68548 1.7249 5.68501 1.72429C 5.68422 1.72326 5.68281 1.72142 5.68122 1.71937C 5.67835 1.71565 5.67358 1.70951 5.6679 1.70225C 5.65713 1.68852 5.64009 1.667 5.61912 1.64107C 5.57847 1.59083 5.5161 1.51553 5.43954 1.42759C 5.28926 1.25514 5.06496 1.01287 4.80268 0.769137C 4.29174 0.29515 3.54377 -0.274036 2.7422 -0.399562C 2.34742 -0.456959 1.86609 -0.388186 1.47272 -0.15739C 1.06742 0.0916533 0.727358 0.509014 0.453687 1.09921C -0.0878257 2.26704 -0.420836 4.22381 -0.420836 7.32874L 0.429164 7.32874ZM 5.04821 2.2847C 7.42 4.65649 9.78488 5.72243 11.9775 6.00024C 14.1455 6.26731 16.1545 5.757 17.7306 5.05006L 17.3821 4.27482C 15.8734 4.95484 14.0922 5.41899 12.0844 5.15698C 10.1012 4.90571 7.90463 3.93904 5.64925 1.68366L 5.04821 2.2847ZM 17.1313 4.66244L 17.1313 5.24831L 17.9813 5.24831L 17.9813 4.66244L 17.1313 4.66244Z"/>
<path id="path6_fill" d="M 17.9167 10.6652C 12.5602 11.2511 9.14064 6.55217 9.14064 6.55217C 9.14064 6.55217 4.45368 13.5707 0.771075 8.94348C -1.62023 5.87065 2.06238 2.16413 4.84825 0C 10.2304 2.07025 14.8096 5.80731 17.9167 10.6652Z"/>
<path id="path7_stroke" d="M 17.9167 10.6652L 17.9629 11.0877L 18.6438 11.0132L 18.2748 10.4362L 17.9167 10.6652ZM 9.14064 6.55217L 9.48428 6.3021L 9.12567 5.80932L 8.7872 6.31615L 9.14064 6.55217ZM 0.771075 8.94348L 0.435651 9.20451L 0.438536 9.20813L 0.771075 8.94348ZM 4.84825 0L 5.00083 -0.396667L 4.77695 -0.482781L 4.58752 -0.33563L 4.84825 0ZM 17.8705 10.2427C 15.3081 10.5389 13.26 9.56363 11.7689 8.48391C 11.0298 7.95108 10.465 7.40962 10.0687 6.9866C 9.87336 6.7783 9.72835 6.60803 9.62725 6.48416C 9.57791 6.42375 9.5424 6.37843 9.51727 6.34574C 9.50526 6.33014 9.49707 6.31927 9.491 6.31115C 9.48824 6.30746 9.48657 6.30521 9.48518 6.30332C 9.48462 6.30256 9.48439 6.30225 9.48411 6.30187C 9.48403 6.30176 9.484 6.30172 9.48404 6.30177C 9.48405 6.30179 9.48411 6.30187 9.48412 6.30188C 9.48419 6.30198 9.48428 6.3021 9.14064 6.55217C 8.797 6.80225 8.79711 6.8024 8.79724 6.80258C 8.7973 6.80266 8.79744 6.80285 8.79755 6.80301C 8.79772 6.80324 8.79808 6.80373 8.79842 6.80419C 8.79897 6.80494 8.8 6.80634 8.8011 6.80784C 8.80304 6.81046 8.80635 6.81494 8.81023 6.82012C 8.81742 6.82975 8.82909 6.84519 8.84344 6.86387C 8.87101 6.89972 8.9142 6.95478 8.96882 7.02172C 9.07565 7.15253 9.23964 7.34478 9.44854 7.56785C 9.86087 8.00757 10.4858 8.60422 11.2711 9.17288C 12.8289 10.2962 15.1688 11.3774 17.9629 11.0877L 17.8705 10.2427ZM 9.14064 6.55217C 8.7872 6.31615 8.78726 6.31606 8.7873 6.316C 8.78729 6.31601 8.78732 6.31598 8.7873 6.31601C 8.78721 6.31614 8.78715 6.31623 8.78697 6.3165C 8.78651 6.31719 8.78597 6.31798 8.78505 6.31935C 8.783 6.32238 8.78027 6.32642 8.77622 6.33234C 8.76769 6.34481 8.75571 6.36221 8.73904 6.38598C 8.70482 6.43483 8.65589 6.50348 8.59044 6.59187C 8.4576 6.77139 8.26883 7.01635 8.0267 7.30155C 7.53809 7.87769 6.87391 8.57427 6.08835 9.13823C 5.30566 9.70231 4.46082 10.0906 3.62919 10.0969C 2.8242 10.1031 1.95745 9.75166 1.10361 8.67882L 0.438536 9.20813C 1.42601 10.4489 2.5261 10.9554 3.63565 10.9469C 4.71856 10.9387 5.73595 10.4399 6.58532 9.8278C 7.43183 9.21554 8.16954 8.4467 8.67483 7.85148C 8.92964 7.55099 9.1358 7.28378 9.27367 7.09755C 9.34357 7.00307 9.39893 6.92545 9.43517 6.87375C 9.45373 6.84725 9.46852 6.8258 9.47795 6.812C 9.48288 6.80478 9.48693 6.79882 9.48941 6.79514C 9.49075 6.79315 9.49192 6.79141 9.4926 6.7904C 9.49299 6.78982 9.49336 6.78927 9.49355 6.78898C 9.49368 6.7888 9.49381 6.7886 9.49387 6.78851C 9.49398 6.78834 9.49408 6.7882 9.14064 6.55217ZM 1.10648 8.68246C 0.553585 7.98562 0.377932 7.32516 0.431657 6.58141C 0.474778 5.83344 0.763482 5.11144 1.23049 4.3532C 2.16543 2.82092 3.72869 1.40747 5.10897 0.33563L 4.58752 -0.33563C 3.18194 0.756656 1.51096 2.27854 0.50595 3.90875C 0.00298898 4.73177 -0.354707 5.64781 -0.416579 6.52667C -0.467848 7.40976 -0.207088 8.36493 0.43567 9.20449L 1.10648 8.68246ZM 4.69567 0.396667C 10.0171 2.43783 14.4922 6.08999 17.5587 10.8942L 18.2748 10.4362C 15.1269 5.52462 10.4437 1.70267 5.00083 -0.396667L 4.69567 0.396667Z"/>
</defs>
</svg>
