<svg width="152" height="55" viewBox="0 0 152 55" version="1.1" xmlns="http://www.w3.org/2000/svg" xmlns:xlink="http://www.w3.org/1999/xlink">
<title>Fairtrade</title>
<desc>Created using Figma</desc>
<g id="Canvas" transform="translate(-373 -522)">
<g id="Fairtrade">
<g id="Fair trade Copy">
<use xlink:href="#path0_fill" transform="translate(372 535)" fill="#FFFFFF"/>
</g>
<g id="Group Copy">
<g id="Oval 2 Copy 11">
<use xlink:href="#path1_fill" transform="translate(469 522)" fill="#F6EBE2"/>
<mask id="mask0_outline_ins">
<use xlink:href="#path1_fill" fill="white" transform="translate(469 522)"/>
</mask>
<g mask="url(#mask0_outline_ins)">
<use xlink:href="#path2_stroke_2x" transform="translate(469 522)" fill="#3D2D38"/>
</g>
</g>
<g id="fairtrade">
<g id="Shape">
<use xlink:href="#path3_fill" transform="translate(475 528)" fill="#3D2D38"/>
</g>
<g id="Shape">
<use xlink:href="#path4_fill" transform="translate(475 546)" fill="#3D2D38"/>
</g>
</g>
</g>
</g>
</g>
<defs>
<path id="path0_fill" d="M 1.577 19L 1.577 5.472L 10.165 5.472L 10.165 7.087L 3.515 7.087L 3.515 11.324L 9.785 11.324L 9.785 12.939L 3.515 12.939L 3.515 19L 1.577 19ZM 20.7597 9.424L 20.7597 19L 18.8597 19L 18.8597 17.366C 18.5811 17.936 18.1631 18.373 17.6057 18.677C 17.0611 18.981 16.4214 19.133 15.6867 19.133C 14.8381 19.133 14.0907 18.9303 13.4447 18.525C 12.8114 18.1197 12.3174 17.5497 11.9627 16.815C 11.6081 16.0677 11.4307 15.2 11.4307 14.212C 11.4307 13.224 11.6081 12.35 11.9627 11.59C 12.3301 10.83 12.8367 10.241 13.4827 9.823C 14.1287 9.405 14.8634 9.196 15.6867 9.196C 16.4214 9.196 17.0611 9.35433 17.6057 9.671C 18.1504 9.975 18.5684 10.412 18.8597 10.982L 18.8597 9.424L 20.7597 9.424ZM 16.1427 17.613C 17.0041 17.613 17.6691 17.3153 18.1377 16.72C 18.6191 16.112 18.8597 15.2633 18.8597 14.174C 18.8597 13.072 18.6191 12.2233 18.1377 11.628C 17.6691 11.0327 16.9977 10.735 16.1237 10.735C 15.2624 10.735 14.5847 11.0453 14.0907 11.666C 13.6094 12.274 13.3687 13.1227 13.3687 14.212C 13.3687 15.2887 13.6094 16.1247 14.0907 16.72C 14.5847 17.3153 15.2687 17.613 16.1427 17.613ZM 23.5789 19L 23.5789 9.424L 25.4789 9.424L 25.4789 19L 23.5789 19ZM 23.4079 5.244L 25.6309 5.244L 25.6309 7.258L 23.4079 7.258L 23.4079 5.244ZM 33.0607 9.196C 33.3521 9.196 33.6561 9.24033 33.9727 9.329L 33.9347 11.077C 33.5927 10.9503 33.2191 10.887 32.8137 10.887C 31.9397 10.887 31.2811 11.153 30.8377 11.685C 30.4071 12.2043 30.1917 12.863 30.1917 13.661L 30.1917 19L 28.2917 19L 28.2917 12.122C 28.2917 11.1213 28.2411 10.222 28.1397 9.424L 29.9257 9.424L 30.0967 11.153C 30.3501 10.5197 30.7427 10.0383 31.2747 9.709C 31.8067 9.367 32.4021 9.196 33.0607 9.196ZM 42.9897 10.906L 42.9897 15.713C 42.9897 16.3717 43.1291 16.8403 43.4077 17.119C 43.6991 17.385 44.0981 17.518 44.6047 17.518C 44.9341 17.518 45.2697 17.4673 45.6117 17.366L 45.6117 18.924C 45.1937 19.0633 44.7187 19.133 44.1867 19.133C 43.1987 19.133 42.4324 18.8543 41.8877 18.297C 41.3431 17.7397 41.0707 16.929 41.0707 15.865L 41.0707 10.906L 39.2087 10.906L 39.2087 9.424L 41.0707 9.424L 41.0707 7.03L 42.9897 6.365L 42.9897 9.424L 45.6307 9.424L 45.6307 10.906L 42.9897 10.906ZM 52.1721 9.196C 52.4634 9.196 52.7674 9.24033 53.0841 9.329L 53.0461 11.077C 52.7041 10.9503 52.3304 10.887 51.9251 10.887C 51.0511 10.887 50.3924 11.153 49.9491 11.685C 49.5184 12.2043 49.3031 12.863 49.3031 13.661L 49.3031 19L 47.4031 19L 47.4031 12.122C 47.4031 11.1213 47.3524 10.222 47.2511 9.424L 49.0371 9.424L 49.2081 11.153C 49.4614 10.5197 49.8541 10.0383 50.3861 9.709C 50.9181 9.367 51.5134 9.196 52.1721 9.196ZM 63.1201 9.424L 63.1201 19L 61.2201 19L 61.2201 17.366C 60.9414 17.936 60.5234 18.373 59.9661 18.677C 59.4214 18.981 58.7817 19.133 58.0471 19.133C 57.1984 19.133 56.4511 18.9303 55.8051 18.525C 55.1717 18.1197 54.6777 17.5497 54.3231 16.815C 53.9684 16.0677 53.7911 15.2 53.7911 14.212C 53.7911 13.224 53.9684 12.35 54.3231 11.59C 54.6904 10.83 55.1971 10.241 55.8431 9.823C 56.4891 9.405 57.2237 9.196 58.0471 9.196C 58.7817 9.196 59.4214 9.35433 59.9661 9.671C 60.5107 9.975 60.9287 10.412 61.2201 10.982L 61.2201 9.424L 63.1201 9.424ZM 58.5031 17.613C 59.3644 17.613 60.0294 17.3153 60.4981 16.72C 60.9794 16.112 61.2201 15.2633 61.2201 14.174C 61.2201 13.072 60.9794 12.2233 60.4981 11.628C 60.0294 11.0327 59.3581 10.735 58.4841 10.735C 57.6227 10.735 56.9451 11.0453 56.4511 11.666C 55.9697 12.274 55.7291 13.1227 55.7291 14.212C 55.7291 15.2887 55.9697 16.1247 56.4511 16.72C 56.9451 17.3153 57.6291 17.613 58.5031 17.613ZM 74.6982 5.016L 74.6982 19L 72.7982 19L 72.7982 17.366C 72.5195 17.936 72.1015 18.373 71.5442 18.677C 70.9995 18.981 70.3599 19.133 69.6252 19.133C 68.8019 19.133 68.0672 18.924 67.4212 18.506C 66.7752 18.088 66.2685 17.5053 65.9012 16.758C 65.5465 15.998 65.3692 15.124 65.3692 14.136C 65.3692 13.148 65.5465 12.2803 65.9012 11.533C 66.2559 10.7857 66.7499 10.2093 67.3832 9.804C 68.0292 9.39867 68.7765 9.196 69.6252 9.196C 70.3472 9.196 70.9805 9.348 71.5252 9.652C 72.0825 9.956 72.5005 10.3867 72.7792 10.944L 72.7792 5.016L 74.6982 5.016ZM 70.0622 17.613C 70.9362 17.613 71.6075 17.3153 72.0762 16.72C 72.5575 16.112 72.7982 15.2633 72.7982 14.174C 72.7982 13.0847 72.5575 12.2423 72.0762 11.647C 71.6075 11.039 70.9425 10.735 70.0812 10.735C 69.2072 10.735 68.5232 11.0327 68.0292 11.628C 67.5479 12.2233 67.3072 13.0593 67.3072 14.136C 67.3072 15.2253 67.5479 16.0803 68.0292 16.701C 68.5232 17.309 69.2009 17.613 70.0622 17.613ZM 85.6873 14.25L 78.8473 14.25C 78.9107 16.492 79.9303 17.613 81.9063 17.613C 83.0083 17.613 84.0153 17.252 84.9273 16.53L 85.5163 17.898C 85.0857 18.278 84.5347 18.582 83.8633 18.81C 83.2047 19.0253 82.5397 19.133 81.8683 19.133C 80.3357 19.133 79.1323 18.696 78.2583 17.822C 77.3843 16.9353 76.9473 15.7257 76.9473 14.193C 76.9473 13.2177 77.1373 12.35 77.5173 11.59C 77.91 10.83 78.4547 10.241 79.1513 9.823C 79.848 9.405 80.6397 9.196 81.5263 9.196C 82.8183 9.196 83.8317 9.614 84.5663 10.45C 85.3137 11.286 85.6873 12.445 85.6873 13.927L 85.6873 14.25ZM 81.5643 10.621C 80.8423 10.621 80.2533 10.8363 79.7973 11.267C 79.3413 11.6977 79.05 12.312 78.9233 13.11L 83.9963 13.11C 83.9203 12.2993 83.6733 11.685 83.2553 11.267C 82.8373 10.8363 82.2737 10.621 81.5643 10.621Z"/>
<path id="path1_fill" fill-rule="evenodd" d="M 28 55C 43.464 55 56 42.6878 56 27.5C 56 12.3122 43.464 0 28 0C 12.536 0 0 12.3122 0 27.5C 0 42.6878 12.536 55 28 55Z"/>
<path id="path2_stroke_2x" d="M 28 58C 45.0696 58 59 44.3954 59 27.5L 53 27.5C 53 40.9802 41.8583 52 28 52L 28 58ZM 59 27.5C 59 10.6046 45.0696 -3 28 -3L 28 3C 41.8583 3 53 14.0198 53 27.5L 59 27.5ZM 28 -3C 10.9304 -3 -3 10.6046 -3 27.5L 3 27.5C 3 14.0198 14.1417 3 28 3L 28 -3ZM -3 27.5C -3 44.3954 10.9304 58 28 58L 28 52C 14.1417 52 3 40.9802 3 27.5L -3 27.5Z"/>
<path id="path3_fill" d="M 0.507903 17.3372C 0.507903 17.3372 10.7198 -11.1591 36.3163 4.91566C 43.5398 11.519 43.9904 16.1194 43.9904 16.1194C 43.9904 16.1194 44.3723 18.2987 40.3071 15.6356C 38.5026 13.7782 35.2699 11.3571 35.2699 11.3571C 35.2699 11.3571 27.6014 5.8669 20.4581 10.8732C 25.1955 9.25776 30.2327 11.681 31.0595 15.5556C 31.2103 15.8796 30.7578 16.3634 27.8267 15.8796C 24.8957 15.3957 17.8975 21.1258 17.8975 21.1258C 17.8975 21.1258 13.8379 25.4843 5.71695 23.467C -2.40405 21.4497 0.507903 17.3372 0.507903 17.3372Z"/>
<path id="path4_fill" d="M 43.4921 6.66282C 43.4921 6.66282 33.2802 35.1591 7.68373 19.0843C 0.460189 12.481 0.00955358 7.88058 0.00955358 7.88058C 0.00955358 7.88058 -0.372341 5.70133 3.69293 8.3644C 5.49738 10.2218 8.73012 12.6429 8.73012 12.6429C 8.73012 12.6429 16.3986 18.1331 23.5419 13.1268C 18.8045 14.7422 13.7673 12.319 12.9405 8.44435C 12.7897 8.12044 13.2422 7.63662 16.1733 8.12044C 19.1043 8.60426 26.1025 2.87425 26.1025 2.87425C 26.1025 2.87425 30.1621 -1.48425 38.2831 0.533041C 46.404 2.55033 43.4921 6.66282 43.4921 6.66282Z"/>
</defs>
</svg>
