<svg width="44" height="42" viewBox="0 0 44 42" version="1.1" xmlns="http://www.w3.org/2000/svg" xmlns:xlink="http://www.w3.org/1999/xlink">
 <title>fairtrade</title>
 <desc>Created using Figma</desc>
 <g id="Canvas" transform="translate(-475 -528)">
  <g id="fairtrade">
   <g id="Shape">
    <use xlink:href="#path0_fill" transform="translate(475 528)" fill="#FFFFFF" />
   </g>
   <g id="Shape">
    <use xlink:href="#path1_fill" transform="translate(475 546)" fill="#FFFFFF" />
   </g>
  </g>
 </g>
 <defs>
  <path id="path0_fill" d="M 0.507903 17.3372C 0.507903 17.3372 10.7198 -11.1591 36.3163 4.91566C 43.5398 11.519 43.9904 16.1194 43.9904 16.1194C 43.9904 16.1194 44.3723 18.2987 40.3071 15.6356C 38.5026 13.7782 35.2699 11.3571 35.2699 11.3571C 35.2699 11.3571 27.6014 5.8669 20.4581 10.8732C 25.1955 9.25776 30.2327 11.681 31.0595 15.5556C 31.2103 15.8796 30.7578 16.3634 27.8267 15.8796C 24.8957 15.3957 17.8975 21.1258 17.8975 21.1258C 17.8975 21.1258 13.8379 25.4843 5.71695 23.467C -2.40405 21.4497 0.507903 17.3372 0.507903 17.3372Z" />
  <path id="path1_fill" d="M 43.4921 6.66282C 43.4921 6.66282 33.2802 35.1591 7.68373 19.0843C 0.460189 12.481 0.00955358 7.88058 0.00955358 7.88058C 0.00955358 7.88058 -0.372341 5.70133 3.69293 8.3644C 5.49738 10.2218 8.73012 12.6429 8.73012 12.6429C 8.73012 12.6429 16.3986 18.1331 23.5419 13.1268C 18.8045 14.7422 13.7673 12.319 12.9405 8.44435C 12.7897 8.12044 13.2422 7.63662 16.1733 8.12044C 19.1043 8.60426 26.1025 2.87425 26.1025 2.87425C 26.1025 2.87425 30.1621 -1.48425 38.2831 0.533041C 46.404 2.55033 43.4921 6.66282 43.4921 6.66282Z" />
 </defs>
</svg>