<svg width="136" height="55" viewBox="0 0 136 55" version="1.1" xmlns="http://www.w3.org/2000/svg" xmlns:xlink="http://www.w3.org/1999/xlink">
<title>Organic</title>
<desc>Created using Figma</desc>
<g id="Canvas" transform="translate(-254 -746)">
<g id="Organic">
<g id="Organic Copy">
<use xlink:href="#path0_fill" transform="translate(253 759)" fill="#FFFFFF"/>
</g>
<g id="Group 4 Copy">
<g id="Oval 2 Copy 8">
<use xlink:href="#path1_fill" transform="translate(334 746)" fill="#F6EBE2"/>
<mask id="mask0_outline_ins">
<use xlink:href="#path1_fill" fill="white" transform="translate(334 746)"/>
</mask>
<g mask="url(#mask0_outline_ins)">
<use xlink:href="#path2_stroke_2x" transform="translate(334 746)" fill="#3D2D38"/>
</g>
</g>
<g id="Organic">
<g id="Shape">
<use xlink:href="#path3_fill" transform="translate(338 751)" fill="#3D2D38"/>
</g>
</g>
</g>
</g>
</g>
<defs>
<path id="path0_fill" d="M 7.391 19.152C 6.11167 19.152 4.997 18.8733 4.047 18.316C 3.10967 17.746 2.38133 16.9417 1.862 15.903C 1.35533 14.8643 1.102 13.642 1.102 12.236C 1.102 10.8173 1.35533 9.58867 1.862 8.55C 2.36867 7.51133 3.097 6.71333 4.047 6.156C 4.997 5.59867 6.11167 5.32 7.391 5.32C 8.683 5.32 9.79767 5.59867 10.735 6.156C 11.685 6.71333 12.4133 7.51133 12.92 8.55C 13.4267 9.58867 13.68 10.811 13.68 12.217C 13.68 13.6357 13.4267 14.8643 12.92 15.903C 12.4133 16.9417 11.685 17.746 10.735 18.316C 9.785 18.8733 8.67033 19.152 7.391 19.152ZM 7.391 17.556C 8.74633 17.556 9.79767 17.0937 10.545 16.169C 11.305 15.2443 11.685 13.927 11.685 12.217C 11.685 10.5197 11.305 9.215 10.545 8.303C 9.79767 7.37833 8.74633 6.916 7.391 6.916C 6.03567 6.916 4.98433 7.37833 4.237 8.303C 3.48967 9.215 3.116 10.5197 3.116 12.217C 3.116 13.927 3.48967 15.2443 4.237 16.169C 4.997 17.0937 6.04833 17.556 7.391 17.556ZM 20.9816 9.196C 21.273 9.196 21.577 9.24033 21.8936 9.329L 21.8556 11.077C 21.5136 10.9503 21.14 10.887 20.7346 10.887C 19.8606 10.887 19.202 11.153 18.7586 11.685C 18.328 12.2043 18.1126 12.863 18.1126 13.661L 18.1126 19L 16.2126 19L 16.2126 12.122C 16.2126 11.1213 16.162 10.222 16.0606 9.424L 17.8466 9.424L 18.0176 11.153C 18.271 10.5197 18.6636 10.0383 19.1956 9.709C 19.7276 9.367 20.323 9.196 20.9816 9.196ZM 32.0056 9.424L 32.0056 18.829C 32.0056 20.2857 31.6193 21.3813 30.8466 22.116C 30.0866 22.8633 28.953 23.237 27.4456 23.237C 25.989 23.237 24.716 22.9203 23.6266 22.287L 23.9496 20.786C 24.545 21.1027 25.115 21.337 25.6596 21.489C 26.217 21.641 26.806 21.717 27.4266 21.717C 29.2126 21.717 30.1056 20.805 30.1056 18.981L 30.1056 16.91C 29.8143 17.4673 29.39 17.9107 28.8326 18.24C 28.2753 18.5567 27.6293 18.715 26.8946 18.715C 26.0586 18.715 25.3113 18.5187 24.6526 18.126C 24.0066 17.7333 23.5 17.176 23.1326 16.454C 22.778 15.732 22.6006 14.9023 22.6006 13.965C 22.6006 13.0277 22.778 12.198 23.1326 11.476C 23.5 10.754 24.0066 10.1967 24.6526 9.804C 25.3113 9.39867 26.0586 9.196 26.8946 9.196C 27.6293 9.196 28.2753 9.35433 28.8326 9.671C 29.39 9.975 29.8143 10.412 30.1056 10.982L 30.1056 9.424L 32.0056 9.424ZM 27.3316 17.176C 28.193 17.176 28.8706 16.891 29.3646 16.321C 29.8586 15.751 30.1056 14.9657 30.1056 13.965C 30.1056 12.9643 29.8586 12.179 29.3646 11.609C 28.8833 11.0263 28.2056 10.735 27.3316 10.735C 26.4703 10.735 25.7863 11.0263 25.2796 11.609C 24.7856 12.179 24.5386 12.9643 24.5386 13.965C 24.5386 14.953 24.7856 15.7383 25.2796 16.321C 25.7863 16.891 26.4703 17.176 27.3316 17.176ZM 43.582 9.424L 43.582 19L 41.682 19L 41.682 17.366C 41.4033 17.936 40.9853 18.373 40.428 18.677C 39.8833 18.981 39.2437 19.133 38.509 19.133C 37.6603 19.133 36.913 18.9303 36.267 18.525C 35.6337 18.1197 35.1397 17.5497 34.785 16.815C 34.4303 16.0677 34.253 15.2 34.253 14.212C 34.253 13.224 34.4303 12.35 34.785 11.59C 35.1523 10.83 35.659 10.241 36.305 9.823C 36.951 9.405 37.6857 9.196 38.509 9.196C 39.2437 9.196 39.8833 9.35433 40.428 9.671C 40.9727 9.975 41.3907 10.412 41.682 10.982L 41.682 9.424L 43.582 9.424ZM 38.965 17.613C 39.8263 17.613 40.4913 17.3153 40.96 16.72C 41.4413 16.112 41.682 15.2633 41.682 14.174C 41.682 13.072 41.4413 12.2233 40.96 11.628C 40.4913 11.0327 39.82 10.735 38.946 10.735C 38.0847 10.735 37.407 11.0453 36.913 11.666C 36.4317 12.274 36.191 13.1227 36.191 14.212C 36.191 15.2887 36.4317 16.1247 36.913 16.72C 37.407 17.3153 38.091 17.613 38.965 17.613ZM 51.4931 9.196C 53.7858 9.196 54.9321 10.4753 54.9321 13.034L 54.9321 19L 53.0131 19L 53.0131 13.148C 53.0131 12.312 52.8485 11.704 52.5191 11.324C 52.2025 10.944 51.6895 10.754 50.9801 10.754C 50.1695 10.754 49.5171 11.0073 49.0231 11.514C 48.5418 12.0207 48.3011 12.6983 48.3011 13.547L 48.3011 19L 46.4011 19L 46.4011 12.122C 46.4011 11.1213 46.3505 10.222 46.2491 9.424L 48.0351 9.424L 48.2061 11.077C 48.5101 10.469 48.9471 10.0067 49.5171 9.69C 50.0998 9.36067 50.7585 9.196 51.4931 9.196ZM 57.6638 19L 57.6638 9.424L 59.5638 9.424L 59.5638 19L 57.6638 19ZM 57.4928 5.244L 59.7158 5.244L 59.7158 7.258L 57.4928 7.258L 57.4928 5.244ZM 66.5377 19.133C 65.575 19.133 64.7327 18.9303 64.0107 18.525C 63.3014 18.1197 62.7567 17.5497 62.3767 16.815C 61.9967 16.0677 61.8067 15.2 61.8067 14.212C 61.8067 13.224 62.003 12.35 62.3957 11.59C 62.801 10.83 63.3647 10.241 64.0867 9.823C 64.8087 9.405 65.651 9.196 66.6137 9.196C 67.285 9.196 67.931 9.31 68.5517 9.538C 69.1724 9.75333 69.6727 10.051 70.0527 10.431L 69.4637 11.818C 68.5644 11.1087 67.6587 10.754 66.7467 10.754C 65.822 10.754 65.1 11.058 64.5807 11.666C 64.0614 12.2613 63.8017 13.1037 63.8017 14.193C 63.8017 15.2823 64.0614 16.1247 64.5807 16.72C 65.1 17.3027 65.822 17.594 66.7467 17.594C 67.684 17.594 68.5897 17.2393 69.4637 16.53L 70.0527 17.917C 69.6474 18.297 69.128 18.5947 68.4947 18.81C 67.874 19.0253 67.2217 19.133 66.5377 19.133Z"/>
<path id="path1_fill" fill-rule="evenodd" d="M 28 55C 43.464 55 56 42.6878 56 27.5C 56 12.3122 43.464 0 28 0C 12.536 0 0 12.3122 0 27.5C 0 42.6878 12.536 55 28 55Z"/>
<path id="path2_stroke_2x" d="M 28 58C 45.0696 58 59 44.3954 59 27.5L 53 27.5C 53 40.9802 41.8583 52 28 52L 28 58ZM 59 27.5C 59 10.6046 45.0696 -3 28 -3L 28 3C 41.8583 3 53 14.0198 53 27.5L 59 27.5ZM 28 -3C 10.9304 -3 -3 10.6046 -3 27.5L 3 27.5C 3 14.0198 14.1417 3 28 3L 28 -3ZM -3 27.5C -3 44.3954 10.9304 58 28 58L 28 52C 14.1417 52 3 40.9802 3 27.5L -3 27.5Z"/>
<path id="path3_fill" d="M 23.0964 30.1792C 19.6019 28.3343 17.5657 31.8898 12.2331 31.4268C 5.97096 30.8846 0 24.985 0 24.985C 0 24.985 4.99482 21.7389 12.0281 21.8877C 19.0614 22.0364 22.0201 25.0834 23.5716 27.3818C 19.0614 25.1338 11.9792 25.6328 11.9792 25.6328C 14.1412 25.7547 16.2789 26.1636 18.3392 26.8492C 22.1793 28.1473 25.6691 30.3573 28.5269 33.3006L 29.6917 29.6778C 29.6917 29.6778 21.2676 26.3885 21.4563 16.3144C 21.4866 13.6105 22.2531 9.35679 22.2531 9.35679C 22.2531 9.35679 23.376 4.20576 22.8658 0C 38.7868 11.0362 37.4099 23.0705 33.9387 29.114C 35.5206 19.6013 30.8775 11.089 26.2834 4.83434C 31.8956 14.3975 34.5491 26.5373 28.7319 35.8917C 34.3953 32.3193 39.0407 32.8951 39.0407 32.8951C 39.0407 32.8951 36.541 31.8443 30.775 33.8932C 35.3668 28.3223 36.4384 29.2675 42.2044 30.7406C 42.2556 30.8462 45 31.8443 45 31.8443C 45 31.8443 41.785 34.0035 40.7647 35.3135C 39.7443 36.6234 34.2416 39.3081 30.5583 36.1028C 28.0586 36.7866 27.0382 39.2553 27.0382 39.2553L 24.2962 37.9262C 24.9741 37.6455 26.0854 37.0481 26.4674 35.9253C 27.1617 33.9196 25.1395 31.2589 23.0964 30.1792Z"/>
</defs>
</svg>
