<svg width="45" height="40" viewBox="0 0 45 40" version="1.1" xmlns="http://www.w3.org/2000/svg" xmlns:xlink="http://www.w3.org/1999/xlink">
 <title>Shape</title>
 <desc>Created using Figma</desc>
 <g id="Canvas" transform="translate(-338 -751)">
  <g id="Shape">
   <use xlink:href="#path0_fill" transform="translate(338 751)" fill="#FFFFFF" />
  </g>
 </g>
 <defs>
  <path id="path0_fill" d="M 23.0964 30.1792C 19.6019 28.3343 17.5657 31.8898 12.2331 31.4268C 5.97096 30.8846 0 24.985 0 24.985C 0 24.985 4.99482 21.7389 12.0281 21.8877C 19.0614 22.0364 22.0201 25.0834 23.5716 27.3818C 19.0614 25.1338 11.9792 25.6328 11.9792 25.6328C 14.1412 25.7547 16.2789 26.1636 18.3392 26.8492C 22.1793 28.1473 25.6691 30.3573 28.5269 33.3006L 29.6917 29.6778C 29.6917 29.6778 21.2676 26.3885 21.4563 16.3144C 21.4866 13.6105 22.2531 9.35679 22.2531 9.35679C 22.2531 9.35679 23.376 4.20576 22.8658 0C 38.7868 11.0362 37.4099 23.0705 33.9387 29.114C 35.5206 19.6013 30.8775 11.089 26.2834 4.83434C 31.8956 14.3975 34.5491 26.5373 28.7319 35.8917C 34.3953 32.3193 39.0407 32.8951 39.0407 32.8951C 39.0407 32.8951 36.541 31.8443 30.775 33.8932C 35.3668 28.3223 36.4384 29.2675 42.2044 30.7406C 42.2556 30.8462 45 31.8443 45 31.8443C 45 31.8443 41.785 34.0035 40.7647 35.3135C 39.7443 36.6234 34.2416 39.3081 30.5583 36.1028C 28.0586 36.7866 27.0382 39.2553 27.0382 39.2553L 24.2962 37.9262C 24.9741 37.6455 26.0854 37.0481 26.4674 35.9253C 27.1617 33.9196 25.1395 31.2589 23.0964 30.1792Z" />
 </defs>
</svg>