<svg width="130" height="55" viewBox="0 0 130 55" version="1.1" xmlns="http://www.w3.org/2000/svg" xmlns:xlink="http://www.w3.org/1999/xlink">
<title>Quality</title>
<desc>Created using Figma</desc>
<g id="Canvas" transform="translate(-305 -672)">
<g id="Quality">
<g id="Quality Copy">
<use xlink:href="#path0_fill" transform="translate(304 685)" fill="#FFFFFF"/>
</g>
<g id="Group 3 Copy">
<g id="Oval 2 Copy 9">
<use xlink:href="#path1_fill" transform="translate(379 672)" fill="#F6EBE2"/>
<mask id="mask0_outline_ins">
<use xlink:href="#path1_fill" fill="white" transform="translate(379 672)"/>
</mask>
<g mask="url(#mask0_outline_ins)">
<use xlink:href="#path2_stroke_2x" transform="translate(379 672)" fill="#3D2D38"/>
</g>
</g>
<g id="Quality">
<g id="Rectangle-path">
<use xlink:href="#path3_fill" transform="translate(391 680)" fill="#3D2D38"/>
</g>
<g id="Rectangle-path">
<use xlink:href="#path4_fill" transform="translate(399.117 684.227)" fill="#F6EBE2"/>
</g>
<g id="Rectangle-path">
<use xlink:href="#path5_fill" transform="translate(396.712 692.872)" fill="#F6EBE2"/>
</g>
<g id="Rectangle-path">
<use xlink:href="#path5_fill" transform="translate(396.712 702.67)" fill="#F6EBE2"/>
</g>
<g id="Rectangle-path">
<use xlink:href="#path5_fill" transform="translate(396.712 697.867)" fill="#F6EBE2"/>
</g>
<g id="Rectangle-path">
<use xlink:href="#path5_fill" transform="translate(396.712 712.468)" fill="#F6EBE2"/>
</g>
<g id="Rectangle-path">
<use xlink:href="#path5_fill" transform="translate(396.712 707.665)" fill="#F6EBE2"/>
</g>
<g id="Shape">
<use xlink:href="#path6_fill" transform="translate(409.498 708.818)" fill="#F6EBE2"/>
<use xlink:href="#path7_stroke" transform="translate(409.498 708.818)" fill="#3D2D39"/>
</g>
<g id="Shape">
<use xlink:href="#path8_fill" transform="translate(414.308 708.837)" fill="#F6EBE2"/>
<use xlink:href="#path9_stroke" transform="translate(414.308 708.837)" fill="#3D2D39"/>
</g>
<g id="Shape">
<use xlink:href="#path10_fill" transform="translate(409.579 700.422)" fill="#F6EBE2"/>
<use xlink:href="#path11_stroke" transform="translate(409.579 700.422)" fill="#3D2D39"/>
</g>
<g id="Oval">
<use xlink:href="#path12_fill" transform="translate(411.242 702.266)" fill="#3D2D39"/>
</g>
<g id="Shape">
<use xlink:href="#path13_fill" transform="translate(412.104 703.227)" fill="#F6EBE2"/>
</g>
</g>
</g>
</g>
</g>
<defs>
<path id="path0_fill" d="M 9.956 18.696C 10.488 19.646 11.305 20.577 12.407 21.489L 11.058 22.629C 10.5007 22.2237 9.956 21.7107 9.424 21.09C 8.892 20.4693 8.42333 19.817 8.018 19.133C 7.87867 19.1457 7.66967 19.152 7.391 19.152C 6.11167 19.152 4.997 18.8733 4.047 18.316C 3.10967 17.746 2.38133 16.9417 1.862 15.903C 1.35533 14.8643 1.102 13.642 1.102 12.236C 1.102 10.8173 1.35533 9.58867 1.862 8.55C 2.36867 7.51133 3.097 6.71333 4.047 6.156C 4.997 5.59867 6.11167 5.32 7.391 5.32C 8.683 5.32 9.79767 5.59867 10.735 6.156C 11.685 6.71333 12.4133 7.51133 12.92 8.55C 13.4267 9.58867 13.68 10.811 13.68 12.217C 13.68 13.8257 13.3507 15.1937 12.692 16.321C 12.046 17.4357 11.134 18.2273 9.956 18.696ZM 3.116 12.217C 3.116 13.927 3.48967 15.2443 4.237 16.169C 4.997 17.0937 6.04833 17.556 7.391 17.556C 8.74633 17.556 9.79767 17.0937 10.545 16.169C 11.305 15.2443 11.685 13.927 11.685 12.217C 11.685 10.5197 11.305 9.215 10.545 8.303C 9.79767 7.37833 8.74633 6.916 7.391 6.916C 6.03567 6.916 4.98433 7.37833 4.237 8.303C 3.48967 9.215 3.116 10.5197 3.116 12.217ZM 24.5346 9.424L 24.5346 19L 22.6726 19L 22.6726 17.404C 22.3686 17.9613 21.9506 18.392 21.4186 18.696C 20.8866 18.9873 20.285 19.133 19.6136 19.133C 17.3083 19.133 16.1556 17.8537 16.1556 15.295L 16.1556 9.424L 18.0556 9.424L 18.0556 15.276C 18.0556 16.0613 18.214 16.644 18.5306 17.024C 18.86 17.3913 19.354 17.575 20.0126 17.575C 20.798 17.575 21.425 17.3217 21.8936 16.815C 22.375 16.3083 22.6156 15.637 22.6156 14.801L 22.6156 9.424L 24.5346 9.424ZM 36.1045 9.424L 36.1045 19L 34.2045 19L 34.2045 17.366C 33.9258 17.936 33.5078 18.373 32.9505 18.677C 32.4058 18.981 31.7661 19.133 31.0315 19.133C 30.1828 19.133 29.4355 18.9303 28.7895 18.525C 28.1561 18.1197 27.6621 17.5497 27.3075 16.815C 26.9528 16.0677 26.7755 15.2 26.7755 14.212C 26.7755 13.224 26.9528 12.35 27.3075 11.59C 27.6748 10.83 28.1815 10.241 28.8275 9.823C 29.4735 9.405 30.2081 9.196 31.0315 9.196C 31.7661 9.196 32.4058 9.35433 32.9505 9.671C 33.4951 9.975 33.9131 10.412 34.2045 10.982L 34.2045 9.424L 36.1045 9.424ZM 31.4875 17.613C 32.3488 17.613 33.0138 17.3153 33.4825 16.72C 33.9638 16.112 34.2045 15.2633 34.2045 14.174C 34.2045 13.072 33.9638 12.2233 33.4825 11.628C 33.0138 11.0327 32.3425 10.735 31.4685 10.735C 30.6071 10.735 29.9295 11.0453 29.4355 11.666C 28.9541 12.274 28.7135 13.1227 28.7135 14.212C 28.7135 15.2887 28.9541 16.1247 29.4355 16.72C 29.9295 17.3153 30.6135 17.613 31.4875 17.613ZM 38.9236 19L 38.9236 5.016L 40.8236 5.016L 40.8236 19L 38.9236 19ZM 43.6365 19L 43.6365 9.424L 45.5365 9.424L 45.5365 19L 43.6365 19ZM 43.4655 5.244L 45.6885 5.244L 45.6885 7.258L 43.4655 7.258L 43.4655 5.244ZM 50.8384 10.906L 50.8384 15.713C 50.8384 16.3717 50.9777 16.8403 51.2564 17.119C 51.5477 17.385 51.9467 17.518 52.4534 17.518C 52.7827 17.518 53.1184 17.4673 53.4604 17.366L 53.4604 18.924C 53.0424 19.0633 52.5674 19.133 52.0354 19.133C 51.0474 19.133 50.281 18.8543 49.7364 18.297C 49.1917 17.7397 48.9194 16.929 48.9194 15.865L 48.9194 10.906L 47.0574 10.906L 47.0574 9.424L 48.9194 9.424L 48.9194 7.03L 50.8384 6.365L 50.8384 9.424L 53.4794 9.424L 53.4794 10.906L 50.8384 10.906ZM 64.0836 9.424L 59.6186 19.779C 59.1246 20.9063 58.5039 21.7297 57.7566 22.249C 57.0219 22.781 56.1099 23.1357 55.0206 23.313L 54.6026 21.831C 55.5019 21.6283 56.1796 21.3623 56.6356 21.033C 57.1043 20.7163 57.4779 20.235 57.7566 19.589L 58.0986 18.791L 54.0706 9.424L 56.1036 9.424L 59.1056 16.834L 62.1646 9.424L 64.0836 9.424Z"/>
<path id="path1_fill" fill-rule="evenodd" d="M 28 55C 43.464 55 56 42.6878 56 27.5C 56 12.3122 43.464 0 28 0C 12.536 0 0 12.3122 0 27.5C 0 42.6878 12.536 55 28 55Z"/>
<path id="path2_stroke_2x" d="M 28 58C 45.0696 58 59 44.3954 59 27.5L 53 27.5C 53 40.9802 41.8583 52 28 52L 28 58ZM 59 27.5C 59 10.6046 45.0696 -3 28 -3L 28 3C 41.8583 3 53 14.0198 53 27.5L 59 27.5ZM 28 -3C 10.9304 -3 -3 10.6046 -3 27.5L 3 27.5C 3 14.0198 14.1417 3 28 3L 28 -3ZM -3 27.5C -3 44.3954 10.9304 58 28 58L 28 52C 14.1417 52 3 40.9802 3 27.5L -3 27.5Z"/>
<path id="path3_fill" d="M 0 11.7C 0 5.23827 5.23827 0 11.7 0L 20.3667 0C 26.8284 0 32.0667 5.23827 32.0667 11.7L 32.0667 27.3C 32.0667 33.7617 26.8284 39 20.3667 39L 11.7 39C 5.23827 39 0 33.7617 0 27.3L 0 11.7Z"/>
<path id="path4_fill" d="M 0 1.92118C 0 0.860143 0.860143 0 1.92118 0L 13.9117 0C 14.9728 0 15.8329 0.860143 15.8329 1.92118C 15.8329 2.98222 14.9728 3.84236 13.9117 3.84236L 1.92118 3.84236C 0.860143 3.84236 0 2.98222 0 1.92118Z"/>
<path id="path5_fill" d="M 0 1.05665C 0 0.473078 0.473078 0 1.05665 0L 19.5863 0C 20.1698 0 20.6429 0.473079 20.6429 1.05665C 20.6429 1.64022 20.1698 2.1133 19.5863 2.1133L 1.05665 2.1133C 0.473078 2.1133 0 1.64022 0 1.05665Z"/>
<path id="path6_fill" d="M 2.84592 8.43399L 2.56533 5.2064L 0 7.33892L 3.10646 0L 5.95237 1.11429L 2.84592 8.43399Z"/>
<path id="path7_stroke" d="M 2.56533 5.2064L 2.81439 5.18475L 2.77301 4.70867L 2.40552 5.01415L 2.56533 5.2064ZM 0 7.33892L -0.230225 7.24147L 0.159813 7.53117L 0 7.33892ZM 3.10646 0L 3.19761 -0.232792L 2.97107 -0.321491L 2.87623 -0.0974508L 3.10646 0ZM 5.95237 1.11429L 6.18251 1.21195L 6.28297 0.975245L 6.04352 0.881494L 5.95237 1.11429ZM 3.09498 8.41234L 2.81439 5.18475L 2.31627 5.22806L 2.59686 8.45564L 3.09498 8.41234ZM 2.40552 5.01415L -0.159813 7.14667L 0.159813 7.53117L 2.72515 5.39865L 2.40552 5.01415ZM 0.230225 7.43637L 3.33668 0.0974508L 2.87623 -0.0974508L -0.230225 7.24147L 0.230225 7.43637ZM 3.01531 0.232792L 5.86123 1.34708L 6.04352 0.881494L 3.19761 -0.232792L 3.01531 0.232792ZM 5.72224 1.01662L 2.61578 8.33632L 3.07605 8.53166L 6.18251 1.21195L 5.72224 1.01662Z"/>
<path id="path8_fill" d="M 5.67179 7.43498L 3.20667 5.22562L 2.78579 8.43399L 0 0.999015L 2.886 0L 5.67179 7.43498Z"/>
<path id="path9_stroke" d="M 3.20667 5.22562L 3.37352 5.03945L 3.02046 4.72301L 2.95879 5.1931L 3.20667 5.22562ZM 2.78579 8.43399L 2.55169 8.52171L 3.03367 8.46651L 2.78579 8.43399ZM 0 0.999015L -0.0817787 0.762769L -0.324066 0.846639L -0.234106 1.08673L 0 0.999015ZM 2.886 0L 3.12011 -0.0877167L 3.03458 -0.315986L 2.80422 -0.236246L 2.886 0ZM 5.83865 7.2488L 3.37352 5.03945L 3.03981 5.41179L 5.50494 7.62115L 5.83865 7.2488ZM 2.95879 5.1931L 2.53792 8.40147L 3.03367 8.46651L 3.45454 5.25813L 2.95879 5.1931ZM 3.0199 8.34627L 0.234106 0.911298L -0.234106 1.08673L 2.55169 8.52171L 3.0199 8.34627ZM 0.0817787 1.23526L 2.96778 0.236246L 2.80422 -0.236246L -0.0817787 0.762769L 0.0817787 1.23526ZM 2.65189 0.0877167L 5.43769 7.52269L 5.9059 7.34726L 3.12011 -0.0877167L 2.65189 0.0877167Z"/>
<path id="path10_fill" d="M 8.45758 9.49064L 6.65383 9.43301L 5.23088 10.5089L 3.80792 9.45222L 2.00417 9.50985L 1.50312 7.85764L 0.0200417 6.87783L 0.621292 5.26404L 0 3.65025L 1.48308 2.67044L 1.98413 1.01823L 3.78787 1.05665L 5.21083 0L 6.63379 1.05665L 8.43754 0.999015L 8.93858 2.65123L 10.4217 3.61182L 9.82042 5.24483L 10.4417 6.85862L 8.93858 7.83842L 8.45758 9.49064Z"/>
<path id="path11_stroke" d="M 6.65383 9.43301L 6.6698 8.93326L 6.49322 8.92762L 6.35229 9.03417L 6.65383 9.43301ZM 5.23088 10.5089L 4.93279 10.9103L 5.23358 11.1337L 5.53242 10.9077L 5.23088 10.5089ZM 3.80792 9.45222L 4.10601 9.05079L 3.96611 8.94691L 3.79195 8.95247L 3.80792 9.45222ZM 2.00417 9.50985L 1.52568 9.65495L 1.63694 10.0218L 2.02013 10.0096L 2.00417 9.50985ZM 1.50312 7.85764L 1.98161 7.71253L 1.92925 7.5399L 1.77874 7.44046L 1.50312 7.85764ZM 0.0200417 6.87783L -0.448496 6.70327L -0.587308 7.07585L -0.255569 7.29501L 0.0200417 6.87783ZM 0.621292 5.26404L 1.08983 5.4386L 1.15595 5.26114L 1.08791 5.0844L 0.621292 5.26404ZM 0 3.65025L -0.275611 3.23307L -0.611063 3.45468L -0.466614 3.82989L 0 3.65025ZM 1.48308 2.67044L 1.75869 3.08762L 1.90921 2.98818L 1.96157 2.81555L 1.48308 2.67044ZM 1.98413 1.01823L 1.99477 0.51834L 1.61568 0.510265L 1.50564 0.873125L 1.98413 1.01823ZM 3.78787 1.05665L 3.77723 1.55654L 3.94846 1.56018L 4.08596 1.45808L 3.78787 1.05665ZM 5.21083 0L 5.50892 -0.401426L 5.21083 -0.622779L 4.91274 -0.401427L 5.21083 0ZM 6.63379 1.05665L 6.3357 1.45808L 6.4756 1.56196L 6.64976 1.5564L 6.63379 1.05665ZM 8.43754 0.999015L 8.91602 0.853913L 8.80476 0.487026L 8.42157 0.49927L 8.43754 0.999015ZM 8.93858 2.65123L 8.4601 2.79633L 8.5132 2.97143L 8.66677 3.07089L 8.93858 2.65123ZM 10.4217 3.61182L 10.8909 3.78458L 11.029 3.40947L 10.6935 3.19216L 10.4217 3.61182ZM 9.82042 5.24483L 9.35121 5.07207L 9.28616 5.24876L 9.3538 5.42447L 9.82042 5.24483ZM 10.4417 6.85862L 10.7147 7.27749L 11.0537 7.05655L 10.9083 6.67898L 10.4417 6.85862ZM 8.93858 7.83842L 8.66555 7.41956L 8.51031 7.52075L 8.45851 7.69866L 8.93858 7.83842ZM 8.47355 8.9909L 6.6698 8.93326L 6.63787 9.93275L 8.44162 9.99039L 8.47355 8.9909ZM 6.35229 9.03417L 4.92933 10.11L 5.53242 10.9077L 6.95538 9.83184L 6.35229 9.03417ZM 5.52896 10.1074L 4.10601 9.05079L 3.50983 9.85364L 4.93279 10.9103L 5.52896 10.1074ZM 3.79195 8.95247L 1.9882 9.01011L 2.02013 10.0096L 3.82388 9.95196L 3.79195 8.95247ZM 2.48265 9.36475L 1.98161 7.71253L 1.02464 8.00274L 1.52568 9.65495L 2.48265 9.36475ZM 1.77874 7.44046L 0.295652 6.46065L -0.255569 7.29501L 1.22751 8.27481L 1.77874 7.44046ZM 0.48858 7.0524L 1.08983 5.4386L 0.152754 5.08948L -0.448496 6.70327L 0.48858 7.0524ZM 1.08791 5.0844L 0.466614 3.47061L -0.466614 3.82989L 0.154677 5.44368L 1.08791 5.0844ZM 0.275611 4.06743L 1.75869 3.08762L 1.20747 2.25326L -0.275611 3.23307L 0.275611 4.06743ZM 1.96157 2.81555L 2.46261 1.16333L 1.50564 0.873125L 1.0046 2.52534L 1.96157 2.81555ZM 1.97348 1.51811L 3.77723 1.55654L 3.79852 0.556764L 1.99477 0.51834L 1.97348 1.51811ZM 4.08596 1.45808L 5.50892 0.401427L 4.91274 -0.401427L 3.48979 0.655224L 4.08596 1.45808ZM 4.91274 0.401426L 6.3357 1.45808L 6.93188 0.655224L 5.50892 -0.401426L 4.91274 0.401426ZM 6.64976 1.5564L 8.45351 1.49876L 8.42157 0.49927L 6.61782 0.556905L 6.64976 1.5564ZM 7.95906 1.14412L 8.4601 2.79633L 9.41707 2.50613L 8.91602 0.853913L 7.95906 1.14412ZM 8.66677 3.07089L 10.1499 4.03149L 10.6935 3.19216L 9.2104 2.23157L 8.66677 3.07089ZM 9.95246 3.43907L 9.35121 5.07207L 10.2896 5.41758L 10.8909 3.78458L 9.95246 3.43907ZM 9.3538 5.42447L 9.97509 7.03826L 10.9083 6.67898L 10.287 5.06519L 9.3538 5.42447ZM 10.1687 6.43975L 8.66555 7.41956L 9.21162 8.25729L 10.7147 7.27749L 10.1687 6.43975ZM 8.45851 7.69866L 7.97751 9.35088L 8.93765 9.6304L 9.41865 7.97818L 8.45851 7.69866Z"/>
<path id="path12_fill" d="M 3.54737 6.80099C 5.50654 6.80099 7.09475 5.27853 7.09475 3.40049C 7.09475 1.52245 5.50654 0 3.54737 0C 1.58821 0 0 1.52245 0 3.40049C 0 5.27853 1.58821 6.80099 3.54737 6.80099Z"/>
<path id="path13_fill" d="M 2.68558 0L 3.32692 1.86355L 5.39121 1.86355L 3.72775 3.01626L 4.34904 4.89901L 2.68558 3.74631L 1.02213 4.89901L 1.66346 3.01626L 0 1.86355L 2.06429 1.86355L 2.68558 0Z"/>
</defs>
</svg>
