<svg width="33" height="39" viewBox="0 0 33 39" version="1.1" xmlns="http://www.w3.org/2000/svg" xmlns:xlink="http://www.w3.org/1999/xlink">
 <title>Quality</title>
 <desc>Created using Figma</desc>
 <g id="Canvas" transform="translate(-391 -680)">
  <g id="Quality">
   <g id="Rectangle-path">
    <use xlink:href="#path0_fill" transform="translate(391 680)" fill="#FFFFFF" />
   </g>
   <g id="Rectangle-path">
    <use xlink:href="#path1_fill" transform="translate(399.117 684.227)" fill="#3D2D38" />
   </g>
   <g id="Rectangle-path">
    <use xlink:href="#path2_fill" transform="translate(396.712 692.872)" fill="#3D2D38" />
   </g>
   <g id="Rectangle-path">
    <use xlink:href="#path2_fill" transform="translate(396.712 702.67)" fill="#3D2D38" />
   </g>
   <g id="Rectangle-path">
    <use xlink:href="#path2_fill" transform="translate(396.712 697.867)" fill="#3D2D38" />
   </g>
   <g id="Rectangle-path">
    <use xlink:href="#path2_fill" transform="translate(396.712 712.468)" fill="#3D2D38" />
   </g>
   <g id="Rectangle-path">
    <use xlink:href="#path2_fill" transform="translate(396.712 707.665)" fill="#3D2D38" />
   </g>
   <g id="Shape">
    <use xlink:href="#path3_fill" transform="translate(409.498 708.818)" fill="#3D2D38" />
    <use xlink:href="#path4_stroke" transform="translate(409.498 708.818)" fill="#3D2D39" />
   </g>
   <g id="Shape">
    <use xlink:href="#path5_fill" transform="translate(414.308 708.837)" fill="#3D2D38" />
    <use xlink:href="#path6_stroke" transform="translate(414.308 708.837)" fill="#3D2D39" />
   </g>
   <g id="Shape">
    <use xlink:href="#path7_fill" transform="translate(409.579 700.422)" fill="#3D2D38" />
    <use xlink:href="#path8_stroke" transform="translate(409.579 700.422)" fill="#FFFFFF" />
   </g>
   <g id="Oval">
    <use xlink:href="#path9_fill" transform="translate(411.242 702.266)" fill="#FFFFFF" />
   </g>
   <g id="Shape">
    <use xlink:href="#path10_fill" transform="translate(412.104 703.227)" fill="#3D2D38" />
   </g>
  </g>
 </g>
 <defs>
  <path id="path0_fill" d="M 0 11.7C 0 5.23827 5.23827 0 11.7 0L 20.3667 0C 26.8284 0 32.0667 5.23827 32.0667 11.7L 32.0667 27.3C 32.0667 33.7617 26.8284 39 20.3667 39L 11.7 39C 5.23827 39 0 33.7617 0 27.3L 0 11.7Z" />
  <path id="path1_fill" d="M 0 1.92118C 0 0.860143 0.860143 0 1.92118 0L 13.9117 0C 14.9728 0 15.8329 0.860143 15.8329 1.92118C 15.8329 2.98222 14.9728 3.84236 13.9117 3.84236L 1.92118 3.84236C 0.860143 3.84236 0 2.98222 0 1.92118Z" />
  <path id="path2_fill" d="M 0 1.05665C 0 0.473078 0.473078 0 1.05665 0L 19.5863 0C 20.1698 0 20.6429 0.473078 20.6429 1.05665C 20.6429 1.64022 20.1698 2.1133 19.5863 2.1133L 1.05665 2.1133C 0.473078 2.1133 0 1.64022 0 1.05665Z" />
  <path id="path3_fill" d="M 2.84592 8.43399L 2.56533 5.2064L 0 7.33892L 3.10646 0L 5.95237 1.11429L 2.84592 8.43399Z" />
  <path id="path4_stroke" d="M 2.56533 5.2064L 2.81439 5.18475L 2.77301 4.70867L 2.40552 5.01415L 2.56533 5.2064ZM 0 7.33892L -0.230225 7.24147L 0.159813 7.53117L 0 7.33892ZM 3.10646 0L 3.19761 -0.232792L 2.97107 -0.321491L 2.87623 -0.0974508L 3.10646 0ZM 5.95237 1.11429L 6.18251 1.21195L 6.28297 0.975245L 6.04352 0.881494L 5.95237 1.11429ZM 3.09498 8.41234L 2.81439 5.18475L 2.31627 5.22806L 2.59686 8.45564L 3.09498 8.41234ZM 2.40552 5.01415L -0.159813 7.14667L 0.159813 7.53117L 2.72515 5.39865L 2.40552 5.01415ZM 0.230225 7.43637L 3.33668 0.0974508L 2.87623 -0.0974508L -0.230225 7.24147L 0.230225 7.43637ZM 3.01531 0.232792L 5.86123 1.34708L 6.04352 0.881494L 3.19761 -0.232792L 3.01531 0.232792ZM 5.72224 1.01662L 2.61578 8.33632L 3.07605 8.53166L 6.18251 1.21195L 5.72224 1.01662Z" />
  <path id="path5_fill" d="M 5.67179 7.43498L 3.20667 5.22562L 2.78579 8.43399L 0 0.999015L 2.886 0L 5.67179 7.43498Z" />
  <path id="path6_stroke" d="M 3.20667 5.22562L 3.37352 5.03945L 3.02046 4.72301L 2.95879 5.1931L 3.20667 5.22562ZM 2.78579 8.43399L 2.55169 8.52171L 3.03367 8.46651L 2.78579 8.43399ZM 0 0.999015L -0.0817787 0.762769L -0.324066 0.846639L -0.234106 1.08673L 0 0.999015ZM 2.886 0L 3.12011 -0.0877167L 3.03458 -0.315986L 2.80422 -0.236246L 2.886 0ZM 5.83865 7.2488L 3.37352 5.03945L 3.03981 5.41179L 5.50494 7.62115L 5.83865 7.2488ZM 2.95879 5.1931L 2.53792 8.40147L 3.03367 8.46651L 3.45454 5.25813L 2.95879 5.1931ZM 3.0199 8.34627L 0.234106 0.911298L -0.234106 1.08673L 2.55169 8.52171L 3.0199 8.34627ZM 0.0817787 1.23526L 2.96778 0.236246L 2.80422 -0.236246L -0.0817787 0.762769L 0.0817787 1.23526ZM 2.65189 0.0877167L 5.43769 7.52269L 5.9059 7.34726L 3.12011 -0.0877167L 2.65189 0.0877167Z" />
  <path id="path7_fill" d="M 8.45758 9.49064L 6.65383 9.43301L 5.23088 10.5089L 3.80792 9.45222L 2.00417 9.50985L 1.50312 7.85764L 0.0200417 6.87783L 0.621292 5.26404L 0 3.65025L 1.48308 2.67044L 1.98413 1.01823L 3.78787 1.05665L 5.21083 0L 6.63379 1.05665L 8.43754 0.999015L 8.93858 2.65123L 10.4217 3.61182L 9.82042 5.24483L 10.4417 6.85862L 8.93858 7.83842L 8.45758 9.49064Z" />
  <path id="path8_stroke" d="M 6.65383 9.43301L 6.6698 8.93326L 6.49322 8.92762L 6.35229 9.03417L 6.65383 9.43301ZM 5.23088 10.5089L 4.93279 10.9103L 5.23358 11.1337L 5.53242 10.9077L 5.23088 10.5089ZM 3.80792 9.45222L 4.10601 9.05079L 3.96611 8.94691L 3.79195 8.95247L 3.80792 9.45222ZM 2.00417 9.50985L 1.52568 9.65495L 1.63694 10.0218L 2.02013 10.0096L 2.00417 9.50985ZM 1.50312 7.85764L 1.98161 7.71253L 1.92925 7.5399L 1.77874 7.44046L 1.50312 7.85764ZM 0.0200417 6.87783L -0.448496 6.70327L -0.587308 7.07585L -0.255569 7.29501L 0.0200417 6.87783ZM 0.621292 5.26404L 1.08983 5.4386L 1.15595 5.26114L 1.08791 5.0844L 0.621292 5.26404ZM 0 3.65025L -0.275611 3.23307L -0.611063 3.45468L -0.466614 3.82989L 0 3.65025ZM 1.48308 2.67044L 1.75869 3.08762L 1.90921 2.98818L 1.96157 2.81555L 1.48308 2.67044ZM 1.98413 1.01823L 1.99477 0.51834L 1.61568 0.510265L 1.50564 0.873125L 1.98413 1.01823ZM 3.78787 1.05665L 3.77723 1.55654L 3.94846 1.56018L 4.08596 1.45808L 3.78787 1.05665ZM 5.21083 0L 5.50892 -0.401426L 5.21083 -0.622779L 4.91274 -0.401427L 5.21083 0ZM 6.63379 1.05665L 6.3357 1.45808L 6.4756 1.56196L 6.64976 1.5564L 6.63379 1.05665ZM 8.43754 0.999015L 8.91602 0.853913L 8.80476 0.487026L 8.42157 0.49927L 8.43754 0.999015ZM 8.93858 2.65123L 8.4601 2.79633L 8.5132 2.97143L 8.66677 3.07089L 8.93858 2.65123ZM 10.4217 3.61182L 10.8909 3.78458L 11.029 3.40947L 10.6935 3.19216L 10.4217 3.61182ZM 9.82042 5.24483L 9.35121 5.07207L 9.28616 5.24876L 9.3538 5.42447L 9.82042 5.24483ZM 10.4417 6.85862L 10.7147 7.27749L 11.0537 7.05655L 10.9083 6.67898L 10.4417 6.85862ZM 8.93858 7.83842L 8.66555 7.41956L 8.51031 7.52075L 8.45851 7.69866L 8.93858 7.83842ZM 8.47355 8.9909L 6.6698 8.93326L 6.63787 9.93275L 8.44162 9.99039L 8.47355 8.9909ZM 6.35229 9.03417L 4.92933 10.11L 5.53242 10.9077L 6.95538 9.83184L 6.35229 9.03417ZM 5.52896 10.1074L 4.10601 9.05079L 3.50983 9.85364L 4.93279 10.9103L 5.52896 10.1074ZM 3.79195 8.95247L 1.9882 9.01011L 2.02013 10.0096L 3.82388 9.95196L 3.79195 8.95247ZM 2.48265 9.36475L 1.98161 7.71253L 1.02464 8.00274L 1.52568 9.65495L 2.48265 9.36475ZM 1.77874 7.44046L 0.295652 6.46065L -0.255569 7.29501L 1.22751 8.27481L 1.77874 7.44046ZM 0.48858 7.0524L 1.08983 5.4386L 0.152754 5.08948L -0.448496 6.70327L 0.48858 7.0524ZM 1.08791 5.0844L 0.466614 3.47061L -0.466614 3.82989L 0.154677 5.44368L 1.08791 5.0844ZM 0.275611 4.06743L 1.75869 3.08762L 1.20747 2.25326L -0.275611 3.23307L 0.275611 4.06743ZM 1.96157 2.81555L 2.46261 1.16333L 1.50564 0.873125L 1.0046 2.52534L 1.96157 2.81555ZM 1.97348 1.51811L 3.77723 1.55654L 3.79852 0.556764L 1.99477 0.51834L 1.97348 1.51811ZM 4.08596 1.45808L 5.50892 0.401427L 4.91274 -0.401427L 3.48979 0.655224L 4.08596 1.45808ZM 4.91274 0.401426L 6.3357 1.45808L 6.93188 0.655224L 5.50892 -0.401426L 4.91274 0.401426ZM 6.64976 1.5564L 8.45351 1.49876L 8.42157 0.49927L 6.61782 0.556905L 6.64976 1.5564ZM 7.95906 1.14412L 8.4601 2.79633L 9.41707 2.50613L 8.91602 0.853913L 7.95906 1.14412ZM 8.66677 3.07089L 10.1499 4.03149L 10.6935 3.19216L 9.2104 2.23157L 8.66677 3.07089ZM 9.95246 3.43907L 9.35121 5.07207L 10.2896 5.41758L 10.8909 3.78458L 9.95246 3.43907ZM 9.3538 5.42447L 9.97509 7.03826L 10.9083 6.67898L 10.287 5.06519L 9.3538 5.42447ZM 10.1687 6.43975L 8.66555 7.41956L 9.21162 8.25729L 10.7147 7.27749L 10.1687 6.43975ZM 8.45851 7.69866L 7.97751 9.35088L 8.93765 9.6304L 9.41865 7.97818L 8.45851 7.69866Z" />
  <path id="path9_fill" d="M 3.54737 6.80099C 5.50654 6.80099 7.09475 5.27853 7.09475 3.40049C 7.09475 1.52245 5.50654 0 3.54737 0C 1.58821 0 0 1.52245 0 3.40049C 0 5.27853 1.58821 6.80099 3.54737 6.80099Z" />
  <path id="path10_fill" d="M 3.32692 1.86355L 5.39121 1.86355L 3.72775 3.01626L 4.34904 4.89901L 2.68558 3.74631L 1.02213 4.89901L 1.66346 3.01626L 0 1.86355L 2.06429 1.86355L 2.68558 0L 3.32692 1.86355Z" />
 </defs>
</svg>