<svg width="148" height="55" viewBox="0 0 148 55" version="1.1" xmlns="http://www.w3.org/2000/svg" xmlns:xlink="http://www.w3.org/1999/xlink">
<title>Toxicfree</title>
<desc>Created using Figma</desc>
<g id="Canvas" transform="translate(-333 -596)">
<g id="Toxicfree">
<g id="Toxicfree Copy">
<use xlink:href="#path0_fill" transform="translate(333 608)" fill="#FFFFFF"/>
</g>
<g id="Group 2 Copy">
<g id="Oval 2 Copy 10">
<use xlink:href="#path1_fill" transform="translate(425 596)" fill="#F6EBE2"/>
<mask id="mask0_outline_ins">
<use xlink:href="#path1_fill" fill="white" transform="translate(425 596)"/>
</mask>
<g mask="url(#mask0_outline_ins)">
<use xlink:href="#path2_stroke_2x" transform="translate(425 596)" fill="#3D2D38"/>
</g>
</g>
<g id="toxic">
<g id="Layer_1">
<g id="Oval">
<use xlink:href="#path3_fill" transform="translate(448.91 619.117)" fill="#3D2D38"/>
</g>
</g>
<g id="Layer_2">
<g id="Shape">
<use xlink:href="#path4_fill" transform="translate(456.318 604)" fill="#3D2D38"/>
</g>
<g id="Shape">
<use xlink:href="#path5_fill" transform="translate(442.083 628.84)" fill="#3D2D38"/>
</g>
<g id="Shape">
<use xlink:href="#path6_fill" transform="translate(431.185 604.076)" fill="#3D2D38"/>
</g>
</g>
</g>
</g>
</g>
</g>
<defs>
<path id="path0_fill" d="M 4.807 19L 4.807 7.106L 0.228 7.106L 0.228 5.472L 11.362 5.472L 11.362 7.106L 6.783 7.106L 6.783 19L 4.807 19ZM 15.6413 19.133C 14.704 19.133 13.8806 18.9303 13.1713 18.525C 12.462 18.1197 11.911 17.5433 11.5183 16.796C 11.1383 16.0487 10.9483 15.1747 10.9483 14.174C 10.9483 13.1733 11.1383 12.2993 11.5183 11.552C 11.911 10.792 12.462 10.2093 13.1713 9.804C 13.8806 9.39867 14.704 9.196 15.6413 9.196C 16.566 9.196 17.383 9.39867 18.0923 9.804C 18.8016 10.2093 19.3463 10.792 19.7263 11.552C 20.119 12.2993 20.3153 13.1733 20.3153 14.174C 20.3153 15.1747 20.119 16.0487 19.7263 16.796C 19.3463 17.5433 18.8016 18.1197 18.0923 18.525C 17.383 18.9303 16.566 19.133 15.6413 19.133ZM 15.6223 17.613C 16.509 17.613 17.1866 17.3217 17.6553 16.739C 18.124 16.1563 18.3583 15.3013 18.3583 14.174C 18.3583 13.072 18.1176 12.2233 17.6363 11.628C 17.1676 11.0327 16.5026 10.735 15.6413 10.735C 14.7673 10.735 14.0896 11.0327 13.6083 11.628C 13.127 12.2233 12.8863 13.072 12.8863 14.174C 12.8863 15.3013 13.1206 16.1563 13.5893 16.739C 14.0706 17.3217 14.7483 17.613 15.6223 17.613ZM 27.2368 14.079L 31.2078 19L 28.9278 19L 26.0968 15.466L 23.3038 19L 21.0048 19L 24.9948 14.079L 21.2328 9.424L 23.5318 9.424L 26.0968 12.692L 28.6808 9.424L 30.9988 9.424L 27.2368 14.079ZM 32.6521 19L 32.6521 9.424L 34.5521 9.424L 34.5521 19L 32.6521 19ZM 32.4811 5.244L 34.7041 5.244L 34.7041 7.258L 32.4811 7.258L 32.4811 5.244ZM 41.526 19.133C 40.5633 19.133 39.721 18.9303 38.999 18.525C 38.2897 18.1197 37.745 17.5497 37.365 16.815C 36.985 16.0677 36.795 15.2 36.795 14.212C 36.795 13.224 36.9913 12.35 37.384 11.59C 37.7893 10.83 38.353 10.241 39.075 9.823C 39.797 9.405 40.6393 9.196 41.602 9.196C 42.2733 9.196 42.9193 9.31 43.54 9.538C 44.1607 9.75333 44.661 10.051 45.041 10.431L 44.452 11.818C 43.5527 11.1087 42.647 10.754 41.735 10.754C 40.8103 10.754 40.0883 11.058 39.569 11.666C 39.0497 12.2613 38.79 13.1037 38.79 14.193C 38.79 15.2823 39.0497 16.1247 39.569 16.72C 40.0883 17.3027 40.8103 17.594 41.735 17.594C 42.6723 17.594 43.578 17.2393 44.452 16.53L 45.041 17.917C 44.6357 18.297 44.1163 18.5947 43.483 18.81C 42.8623 19.0253 42.21 19.133 41.526 19.133ZM 50.9305 6.555C 49.8792 6.555 49.3535 7.15667 49.3535 8.36L 49.3535 9.424L 51.5955 9.424L 51.5955 10.906L 49.3535 10.906L 49.3535 19L 47.4345 19L 47.4345 10.906L 45.5915 10.906L 45.5915 9.424L 47.4345 9.424L 47.4345 8.208C 47.4345 7.144 47.7005 6.33333 48.2325 5.776C 48.7772 5.21867 49.5372 4.94 50.5125 4.94C 51.0192 4.94 51.4815 5.00333 51.8995 5.13L 51.8995 6.707C 51.5575 6.60567 51.2345 6.555 50.9305 6.555ZM 58.3137 9.196C 58.605 9.196 58.909 9.24033 59.2257 9.329L 59.1877 11.077C 58.8457 10.9503 58.472 10.887 58.0667 10.887C 57.1927 10.887 56.534 11.153 56.0907 11.685C 55.66 12.2043 55.4447 12.863 55.4447 13.661L 55.4447 19L 53.5447 19L 53.5447 12.122C 53.5447 11.1213 53.494 10.222 53.3927 9.424L 55.1787 9.424L 55.3497 11.153C 55.603 10.5197 55.9957 10.0383 56.5277 9.709C 57.0597 9.367 57.655 9.196 58.3137 9.196ZM 68.6727 14.25L 61.8327 14.25C 61.896 16.492 62.9157 17.613 64.8917 17.613C 65.9937 17.613 67.0007 17.252 67.9127 16.53L 68.5017 17.898C 68.071 18.278 67.52 18.582 66.8487 18.81C 66.19 19.0253 65.525 19.133 64.8537 19.133C 63.321 19.133 62.1177 18.696 61.2437 17.822C 60.3697 16.9353 59.9327 15.7257 59.9327 14.193C 59.9327 13.2177 60.1227 12.35 60.5027 11.59C 60.8953 10.83 61.44 10.241 62.1367 9.823C 62.8333 9.405 63.625 9.196 64.5117 9.196C 65.8037 9.196 66.817 9.614 67.5517 10.45C 68.299 11.286 68.6727 12.445 68.6727 13.927L 68.6727 14.25ZM 64.5497 10.621C 63.8277 10.621 63.2387 10.8363 62.7827 11.267C 62.3267 11.6977 62.0353 12.312 61.9087 13.11L 66.9817 13.11C 66.9057 12.2993 66.6587 11.685 66.2407 11.267C 65.8227 10.8363 65.259 10.621 64.5497 10.621ZM 79.0448 14.25L 72.2047 14.25C 72.2681 16.492 73.2878 17.613 75.2638 17.613C 76.3658 17.613 77.3728 17.252 78.2847 16.53L 78.8738 17.898C 78.4431 18.278 77.8921 18.582 77.2207 18.81C 76.5621 19.0253 75.8971 19.133 75.2258 19.133C 73.6931 19.133 72.4897 18.696 71.6157 17.822C 70.7418 16.9353 70.3047 15.7257 70.3047 14.193C 70.3047 13.2177 70.4948 12.35 70.8748 11.59C 71.2674 10.83 71.8121 10.241 72.5087 9.823C 73.2054 9.405 73.9971 9.196 74.8837 9.196C 76.1757 9.196 77.1891 9.614 77.9237 10.45C 78.6711 11.286 79.0448 12.445 79.0448 13.927L 79.0448 14.25ZM 74.9218 10.621C 74.1997 10.621 73.6107 10.8363 73.1548 11.267C 72.6988 11.6977 72.4074 12.312 72.2808 13.11L 77.3537 13.11C 77.2778 12.2993 77.0308 11.685 76.6127 11.267C 76.1948 10.8363 75.6311 10.621 74.9218 10.621Z"/>
<path id="path1_fill" fill-rule="evenodd" d="M 28 55C 43.464 55 56 42.6878 56 27.5C 56 12.3122 43.464 0 28 0C 12.536 0 0 12.3122 0 27.5C 0 42.6878 12.536 55 28 55Z"/>
<path id="path2_stroke_2x" d="M 28 58C 45.0696 58 59 44.3954 59 27.5L 53 27.5C 53 40.9802 41.8583 52 28 52L 28 58ZM 59 27.5C 59 10.6046 45.0696 -3 28 -3L 28 3C 41.8583 3 53 14.0198 53 27.5L 59 27.5ZM 28 -3C 10.9304 -3 -3 10.6046 -3 27.5L 3 27.5C 3 14.0198 14.1417 3 28 3L 28 -3ZM -3 27.5C -3 44.3954 10.9304 58 28 58L 28 52C 14.1417 52 3 40.9802 3 27.5L -3 27.5Z"/>
<path id="path3_fill" d="M 4.12149 8.24298C 6.39773 8.24298 8.24298 6.39773 8.24298 4.12149C 8.24298 1.84525 6.39773 0 4.12149 0C 1.84525 0 0 1.84525 0 4.12149C 0 6.39773 1.84525 8.24298 4.12149 8.24298Z"/>
<path id="path4_fill" d="M 0 13.3322L 7.67042 0C 7.67042 0 18.8072 6.37443 18.5521 18.9947C 15.4703 19.0264 3.27412 19.0264 3.27412 19.0264C 3.27412 19.0264 3.5884 15.6285 0 13.3322Z"/>
<path id="path5_fill" d="M 14.2445 0.0410051L 21.7634 13.4609C 21.7634 13.4609 10.6709 19.9154 0 13.2987C 1.53261 10.6035 7.70924 0 7.70924 0C 7.70924 0 10.4583 2.00366 14.2445 0.0410051Z"/>
<path id="path6_fill" d="M 15.2875 18.9928L 0.000235307 19.086C 0.000235307 19.086 -0.195731 6.175 10.7229 0C 12.3128 2.6616 18.4876 13.2596 18.4876 13.2596C 18.4876 13.2596 15.4298 14.7041 15.2875 18.9928Z"/>
</defs>
</svg>
