<svg width="56" height="55" viewBox="0 0 56 55" version="1.1" xmlns="http://www.w3.org/2000/svg" xmlns:xlink="http://www.w3.org/1999/xlink">
 <title>Group 5</title>
 <desc>Created using Figma</desc>
 <g id="Canvas" transform="translate(-290 -822)">
  <g id="Group 5">
   <g id="Oval 2 Copy 7">
    <use xlink:href="#path0_fill" transform="translate(290 822)" fill="#3D2D38" />
    <mask id="mask0_outline_ins">
     <use xlink:href="#path0_fill" fill="white" transform="translate(290 822)" />
    </mask>
    <g mask="url(#mask0_outline_ins)">
     <use xlink:href="#path1_stroke_2x" transform="translate(290 822)" fill="#FFFFFF" />
    </g>
   </g>
   <g id="vegan copy">
    <g id="Layer_2">
     <g id="Shape">
      <use xlink:href="#path2_fill" transform="translate(301.201 828)" fill="#FFFFFF" />
     </g>
    </g>
    <g id="Layer_1">
     <g id="Oval">
      <use xlink:href="#path3_fill" transform="translate(330.042 842.122)" fill="#3D2D38" />
     </g>
    </g>
   </g>
  </g>
 </g>
 <defs>
  <path id="path0_fill" fill-rule="evenodd" d="M 28 55C 43.464 55 56 42.6878 56 27.5C 56 12.3122 43.464 0 28 0C 12.536 0 0 12.3122 0 27.5C 0 42.6878 12.536 55 28 55Z" />
  <path id="path1_stroke_2x" d="M 28 58C 45.0696 58 59 44.3954 59 27.5L 53 27.5C 53 40.9802 41.8583 52 28 52L 28 58ZM 59 27.5C 59 10.6046 45.0696 -3 28 -3L 28 3C 41.8583 3 53 14.0198 53 27.5L 59 27.5ZM 28 -3C 10.9304 -3 -3 10.6046 -3 27.5L 3 27.5C 3 14.0198 14.1417 3 28 3L 28 -3ZM -3 27.5C -3 44.3954 10.9304 58 28 58L 28 52C 14.1417 52 3 40.9802 3 27.5L -3 27.5Z" />
  <path id="path2_fill" d="M 20.6397 32.7346C 20.6397 32.7346 21.2541 38.192 24.9409 37.7878C 28.6276 37.3835 26.1698 35.243 25.0904 35.148C 24.6029 35.0995 24.8467 33.5613 24.8467 33.5613C 24.8467 33.5613 25.285 31.0124 25.1396 29.9068C 31.2841 25.3387 30.0122 21.6843 30.0122 21.6843C 30.0122 21.6843 29.281 18.8545 31.4255 18.5109C 32.9841 18.2218 33.2688 16.3481 33.2688 16.3481L 33.7072 15.675L 31.6119 13.0777C 31.6119 13.0777 31.1244 10.3853 26.6962 9.66372C 25.9158 3.12489 19.5828 0 19.5828 0C 19.5828 0 18.0733 6.63585 23.1405 10.3853C 22.8 10.6931 22.4424 10.9819 22.0693 11.2504C 22.0693 11.2504 18.9028 8.17404 10.1898 10.2883C 10.1407 10.3368 12.0905 13.7993 20.4308 14.0863C 20.0416 14.8079 20.3816 16.0105 20.3816 16.0105C 20.3816 16.0105 20.6069 17.4537 17.4322 16.8676C 6.27571 12.2995 -1.4726 23.2629 1.45631 32.494C -0.249832 33.2641 -0.93188 37.3027 2.0892 37.4462C 2.13836 37.4947 4.76824 37.7837 6.23065 36.484C 6.27981 36.4355 10.2738 37.6867 10.2738 37.6867L 21.0903 37.6867C 21.0903 37.6867 22.5035 36.3405 19.5808 35.0894C 19.5808 35.0409 16.0722 34.6083 16.0722 34.6083C 16.0722 34.6083 19.7446 33.9271 20.6397 32.7346Z" />
  <path id="path3_fill" d="M 0.431667 0.863333C 0.67007 0.863333 0.863333 0.67007 0.863333 0.431667C 0.863333 0.193264 0.67007 0 0.431667 0C 0.193264 0 0 0.193264 0 0.431667C 0 0.67007 0.193264 0.863333 0.431667 0.863333Z" />
 </defs>
</svg>