<svg width="44" height="43" viewBox="0 0 44 43" version="1.1" xmlns="http://www.w3.org/2000/svg" xmlns:xlink="http://www.w3.org/1999/xlink">
<title>facebook</title>
<desc>Created using Figma</desc>
<g id="Canvas" transform="translate(-411 -1804)">
<g id="facebook">
<g id="Oval 2 Copy 7">
<use xlink:href="#path0_fill" transform="translate(411 1804)" fill="#3D2D38"/>
<mask id="mask0_outline_ins">
<use xlink:href="#path0_fill" fill="white" transform="translate(411 1804)"/>
</mask>
<g mask="url(#mask0_outline_ins)">
<use xlink:href="#path1_stroke_2x" transform="translate(411 1804)" fill="#FFFFFF"/>
</g>
</g>
<g id="facebook">
<g id="Shape">
<use xlink:href="#path2_fill" transform="translate(428.171 1812.59)" fill="#FFFFFF"/>
</g>
</g>
</g>
</g>
<defs>
<path id="path0_fill" fill-rule="evenodd" d="M 22 42.9268C 34.1503 42.9268 44 33.3173 44 21.4634C 44 9.6095 34.1503 0 22 0C 9.84974 0 0 9.6095 0 21.4634C 0 33.3173 9.84974 42.9268 22 42.9268Z"/>
<path id="path1_stroke_2x" d="M 22 45.9268C 35.7369 45.9268 47 35.0436 47 21.4634L 41 21.4634C 41 31.5911 32.5637 39.9268 22 39.9268L 22 45.9268ZM 47 21.4634C 47 7.88324 35.7369 -3 22 -3L 22 3C 32.5637 3 41 11.3358 41 21.4634L 47 21.4634ZM 22 -3C 8.26314 -3 -3 7.88324 -3 21.4634L 3 21.4634C 3 11.3358 11.4363 3 22 3L 22 -3ZM -3 21.4634C -3 35.0436 8.26314 45.9268 22 45.9268L 22 39.9268C 11.4363 39.9268 3 31.5911 3 21.4634L -3 21.4634Z"/>
<path id="path2_fill" d="M 4.90592 33.216C 4.90592 33.216 10.9021 34.0533 11.1746 29.0291C 11.4472 24.0048 11.1746 18.1432 11.1746 18.1432L 16.0805 17.864L 17.1707 12.0024L 10.9021 12.0024L 10.9021 7.81552C 10.9021 7.81552 10.9021 5.30339 14.1727 5.30339L 16.8982 5.30339L 17.1707 0L 11.1746 0C 11.1746 0 5.17847 0.558251 5.17847 6.69902L 5.17847 12.0024L 0 12.0024L 0 18.1432L 4.90592 18.1432L 4.90592 33.216Z"/>
</defs>
</svg>
