<svg width="242" height="54" viewBox="0 0 242 54" version="1.1" xmlns="http://www.w3.org/2000/svg" xmlns:xlink="http://www.w3.org/1999/xlink">
<title>SYMBOL</title>
<desc>Created using Figma</desc>
<g id="Canvas" transform="translate(-285 -1689)">
<g id="VISIT OUR STORE/SYMBOL">
<g id="Rectangle 11">
<use xlink:href="#path0_fill" transform="translate(285 1689)" fill="#3D2D38" fill-opacity="0.573964"/>
<mask id="mask0_outline_ins">
<use xlink:href="#path0_fill" fill="white" transform="translate(285 1689)"/>
</mask>
<g mask="url(#mask0_outline_ins)">
<use xlink:href="#path1_stroke_2x" transform="translate(285 1689)" fill="#FFFFFF"/>
</g>
</g>
<g id="VISIT OUR STORE">
<use xlink:href="#path2_fill" transform="translate(319 1703)" fill="#FFFFFF"/>
</g>
</g>
</g>
<defs>
<path id="path0_fill" fill-rule="evenodd" d="M 0 0L 242 0L 242 54L 0 54L 0 0Z"/>
<path id="path1_stroke_2x" d="M 0 0L 0 -3L -3 -3L -3 0L 0 0ZM 242 0L 245 0L 245 -3L 242 -3L 242 0ZM 242 54L 242 57L 245 57L 245 54L 242 54ZM 0 54L -3 54L -3 57L 0 57L 0 54ZM 0 3L 242 3L 242 -3L 0 -3L 0 3ZM 239 0L 239 54L 245 54L 245 0L 239 0ZM 242 51L 0 51L 0 57L 242 57L 242 51ZM 3 54L 3 0L -3 0L -3 54L 3 54Z"/>
<path id="path2_fill" d="M 11.514 5.472L 13.528 5.472L 7.562 19L 5.909 19L -0.057 5.472L 1.995 5.472L 6.745 16.53L 11.514 5.472ZM 15.8928 19L 15.8928 5.472L 17.8498 5.472L 17.8498 19L 15.8928 19ZM 26.286 19.152C 25.2346 19.152 24.272 19.0127 23.398 18.734C 22.5366 18.4553 21.7893 18.0373 21.156 17.48L 21.859 16.036C 22.5176 16.568 23.2016 16.9543 23.911 17.195C 24.6203 17.4357 25.4183 17.556 26.305 17.556C 27.3183 17.556 28.1036 17.366 28.661 16.986C 29.2183 16.606 29.497 16.0677 29.497 15.371C 29.497 14.7883 29.2373 14.3513 28.718 14.06C 28.1986 13.756 27.3753 13.4773 26.248 13.224C 25.1713 12.996 24.291 12.7363 23.607 12.445C 22.923 12.141 22.3846 11.742 21.992 11.248C 21.5993 10.7413 21.403 10.0953 21.403 9.31C 21.403 8.52467 21.612 7.83433 22.03 7.239C 22.448 6.631 23.037 6.16233 23.797 5.833C 24.5696 5.491 25.4563 5.32 26.457 5.32C 27.407 5.32 28.2936 5.46567 29.117 5.757C 29.953 6.04833 30.6496 6.46 31.207 6.992L 30.504 8.436C 29.8833 7.91667 29.2436 7.53667 28.585 7.296C 27.9263 7.04267 27.2233 6.916 26.476 6.916C 25.5006 6.916 24.7343 7.125 24.177 7.543C 23.6196 7.94833 23.341 8.50567 23.341 9.215C 23.341 9.823 23.5816 10.2853 24.063 10.602C 24.557 10.9187 25.3423 11.2037 26.419 11.457C 27.5463 11.7103 28.4583 11.9763 29.155 12.255C 29.8516 12.5337 30.409 12.9137 30.827 13.395C 31.245 13.8763 31.454 14.497 31.454 15.257C 31.454 16.0423 31.245 16.7263 30.827 17.309C 30.409 17.8917 29.8073 18.3477 29.022 18.677C 28.2493 18.9937 27.3373 19.152 26.286 19.152ZM 34.746 19L 34.746 5.472L 36.703 5.472L 36.703 19L 34.746 19ZM 43.9422 19L 43.9422 7.106L 39.3632 7.106L 39.3632 5.472L 50.4972 5.472L 50.4972 7.106L 45.9182 7.106L 45.9182 19L 43.9422 19ZM 64.9156 19.152C 63.6363 19.152 62.5216 18.8733 61.5716 18.316C 60.6343 17.746 59.9059 16.9417 59.3866 15.903C 58.8799 14.8643 58.6266 13.642 58.6266 12.236C 58.6266 10.8173 58.8799 9.58867 59.3866 8.55C 59.8933 7.51133 60.6216 6.71333 61.5716 6.156C 62.5216 5.59867 63.6363 5.32 64.9156 5.32C 66.2076 5.32 67.3223 5.59867 68.2596 6.156C 69.2096 6.71333 69.9379 7.51133 70.4446 8.55C 70.9513 9.58867 71.2046 10.811 71.2046 12.217C 71.2046 13.6357 70.9513 14.8643 70.4446 15.903C 69.9379 16.9417 69.2096 17.746 68.2596 18.316C 67.3096 18.8733 66.1949 19.152 64.9156 19.152ZM 64.9156 17.556C 66.2709 17.556 67.3223 17.0937 68.0696 16.169C 68.8296 15.2443 69.2096 13.927 69.2096 12.217C 69.2096 10.5197 68.8296 9.215 68.0696 8.303C 67.3223 7.37833 66.2709 6.916 64.9156 6.916C 63.5603 6.916 62.5089 7.37833 61.7616 8.303C 61.0143 9.215 60.6406 10.5197 60.6406 12.217C 60.6406 13.927 61.0143 15.2443 61.7616 16.169C 62.5216 17.0937 63.5729 17.556 64.9156 17.556ZM 80.1869 19.152C 78.3882 19.152 77.0202 18.6833 76.0829 17.746C 75.1582 16.8087 74.6959 15.4343 74.6959 13.623L 74.6959 5.472L 76.6149 5.472L 76.6149 13.756C 76.6149 15.01 76.9125 15.96 77.5079 16.606C 78.1159 17.2393 79.0089 17.556 80.1869 17.556C 81.3522 17.556 82.2325 17.233 82.8279 16.587C 83.4359 15.941 83.7399 14.9973 83.7399 13.756L 83.7399 5.472L 85.6779 5.472L 85.6779 13.623C 85.6779 15.4343 85.2092 16.8087 84.2719 17.746C 83.3472 18.6833 81.9855 19.152 80.1869 19.152ZM 100.456 19L 98.3852 19L 96.6942 14.497C 96.5168 14.0157 96.2572 13.6863 95.9152 13.509C 95.5732 13.319 95.1045 13.224 94.5092 13.224L 91.5452 13.224L 91.5452 19L 89.6072 19L 89.6072 5.472L 95.1742 5.472C 96.6562 5.472 97.7898 5.80133 98.5752 6.46C 99.3732 7.11867 99.7722 8.06233 99.7722 9.291C 99.7722 10.1777 99.5378 10.9313 99.0692 11.552C 98.6005 12.1727 97.9355 12.6097 97.0742 12.863C 97.8595 13.0023 98.4295 13.5597 98.7842 14.535L 100.456 19ZM 94.9462 11.647C 95.9342 11.647 96.6688 11.457 97.1502 11.077C 97.6315 10.6843 97.8722 10.1017 97.8722 9.329C 97.8722 8.55633 97.6315 7.98633 97.1502 7.619C 96.6815 7.239 95.9468 7.049 94.9462 7.049L 91.5452 7.049L 91.5452 11.647L 94.9462 11.647ZM 114.075 19.152C 113.024 19.152 112.061 19.0127 111.187 18.734C 110.326 18.4553 109.578 18.0373 108.945 17.48L 109.648 16.036C 110.307 16.568 110.991 16.9543 111.7 17.195C 112.409 17.4357 113.207 17.556 114.094 17.556C 115.107 17.556 115.893 17.366 116.45 16.986C 117.007 16.606 117.286 16.0677 117.286 15.371C 117.286 14.7883 117.026 14.3513 116.507 14.06C 115.988 13.756 115.164 13.4773 114.037 13.224C 112.96 12.996 112.08 12.7363 111.396 12.445C 110.712 12.141 110.174 11.742 109.781 11.248C 109.388 10.7413 109.192 10.0953 109.192 9.31C 109.192 8.52467 109.401 7.83433 109.819 7.239C 110.237 6.631 110.826 6.16233 111.586 5.833C 112.359 5.491 113.245 5.32 114.246 5.32C 115.196 5.32 116.083 5.46567 116.906 5.757C 117.742 6.04833 118.439 6.46 118.996 6.992L 118.293 8.436C 117.672 7.91667 117.033 7.53667 116.374 7.296C 115.715 7.04267 115.012 6.916 114.265 6.916C 113.29 6.916 112.523 7.125 111.966 7.543C 111.409 7.94833 111.13 8.50567 111.13 9.215C 111.13 9.823 111.371 10.2853 111.852 10.602C 112.346 10.9187 113.131 11.2037 114.208 11.457C 115.335 11.7103 116.247 11.9763 116.944 12.255C 117.641 12.5337 118.198 12.9137 118.616 13.395C 119.034 13.8763 119.243 14.497 119.243 15.257C 119.243 16.0423 119.034 16.7263 118.616 17.309C 118.198 17.8917 117.596 18.3477 116.811 18.677C 116.038 18.9937 115.126 19.152 114.075 19.152ZM 125.487 19L 125.487 7.106L 120.908 7.106L 120.908 5.472L 132.042 5.472L 132.042 7.106L 127.463 7.106L 127.463 19L 125.487 19ZM 139.715 19.152C 138.435 19.152 137.321 18.8733 136.371 18.316C 135.433 17.746 134.705 16.9417 134.186 15.903C 133.679 14.8643 133.426 13.642 133.426 12.236C 133.426 10.8173 133.679 9.58867 134.186 8.55C 134.692 7.51133 135.421 6.71333 136.371 6.156C 137.321 5.59867 138.435 5.32 139.715 5.32C 141.007 5.32 142.121 5.59867 143.059 6.156C 144.009 6.71333 144.737 7.51133 145.244 8.55C 145.75 9.58867 146.004 10.811 146.004 12.217C 146.004 13.6357 145.75 14.8643 145.244 15.903C 144.737 16.9417 144.009 17.746 143.059 18.316C 142.109 18.8733 140.994 19.152 139.715 19.152ZM 139.715 17.556C 141.07 17.556 142.121 17.0937 142.869 16.169C 143.629 15.2443 144.009 13.927 144.009 12.217C 144.009 10.5197 143.629 9.215 142.869 8.303C 142.121 7.37833 141.07 6.916 139.715 6.916C 138.359 6.916 137.308 7.37833 136.561 8.303C 135.813 9.215 135.44 10.5197 135.44 12.217C 135.44 13.927 135.813 15.2443 136.561 16.169C 137.321 17.0937 138.372 17.556 139.715 17.556ZM 160.42 19L 158.349 19L 156.658 14.497C 156.481 14.0157 156.221 13.6863 155.879 13.509C 155.537 13.319 155.068 13.224 154.473 13.224L 151.509 13.224L 151.509 19L 149.571 19L 149.571 5.472L 155.138 5.472C 156.62 5.472 157.754 5.80133 158.539 6.46C 159.337 7.11867 159.736 8.06233 159.736 9.291C 159.736 10.1777 159.502 10.9313 159.033 11.552C 158.564 12.1727 157.899 12.6097 157.038 12.863C 157.823 13.0023 158.393 13.5597 158.748 14.535L 160.42 19ZM 154.91 11.647C 155.898 11.647 156.633 11.457 157.114 11.077C 157.595 10.6843 157.836 10.1017 157.836 9.329C 157.836 8.55633 157.595 7.98633 157.114 7.619C 156.645 7.239 155.911 7.049 154.91 7.049L 151.509 7.049L 151.509 11.647L 154.91 11.647ZM 163.683 19L 163.683 5.472L 172.461 5.472L 172.461 7.068L 165.621 7.068L 165.621 11.324L 172.081 11.324L 172.081 12.92L 165.621 12.92L 165.621 17.404L 172.461 17.404L 172.461 19L 163.683 19Z"/>
</defs>
</svg>
