<svg width="44" height="44" viewBox="0 0 44 44" version="1.1" xmlns="http://www.w3.org/2000/svg" xmlns:xlink="http://www.w3.org/1999/xlink">
<title>youtube</title>
<desc>Created using Figma</desc>
<g id="Canvas" transform="translate(-243 -1805)">
<g id="youtube">
<g id="Oval 2 Copy 9">
<use xlink:href="#path0_fill" transform="translate(243 1805)" fill="#3D2D38"/>
<mask id="mask0_outline_ins">
<use xlink:href="#path0_fill" fill="white" transform="translate(243 1805)"/>
</mask>
<g mask="url(#mask0_outline_ins)">
<use xlink:href="#path1_stroke_2x" transform="translate(243 1805)" fill="#FFFFFF"/>
</g>
</g>
<g id="youtube">
<g id="Layer_2">
<g id="Rectangle-path">
<use xlink:href="#path2_fill" transform="translate(249.828 1816.38)" fill="#FFFFFF"/>
</g>
</g>
<g id="Layer_3">
<g id="Shape">
<use xlink:href="#path3_fill" transform="translate(260.465 1821.69)" fill="#3D2D39"/>
</g>
</g>
</g>
</g>
</g>
<defs>
<path id="path0_fill" fill-rule="evenodd" d="M 22 43.2414C 34.1503 43.2414 44 33.5615 44 21.6207C 44 9.67991 34.1503 0 22 0C 9.84974 0 0 9.67991 0 21.6207C 0 33.5615 9.84974 43.2414 22 43.2414Z"/>
<path id="path1_stroke_2x" d="M 22 46.2414C 35.7577 46.2414 47 35.2673 47 21.6207L 41 21.6207C 41 31.8556 32.5428 40.2414 22 40.2414L 22 46.2414ZM 47 21.6207C 47 7.97408 35.7577 -3 22 -3L 22 3C 32.5428 3 41 11.3857 41 21.6207L 47 21.6207ZM 22 -3C 8.24228 -3 -3 7.97408 -3 21.6207L 3 21.6207C 3 11.3857 11.4572 3 22 3L 22 -3ZM -3 21.6207C -3 35.2673 8.24228 46.2414 22 46.2414L 22 40.2414C 11.4572 40.2414 3 31.8556 3 21.6207L -3 21.6207Z"/>
<path id="path2_fill" d="M 0 2.3C 0 1.02975 1.02975 0 2.3 0L 28.0448 0C 29.3151 0 30.3448 1.02975 30.3448 2.3L 30.3448 18.9414C 30.3448 20.2116 29.3151 21.2414 28.0448 21.2414L 2.3 21.2414C 1.02975 21.2414 0 20.2116 0 18.9414L 0 2.3Z"/>
<path id="path3_fill" d="M 0 0L 0 10.6207L 10.588 5.21379L 0 0Z"/>
</defs>
</svg>
